<?xml version="1.0" encoding="UTF-8"?>
<svg xmlns="http://www.w3.org/2000/svg" xmlns:xlink="http://www.w3.org/1999/xlink" width="256px" height="256px" viewBox="0 0 256 256" version="1.1">
<g id="surface1">
<path style=" stroke:none;fill-rule:nonzero;fill:rgb(0%,0%,0%);fill-opacity:1;" d="M 199.574219 208 C 190.71875 221.226562 181.332031 234.132812 167.039062 234.347656 C 152.746094 234.667969 148.160156 225.921875 131.945312 225.921875 C 115.625 225.921875 110.613281 234.132812 97.066406 234.667969 C 83.09375 235.199219 72.53125 220.585938 63.574219 207.679688 C 45.332031 181.332031 31.359375 132.800781 50.132812 100.160156 C 59.414062 83.945312 76.054688 73.707031 94.078125 73.386719 C 107.734375 73.171875 120.746094 82.667969 129.171875 82.667969 C 137.492188 82.667969 153.28125 71.253906 169.8125 72.960938 C 176.746094 73.28125 196.160156 75.734375 208.640625 94.078125 C 207.679688 94.71875 185.492188 107.734375 185.707031 134.71875 C 186.027344 166.933594 213.972656 177.707031 214.292969 177.8125 C 213.972656 178.558594 209.8125 193.171875 199.574219 208 Z M 138.667969 37.332031 C 146.453125 28.480469 159.359375 21.761719 170.027344 21.332031 C 171.414062 33.8125 166.398438 46.398438 158.933594 55.359375 C 151.574219 64.425781 139.414062 71.464844 127.464844 70.507812 C 125.867188 58.238281 131.839844 45.441406 138.667969 37.332031 Z M 138.667969 37.332031 "/>
</g>
</svg>
