<?xml version="1.0" encoding="UTF-8"?>
<svg xmlns="http://www.w3.org/2000/svg" xmlns:xlink="http://www.w3.org/1999/xlink" width="256px" height="256px" viewBox="0 0 256 256" version="1.1">
<g id="surface1">
<path style=" stroke:none;fill-rule:nonzero;fill:rgb(16.078432%,25.490198%,44.705883%);fill-opacity:1;" d="M 240 128.003906 C 240 66.144531 189.855469 16 128 16 C 66.167969 16 16.042969 66.105469 16 127.925781 L 16 214.597656 C 16.035156 228.632812 27.417969 239.996094 41.464844 239.996094 L 128.042969 239.996094 C 189.878906 239.972656 240 189.84375 240 128.003906 Z M 240 128.003906 "/>
<path style=" stroke:none;fill-rule:nonzero;fill:rgb(23.529412%,43.137255%,70.588237%);fill-opacity:1;" d="M 160.878906 42.519531 C 131.910156 42.519531 108.339844 66.085938 108.339844 95.058594 L 108.339844 122.945312 L 80.570312 122.945312 C 51.601562 122.945312 28.03125 146.515625 28.03125 175.484375 C 28.03125 204.457031 51.601562 228.023438 80.570312 228.023438 C 109.539062 228.023438 133.109375 204.457031 133.109375 175.484375 L 133.109375 147.597656 L 160.878906 147.597656 C 189.851562 147.597656 213.421875 124.03125 213.421875 95.058594 C 213.421875 66.085938 189.851562 42.519531 160.878906 42.519531 Z M 108.535156 175.484375 C 108.535156 190.90625 95.992188 203.449219 80.570312 203.449219 C 65.152344 203.449219 52.605469 190.90625 52.605469 175.484375 C 52.605469 160.066406 65.152344 147.519531 80.570312 147.519531 L 108.339844 147.519531 L 108.339844 147.597656 L 108.535156 147.597656 Z M 160.878906 123.023438 L 133.109375 123.023438 L 133.109375 122.945312 L 132.917969 122.945312 L 132.917969 95.058594 C 132.917969 79.640625 145.460938 67.09375 160.878906 67.09375 C 176.300781 67.09375 188.84375 79.640625 188.84375 95.058594 C 188.84375 110.480469 176.300781 123.023438 160.878906 123.023438 Z M 160.878906 123.023438 "/>
<path style=" stroke:none;fill-rule:nonzero;fill:rgb(100%,100%,100%);fill-opacity:1;" d="M 172.496094 44.109375 C 168.417969 43.042969 165.289062 42.546875 160.882812 42.546875 C 131.851562 42.546875 108.316406 66.082031 108.316406 95.113281 L 108.316406 122.972656 L 86.300781 122.972656 C 79.4375 122.972656 73.890625 128.367188 73.894531 135.21875 C 73.894531 142.027344 79.382812 147.445312 86.171875 147.445312 L 104.398438 147.449219 C 106.5625 147.449219 108.320312 149.199219 108.320312 151.359375 L 108.320312 175.46875 C 108.292969 190.773438 95.878906 203.171875 80.574219 203.171875 C 75.386719 203.171875 74.105469 202.492188 70.566406 202.492188 C 63.128906 202.492188 58.15625 207.476562 58.15625 214.328125 C 58.15625 219.996094 63.015625 224.871094 68.960938 226.425781 C 73.039062 227.492188 76.167969 227.992188 80.574219 227.992188 C 109.601562 227.992188 133.136719 204.453125 133.136719 175.425781 L 133.136719 147.5625 L 155.152344 147.5625 C 162.019531 147.5625 167.566406 142.167969 167.5625 135.316406 C 167.5625 128.507812 162.074219 123.089844 155.28125 123.089844 L 137.054688 123.089844 C 136.019531 123.089844 135.023438 122.675781 134.285156 121.945312 C 133.550781 121.210938 133.136719 120.214844 133.136719 119.175781 L 133.136719 95.066406 C 133.164062 79.761719 145.578125 67.367188 160.882812 67.367188 C 166.066406 67.367188 167.351562 68.046875 170.890625 68.046875 C 178.324219 68.046875 183.300781 63.0625 183.300781 56.210938 C 183.296875 50.539062 178.441406 45.664062 172.496094 44.109375 Z M 172.496094 44.109375 "/>
</g>
</svg>
