<?xml version="1.0" encoding="UTF-8"?>
<svg version="1.1" xmlns="http://www.w3.org/2000/svg" width="256" height="256">
<path d="M0 0 C1.15434685 -0.00445668 1.15434685 -0.00445668 2.33201385 -0.0090034 C4.91282085 -0.01768063 7.49358142 -0.01919783 10.07440186 -0.02069092 C11.92405801 -0.02531979 13.77371322 -0.03034455 15.62336731 -0.03573608 C20.65036642 -0.04885568 25.67735218 -0.05530423 30.70436573 -0.05974674 C33.84559369 -0.06267828 36.986818 -0.06678325 40.12804413 -0.07125092 C49.95780808 -0.0849249 59.7875637 -0.09459195 69.61733651 -0.09845281 C80.96133059 -0.10293297 92.30520414 -0.12047936 103.64916158 -0.1494534 C112.41957319 -0.17107603 121.18995091 -0.18115741 129.9603889 -0.18249393 C135.19765147 -0.18354156 140.43480073 -0.1894407 145.67203522 -0.20731354 C150.60011144 -0.22380413 155.5279893 -0.22594488 160.4560833 -0.21717453 C162.26202107 -0.21640468 164.06796955 -0.22074002 165.87388039 -0.23063278 C168.34527294 -0.24337404 170.81596518 -0.23746394 173.28735352 -0.22705078 C173.99671153 -0.23510719 174.70606955 -0.24316359 175.43692327 -0.25146413 C180.95856809 -0.1973029 186.70962256 0.77523677 190.96728158 4.52157474 C195.4854734 9.66241715 195.52336476 13.75967072 195.55154419 20.40112305 C195.55811757 21.50034194 195.55811757 21.50034194 195.56482375 22.62176728 C195.5781821 25.07819011 195.5843839 27.53457709 195.59051514 29.99102783 C195.59841837 31.7520158 195.60668746 33.51300215 195.61529541 35.27398682 C195.64148737 41.05758117 195.65681906 46.84118266 195.67108154 52.62481689 C195.67644216 54.61694595 195.68181967 56.60907496 195.6872139 58.60120392 C195.70883741 66.88803862 195.7275741 75.17487138 195.73883629 83.46172714 C195.75507662 95.33276565 195.78826259 107.20347693 195.84523714 119.07439208 C195.88394561 127.42442255 195.90346999 135.77436552 195.90875685 144.12448335 C195.9124087 149.11033651 195.92441273 154.09584043 195.95685959 159.08159637 C195.98695655 163.7733904 195.99324625 168.46462414 195.98147583 173.15649414 C195.98125524 174.87536967 195.98954828 176.59427132 196.00712967 178.31305695 C196.16249029 194.37997861 196.16249029 194.37997861 190.39764404 201.14044189 C185.67894404 205.71168252 179.82219796 205.28834239 173.58564758 205.28088379 C172.41565174 205.28534047 172.41565174 205.28534047 171.22201961 205.28988719 C168.61201175 205.29854925 166.00204989 205.3000803 163.39202881 205.30157471 C161.51927594 205.30620453 159.64652402 205.31122941 157.77377319 205.31661987 C152.68911818 205.32972727 147.60447636 205.33618522 142.5198071 205.34063053 C139.34324482 205.34356302 136.16668613 205.3476681 132.99012566 205.3521347 C123.05144631 205.36580324 113.1127752 205.37547391 103.17408711 205.3793366 C91.70047252 205.38382045 80.22697689 205.40138626 68.75339848 205.43033719 C59.88363575 205.45194172 51.01390653 205.46204017 42.14411777 205.46337771 C36.84657176 205.46442632 31.54913766 205.47034643 26.25161934 205.48819733 C21.27018626 205.50465743 16.28894949 205.50684352 11.30749893 205.49805832 C9.47975705 205.49728693 7.6520047 205.50164408 5.82428932 205.51151657 C3.32816655 205.52420859 0.83274203 205.51837451 -1.66337585 205.50793457 C-2.38565933 205.51599097 -3.10794281 205.52404738 -3.85211366 205.53234792 C-8.49981987 205.48691918 -11.64811752 204.57101165 -15.60235596 202.14044189 C-20.70328294 196.75613007 -21.85099666 192.11150233 -21.86978149 184.79747009 C-21.87431261 184.06788662 -21.87884372 183.33830315 -21.88351214 182.58661109 C-21.89615098 180.14705177 -21.89453612 177.70771584 -21.8928833 175.26812744 C-21.8988689 173.51684279 -21.90567452 171.76556077 -21.91323853 170.01428223 C-21.93090315 165.26004643 -21.93559412 160.50588263 -21.9368701 155.75161719 C-21.93829207 152.7800654 -21.94256255 149.80853189 -21.94786453 146.83698463 C-21.96636679 136.46652693 -21.97453495 126.09612063 -21.97296143 115.72564697 C-21.97176018 106.06499928 -21.99285873 96.40457507 -22.02444875 86.74398392 C-22.05061783 78.44487766 -22.06132845 70.14584435 -22.06005061 61.84669715 C-22.05954113 56.89222693 -22.06521627 51.93795529 -22.08640671 46.98352623 C-22.10579954 42.32212444 -22.10590642 37.66111045 -22.09137344 32.99969482 C-22.0892855 31.29212184 -22.09398541 29.58452451 -22.10609436 27.87699318 C-22.21328444 11.71025666 -22.21328444 11.71025666 -17.60235596 5.14044189 C-11.81814513 0.44077059 -7.23314365 -0.00872554 0 0 Z " fill="#1C9FF8" transform="translate(41.60235595703125,26.85955810546875)"/>
<path d="M0 0 C11.77853486 -0.06950398 23.55702095 -0.1228134 35.33571911 -0.15543652 C40.80502248 -0.17109381 46.27418557 -0.19233345 51.7434082 -0.22631836 C57.02130322 -0.25890923 62.29906328 -0.27685254 67.57705116 -0.28463173 C69.59089597 -0.2901757 71.60473337 -0.30100167 73.61852074 -0.31719017 C76.43879547 -0.33896065 79.2585122 -0.34196706 82.07885742 -0.34057617 C82.91179825 -0.351362 83.74473907 -0.36214783 84.60292053 -0.3732605 C89.23001611 -0.3485607 92.26825138 -0.02879922 96 3 C99.3867494 6.47138385 99.42997079 9.72853874 99.39440918 14.35006714 C99.40354584 15.46365339 99.40354584 15.46365339 99.41286707 16.59973633 C99.42952276 19.08861882 99.42471771 21.57699114 99.41992188 24.06591797 C99.42726077 25.84985893 99.43584647 27.63379514 99.44558716 29.41772461 C99.46783184 34.2648854 99.47073233 39.11187634 99.46883965 43.95908117 C99.46872007 48.00484612 99.47727897 52.05057491 99.48561716 56.09632981 C99.50486221 65.64123001 99.50773118 75.18604274 99.50097656 84.73095703 C99.49433595 94.57856475 99.51719843 104.42579788 99.55429029 114.27332962 C99.58497684 122.72695924 99.59634842 131.18046831 99.59245348 139.63415253 C99.59038475 144.68362397 99.59588424 149.73280402 99.62034607 154.78222275 C99.64259311 159.53150559 99.64075243 164.28017921 99.62041855 169.02946472 C99.61700478 170.77173968 99.62211343 172.51405547 99.63640213 174.25627518 C99.65457799 176.63688296 99.64186058 179.01542028 99.62145996 181.39596558 C99.63397781 182.08391264 99.64649566 182.7718597 99.65939283 183.48065364 C99.59136646 187.18847425 98.92283235 189.55404358 96.6814394 192.43015671 C93.83175645 195.16124159 92.39815901 195.69730768 88.49137878 195.746521 C87.7893483 195.72494934 87.08731781 195.70337769 86.36401367 195.68115234 C85.61225861 195.6820285 84.86050354 195.68290466 84.08596802 195.68380737 C81.61222778 195.67964195 79.14123241 195.63304644 76.66796875 195.5859375 C74.94877097 195.57474147 73.229554 195.5662032 71.5103302 195.56021118 C66.99381293 195.53734447 62.47846056 195.47844101 57.96240234 195.4119873 C53.35074624 195.35051749 48.73890116 195.32318621 44.12695312 195.29296875 C35.08412468 195.22869475 26.04215935 195.12634223 17 195 C16.14721731 190.60771554 15.32147801 186.21073768 14.5 181.8125 C14.26152344 180.58595703 14.02304688 179.35941406 13.77734375 178.09570312 C12.27630518 169.96865146 11.68749413 162.25970385 12 154 C13.22074219 153.72027344 14.44148438 153.44054687 15.69921875 153.15234375 C31.7291392 149.31548155 48.22947368 143.18302208 58 129 C58 127.68 58 126.36 58 125 C56.35 124.67 54.7 124.34 53 124 C52.73445313 124.59296875 52.46890625 125.1859375 52.1953125 125.796875 C46.36718631 136.5389115 30.77837023 141.98136553 19.75 145.5 C16.19696726 146.54607055 13.7467914 147 10 147 C10 131.49 10 115.98 10 100 C6.81581893 98.93860631 4.43623833 98.84446723 1.08984375 98.7890625 C-0.06451172 98.76070313 -1.21886719 98.73234375 -2.40820312 98.703125 C-4.84815133 98.65096149 -7.28828139 98.6067145 -9.72851562 98.5703125 C-10.88158203 98.539375 -12.03464844 98.5084375 -13.22265625 98.4765625 C-14.28234619 98.45674316 -15.34203613 98.43692383 -16.43383789 98.41650391 C-17.28067139 98.27905762 -18.12750488 98.14161133 -19 98 C-24.3154825 90.02677625 -20.18262563 76.93248698 -18.75 67.875 C-18.58010056 66.77783661 -18.58010056 66.77783661 -18.4067688 65.6585083 C-16.74844742 54.96842775 -14.81560207 44.45306516 -12 34 C-11.66588122 32.67109603 -11.33389509 31.34165427 -11.00390625 30.01171875 C-8.74532236 21.03893096 -5.67886411 12.77600729 -1.9296875 4.34130859 C-1.56858887 3.52890717 -1.20749023 2.71650574 -0.83544922 1.87948608 C-0.55975098 1.25925568 -0.28405273 0.63902527 0 0 Z " fill="#E8EEF4" transform="translate(133,29)"/>
<path d="M0 0 C1.15434685 -0.00445668 1.15434685 -0.00445668 2.33201385 -0.0090034 C4.91282085 -0.01768063 7.49358142 -0.01919783 10.07440186 -0.02069092 C11.92405801 -0.02531979 13.77371322 -0.03034455 15.62336731 -0.03573608 C20.65036642 -0.04885568 25.67735218 -0.05530423 30.70436573 -0.05974674 C33.84559369 -0.06267828 36.986818 -0.06678325 40.12804413 -0.07125092 C49.95780808 -0.0849249 59.7875637 -0.09459195 69.61733651 -0.09845281 C80.96133059 -0.10293297 92.30520414 -0.12047936 103.64916158 -0.1494534 C112.41957319 -0.17107603 121.18995091 -0.18115741 129.9603889 -0.18249393 C135.19765147 -0.18354156 140.43480073 -0.1894407 145.67203522 -0.20731354 C150.60011144 -0.22380413 155.5279893 -0.22594488 160.4560833 -0.21717453 C162.26202107 -0.21640468 164.06796955 -0.22074002 165.87388039 -0.23063278 C168.34527294 -0.24337404 170.81596518 -0.23746394 173.28735352 -0.22705078 C173.99671153 -0.23510719 174.70606955 -0.24316359 175.43692327 -0.25146413 C180.95856809 -0.1973029 186.70962256 0.77523677 190.96728158 4.52157474 C195.4854734 9.66241715 195.52336476 13.75967072 195.55154419 20.40112305 C195.55811757 21.50034194 195.55811757 21.50034194 195.56482375 22.62176728 C195.5781821 25.07819011 195.5843839 27.53457709 195.59051514 29.99102783 C195.59841837 31.7520158 195.60668746 33.51300215 195.61529541 35.27398682 C195.64148737 41.05758117 195.65681906 46.84118266 195.67108154 52.62481689 C195.67644216 54.61694595 195.68181967 56.60907496 195.6872139 58.60120392 C195.70883741 66.88803862 195.7275741 75.17487138 195.73883629 83.46172714 C195.75507662 95.33276565 195.78826259 107.20347693 195.84523714 119.07439208 C195.88394561 127.42442255 195.90346999 135.77436552 195.90875685 144.12448335 C195.9124087 149.11033651 195.92441273 154.09584043 195.95685959 159.08159637 C195.98695655 163.7733904 195.99324625 168.46462414 195.98147583 173.15649414 C195.98125524 174.87536967 195.98954828 176.59427132 196.00712967 178.31305695 C196.16249029 194.37997861 196.16249029 194.37997861 190.39764404 201.14044189 C185.67894404 205.71168252 179.82219796 205.28834239 173.58564758 205.28088379 C172.41565174 205.28534047 172.41565174 205.28534047 171.22201961 205.28988719 C168.61201175 205.29854925 166.00204989 205.3000803 163.39202881 205.30157471 C161.51927594 205.30620453 159.64652402 205.31122941 157.77377319 205.31661987 C152.68911818 205.32972727 147.60447636 205.33618522 142.5198071 205.34063053 C139.34324482 205.34356302 136.16668613 205.3476681 132.99012566 205.3521347 C123.05144631 205.36580324 113.1127752 205.37547391 103.17408711 205.3793366 C91.70047252 205.38382045 80.22697689 205.40138626 68.75339848 205.43033719 C59.88363575 205.45194172 51.01390653 205.46204017 42.14411777 205.46337771 C36.84657176 205.46442632 31.54913766 205.47034643 26.25161934 205.48819733 C21.27018626 205.50465743 16.28894949 205.50684352 11.30749893 205.49805832 C9.47975705 205.49728693 7.6520047 205.50164408 5.82428932 205.51151657 C3.32816655 205.52420859 0.83274203 205.51837451 -1.66337585 205.50793457 C-2.38565933 205.51599097 -3.10794281 205.52404738 -3.85211366 205.53234792 C-8.49981987 205.48691918 -11.64811752 204.57101165 -15.60235596 202.14044189 C-20.70328294 196.75613007 -21.85099666 192.11150233 -21.86978149 184.79747009 C-21.87431261 184.06788662 -21.87884372 183.33830315 -21.88351214 182.58661109 C-21.89615098 180.14705177 -21.89453612 177.70771584 -21.8928833 175.26812744 C-21.8988689 173.51684279 -21.90567452 171.76556077 -21.91323853 170.01428223 C-21.93090315 165.26004643 -21.93559412 160.50588263 -21.9368701 155.75161719 C-21.93829207 152.7800654 -21.94256255 149.80853189 -21.94786453 146.83698463 C-21.96636679 136.46652693 -21.97453495 126.09612063 -21.97296143 115.72564697 C-21.97176018 106.06499928 -21.99285873 96.40457507 -22.02444875 86.74398392 C-22.05061783 78.44487766 -22.06132845 70.14584435 -22.06005061 61.84669715 C-22.05954113 56.89222693 -22.06521627 51.93795529 -22.08640671 46.98352623 C-22.10579954 42.32212444 -22.10590642 37.66111045 -22.09137344 32.99969482 C-22.0892855 31.29212184 -22.09398541 29.58452451 -22.10609436 27.87699318 C-22.21328444 11.71025666 -22.21328444 11.71025666 -17.60235596 5.14044189 C-11.81814513 0.44077059 -7.23314365 -0.00872554 0 0 Z M-15.39020538 6.8685627 C-17.08164153 10.03874525 -17.02374164 12.98468716 -16.99676514 16.49050903 C-17.00285624 17.23289987 -17.00894734 17.9752907 -17.01522303 18.74017823 C-17.03187872 21.22906072 -17.02707366 23.71743303 -17.02227783 26.20635986 C-17.02961673 27.99030083 -17.03820243 29.77423704 -17.04794312 31.5581665 C-17.0701878 36.4053273 -17.07308829 41.25231824 -17.0711956 46.09952307 C-17.07107603 50.14528801 -17.07963493 54.1910168 -17.08797312 58.2367717 C-17.10721816 67.7816719 -17.11008714 77.32648464 -17.10333252 86.87139893 C-17.09669191 96.71900664 -17.11955439 106.56623977 -17.15664625 116.41377151 C-17.18733279 124.86740114 -17.19870438 133.32091021 -17.19480944 141.77459443 C-17.19274071 146.82406586 -17.1982402 151.87324591 -17.22270203 156.92266464 C-17.24494907 161.67194749 -17.24310839 166.4206211 -17.22277451 171.16990662 C-17.21936073 172.91218157 -17.22446939 174.65449737 -17.23875809 176.39671707 C-17.25693395 178.77732485 -17.24421653 181.15586217 -17.22381592 183.53640747 C-17.23633377 184.22435453 -17.24885161 184.9123016 -17.26174879 185.62109554 C-17.16068045 191.12988942 -15.39912144 193.43170693 -11.60235596 197.14044189 C-8.01675177 198.33564329 -4.75585362 198.285307 -1.0241394 198.28088379 C-0.24514546 198.28385491 0.53384849 198.28682603 1.33644831 198.28988719 C3.95500221 198.29858078 6.57351043 198.30008299 9.19207764 198.30157471 C11.06615802 198.30620237 12.94023746 198.31122696 14.8143158 198.31661987 C19.91141839 198.3297498 25.00850781 198.33618984 30.10562468 198.34063053 C33.28853375 198.34355995 36.47143921 198.34766448 39.65434647 198.3521347 C49.60851474 198.36581042 59.56267477 198.37547704 69.51685178 198.3793366 C81.01596658 198.38381943 92.51496263 198.4013775 104.0140413 198.43033719 C112.89733607 198.45193445 121.78059739 198.46203981 130.66391814 198.46337771 C135.97208125 198.46442703 141.28013275 198.47036187 146.58826828 198.48819733 C151.58034172 198.50464447 156.57221924 198.50684986 161.56431007 198.49805832 C163.39730795 198.49728618 165.23031623 198.50165393 167.06328773 198.51151657 C169.56424672 198.52418514 172.06450645 198.51838729 174.56546021 198.50793457 C175.65530104 198.52001918 175.65530104 198.52001918 176.76715887 198.53234792 C182.24603388 198.47873472 185.28816055 197.17945159 189.18549347 193.41232109 C190.87692962 190.24213854 190.81902972 187.29619663 190.79205322 183.79037476 C190.79814433 183.04798392 190.80423543 182.30559309 190.81051111 181.54070556 C190.82716681 179.05182307 190.82236175 176.56345076 190.81756592 174.07452393 C190.82490481 172.29058296 190.83349051 170.50664675 190.8432312 168.72271729 C190.86547589 163.87555649 190.86837637 159.02856555 190.86648369 154.18136072 C190.86636411 150.13559578 190.87492302 146.08986699 190.8832612 142.04411209 C190.90250625 132.49921189 190.90537522 122.95439915 190.89862061 113.40948486 C190.89198 103.56187715 190.91484248 93.71464402 190.95193434 83.86711228 C190.98262088 75.41348265 190.99399246 66.95997358 190.99009752 58.50628936 C190.98802879 53.45681792 190.99352828 48.40763787 191.01799011 43.35821915 C191.04023715 38.6089363 191.03839647 33.86026269 191.01806259 29.11097717 C191.01464882 27.36870222 191.01975747 25.62638642 191.03404617 23.88416672 C191.05222203 21.50355894 191.03950462 19.12502162 191.019104 16.74447632 C191.03162185 16.05652926 191.0441397 15.36858219 191.05703688 14.65978825 C190.95596854 9.15099437 189.19440953 6.84917686 185.39764404 3.14044189 C181.81203986 1.9452405 178.55114171 1.99557679 174.81942749 2 C174.04043354 1.99702888 173.2614396 1.99405776 172.45883977 1.9909966 C169.84028587 1.98230301 167.22177765 1.9808008 164.60321045 1.97930908 C162.72913007 1.97468142 160.85505063 1.96965683 158.98097229 1.96426392 C153.8838697 1.95113398 148.78678028 1.94469394 143.68966341 1.94025326 C140.50675434 1.93732384 137.32384888 1.93321931 134.14094162 1.92874908 C124.18677335 1.91507337 114.23261332 1.90540674 104.2784363 1.90154719 C92.77932151 1.89706436 81.28032546 1.87950629 69.78124678 1.8505466 C60.89795201 1.82894934 52.0146907 1.81884398 43.13136995 1.81750607 C37.82320684 1.81645676 32.51515533 1.81052192 27.20701981 1.79268646 C22.21494637 1.77623932 17.22306885 1.77403393 12.23097801 1.78282547 C10.39798013 1.78359761 8.56497186 1.77922986 6.73200035 1.76936722 C4.23104136 1.75669865 1.73078163 1.7624965 -0.77017212 1.77294922 C-1.49673268 1.76489281 -2.22329324 1.75683641 -2.97187078 1.74853587 C-8.4507458 1.80214907 -11.49287246 3.1014322 -15.39020538 6.8685627 Z " fill="#06090B" transform="translate(41.60235595703125,26.85955810546875)"/>
<path d="M0 0 C2.98256655 2.33505733 3.92566351 3.51273489 4.50615788 7.31779289 C4.52942007 8.66168598 4.53065943 10.00606792 4.5146637 11.35006714 C4.52160922 12.09245797 4.52855475 12.83484881 4.53571075 13.59973633 C4.55401529 16.08876865 4.54370733 18.57685153 4.53344727 21.06591797 C4.5405041 22.84986079 4.54924812 24.63379761 4.55955505 26.41772461 C4.58208734 31.26494128 4.57910007 36.11183202 4.57023358 40.95908117 C4.56512841 45.00485333 4.57241257 49.05056398 4.57970566 53.09632981 C4.59671744 62.64126007 4.59312661 72.18603052 4.57641602 81.73095703 C4.55949838 91.5785785 4.57532144 101.42575659 4.6076389 111.27332962 C4.63433097 119.72697063 4.64161167 128.1804736 4.63312382 136.63415253 C4.62819286 141.68360933 4.63041913 146.73279939 4.65091133 151.78222275 C4.66926202 156.53152741 4.66331725 161.28019437 4.63871193 166.02946472 C4.63370182 167.77173163 4.63719902 169.51404707 4.64986038 171.25627518 C4.66579129 173.63690486 4.65084256 176.01543479 4.62818909 178.39596558 C4.64002482 179.08391264 4.65186054 179.7718597 4.66405493 180.48065364 C4.59249093 184.18764533 3.92202787 186.55455724 1.68101883 189.43015671 C-1.16839676 192.16141374 -2.60191693 192.69730864 -6.50862122 192.746521 C-7.2106517 192.72494934 -7.91268219 192.70337769 -8.63598633 192.68115234 C-9.38774139 192.6820285 -10.13949646 192.68290466 -10.91403198 192.68380737 C-13.38777222 192.67964195 -15.85876759 192.63304644 -18.33203125 192.5859375 C-20.05122903 192.57474147 -21.770446 192.5662032 -23.4896698 192.56021118 C-28.00618707 192.53734447 -32.52153944 192.47844101 -37.03759766 192.4119873 C-41.64925376 192.35051749 -46.26109884 192.32318621 -50.87304688 192.29296875 C-59.91587532 192.22869475 -68.95784065 192.12634223 -78 192 C-78.85278269 187.60771554 -79.67852199 183.21073768 -80.5 178.8125 C-80.73847656 177.58595703 -80.97695312 176.35941406 -81.22265625 175.09570312 C-82.72369482 166.96865146 -83.31250587 159.25970385 -83 151 C-80.69 150.67 -78.38 150.34 -76 150 C-76.99 150.33 -77.98 150.66 -79 151 C-78.88406494 151.73524902 -78.76812988 152.47049805 -78.64868164 153.22802734 C-78.11709136 156.60990856 -77.58977026 159.99244267 -77.0625 163.375 C-76.88009766 164.53128906 -76.69769531 165.68757812 -76.50976562 166.87890625 C-75.46951522 173.57433614 -74.57792228 180.24824686 -74 187 C-73.06285156 186.91621094 -72.12570313 186.83242187 -71.16015625 186.74609375 C-61.39531642 185.97443805 -51.83176115 186.11144575 -42.05322266 186.59130859 C-29.37166481 187.18458662 -16.69218663 187.09266451 -4 187 C-3.67 186.01 -3.34 185.02 -3 184 C-2.34 184 -1.68 184 -1 184 C-1.00523682 183.24460938 -1.01047363 182.48921875 -1.01586914 181.7109375 C-1.1072311 165.90878716 -1.06229794 150.11264402 -0.77734375 134.3125 C-0.7553894 133.09353027 -0.73343506 131.87456055 -0.71081543 130.61865234 C-0.66445241 128.0615219 -0.61800269 125.50439303 -0.57147217 122.94726562 C-0.05873809 94.62998248 0.08806834 66.32189922 0.0625 38 C0.06164398 37.04792664 0.06078796 36.09585327 0.05990601 35.1149292 C0.04857722 23.40993309 0.02855533 11.7049666 0 0 Z " fill="#CCD5DC" transform="translate(228,32)"/>
<path d="M0 0 C4.13291832 0.37822048 5.79390147 1.44268742 8.4375 4.5625 C20.14092499 16.86213721 38.28705305 22.86575528 54.93359375 23.30078125 C57.4348571 23.31523942 59.93620318 23.31894997 62.4375 23.3125 C64.30631836 23.33666992 64.30631836 23.33666992 66.21289062 23.36132812 C73.96986962 23.36540003 80.65731689 22.49763117 88 20 C89.15371094 19.62359375 90.30742187 19.2471875 91.49609375 18.859375 C101.89044207 14.93906302 111.79900815 10.78379388 118.40234375 1.50390625 C120 0 120 0 122.69140625 -0.22265625 C123.45324219 -0.14917969 124.21507812 -0.07570312 125 0 C126.31203593 4.4166791 126.31203593 4.4166791 124.953125 6.95703125 C109.5424073 23.74623058 90.29069339 29.9533807 68.07958984 31.15844727 C44.92891432 32.05945273 23.97601105 28.74616235 6 13 C4.95585938 12.09701172 4.95585938 12.09701172 3.890625 11.17578125 C-0.86192523 6.79392994 -0.86192523 6.79392994 -1.5 3.125 C-1 1 -1 1 0 0 Z " fill="#021C32" transform="translate(66,153)"/>
<path d="M0 0 C1.2683091 -0.002062 1.2683091 -0.002062 2.5622406 -0.00416565 C3.48652863 -0.00057037 4.41081665 0.0030249 5.3631134 0.00672913 C6.82680611 0.00651009 6.82680611 0.00651009 8.32006836 0.00628662 C11.55034089 0.00698414 14.780556 0.01476907 18.01081848 0.02259827 C20.24855518 0.02446302 22.48629229 0.02588665 24.72402954 0.02688599 C30.61771265 0.03070667 36.51137117 0.04053316 42.40504456 0.05158997 C48.41751269 0.0618137 54.42998479 0.06638567 60.44245911 0.07142639 C72.24260013 0.08215581 84.04272289 0.09922688 95.84284973 0.12025452 C94.07722473 4.94837952 94.07722473 4.94837952 91.96784973 6.49525452 C89.84284973 7.12025452 89.84284973 7.12025452 88.21340942 6.668396 C84.75714526 5.86920846 81.31727635 5.97288711 77.78889465 5.97499084 C76.98025467 5.97163223 76.17161469 5.96827362 75.33847046 5.96481323 C72.66673747 5.95531914 69.99506728 5.9533608 67.32331848 5.95228577 C65.46250381 5.94907177 63.60168939 5.94570759 61.74087524 5.94219971 C57.83955805 5.93621205 53.93826299 5.9343594 50.03694153 5.93495178 C45.04698247 5.93505331 40.05716601 5.92140962 35.06724072 5.90417957 C31.22299553 5.89303954 27.37878459 5.8910332 23.53452492 5.89156151 C21.69539715 5.89038409 19.85626843 5.8859757 18.0171566 5.87822914 C15.43966683 5.8683902 12.86248351 5.8713228 10.2849884 5.87733459 C9.15397202 5.86890533 9.15397202 5.86890533 8.00010681 5.86030579 C3.2600496 5.8882839 -0.68628779 6.49391102 -5.15715027 8.12025452 C-7.9898539 12.21695145 -7.41244562 17.33264333 -7.35246277 22.13978577 C-7.34963287 22.99835678 -7.34680298 23.8569278 -7.34388733 24.74151611 C-7.33273097 27.47207327 -7.30763486 30.20229722 -7.28215027 32.93275452 C-7.27211459 34.78886956 -7.26298977 36.64498976 -7.25480652 38.50111389 C-7.23280652 43.04095497 -7.19830808 47.58054833 -7.15715027 52.12025452 C-7.81715027 52.12025452 -8.47715027 52.12025452 -9.15715027 52.12025452 C-9.48715027 59.38025452 -9.81715027 66.64025452 -10.15715027 74.12025452 C-10.48715027 74.12025452 -10.81715027 74.12025452 -11.15715027 74.12025452 C-12.18287773 61.23896926 -12.43910067 48.3717726 -12.50724792 35.45326233 C-12.52397914 33.12991948 -12.55148688 30.80663148 -12.58927917 28.48353577 C-12.64392663 25.08874055 -12.66587859 21.69511694 -12.68058777 18.29994202 C-12.70325714 17.26553986 -12.72592651 16.2311377 -12.74928284 15.16539001 C-12.72576209 7.16875203 -12.72576209 7.16875203 -9.81193542 3.48402405 C-6.50665092 0.54106243 -4.27209085 -0.00536021 0 0 Z " fill="#2CD4FE" transform="translate(37.15715026855469,28.879745483398438)"/>
<path d="M0 0 C0.66 0 1.32 0 2 0 C1.76925781 0.83015625 1.53851563 1.6603125 1.30078125 2.515625 C-9.57934828 37.47003591 -9.57934828 37.47003591 -8 72 C-7.22809326 72.01981934 -6.45618652 72.03963867 -5.66088867 72.06005859 C-2.16941042 72.15521143 1.32146152 72.26493047 4.8125 72.375 C6.02744141 72.4059375 7.24238281 72.436875 8.49414062 72.46875 C9.65751953 72.50742188 10.82089844 72.54609375 12.01953125 72.5859375 C13.62985229 72.63306885 13.62985229 72.63306885 15.27270508 72.68115234 C18 73 18 73 21 75 C21.36076355 77.06277466 21.36076355 77.06277466 21.34057617 79.63330078 C21.34023628 81.07456833 21.34023628 81.07456833 21.33988953 82.54495239 C21.32440567 83.58457123 21.30892181 84.62419006 21.29296875 85.6953125 C21.28872391 86.75789276 21.28447906 87.82047302 21.28010559 88.91525269 C21.26327389 92.31875646 21.22561303 95.72167433 21.1875 99.125 C21.17245899 101.42837688 21.15876958 103.73176302 21.14648438 106.03515625 C21.11590386 111.69051307 21.05718945 117.34459852 21 123 C11.43 123 1.86 123 -8 123 C-8 122.67 -8 122.34 -8 122 C-0.41 122 7.18 122 15 122 C15.22295902 113.1931189 14.78130219 104.53162221 14.125 95.75 C14.04652832 94.61828369 13.96805664 93.48656738 13.88720703 92.32055664 C13.80325684 91.2608667 13.71930664 90.20117676 13.6328125 89.109375 C13.55949707 88.14999023 13.48618164 87.19060547 13.41064453 86.20214844 C13.27513184 85.47543945 13.13961914 84.74873047 13 84 C10.70691037 82.85345518 9.20090344 82.80270883 6.6484375 82.68359375 C5.79765625 82.64169922 4.946875 82.59980469 4.0703125 82.55664062 C3.18085937 82.51732422 2.29140625 82.47800781 1.375 82.4375 C0.4778125 82.39431641 -0.419375 82.35113281 -1.34375 82.30664062 C-3.56234283 82.20043139 -5.7810488 82.09838806 -8 82 C-8 81.34 -8 80.68 -8 80 C-8.639375 79.855625 -9.27875 79.71125 -9.9375 79.5625 C-12 79 -12 79 -13 78 C-13.10354328 75.63373159 -13.14122523 73.30390813 -13.125 70.9375 C-13.12089111 70.21651123 -13.11678223 69.49552246 -13.11254883 68.75268555 C-12.99726196 57.35416153 -12.13202516 46.15895691 -10.5625 34.875 C-10.37917114 33.54142456 -10.37917114 33.54142456 -10.19213867 32.1809082 C-9.41084021 26.84990418 -8.4323326 21.8646652 -6 17 C-5.34 17 -4.68 17 -4 17 C-3.87882812 16.27554688 -3.75765625 15.55109375 -3.6328125 14.8046875 C-2.75060421 9.71502427 -1.83557653 4.85116654 0 0 Z " fill="#0674BD" transform="translate(122,54)"/>
<path d="M0 0 C0.33 0 0.66 0 1 0 C1.05390357 2.93774463 1.0936255 5.87450232 1.125 8.8125 C1.14175781 9.64587891 1.15851563 10.47925781 1.17578125 11.33789062 C1.18222656 12.14033203 1.18867187 12.94277344 1.1953125 13.76953125 C1.20578613 14.50792236 1.21625977 15.24631348 1.22705078 16.00708008 C1 18 1 18 -1 21 C-1.27130699 22.62784193 -1.52984238 24.2589892 -1.71875 25.8984375 C-2 28 -2 28 -2.46875 30.1640625 C-4.70574298 40.52660352 -5 51.41450456 -5 62 C-4.09290283 62.02187378 -4.09290283 62.02187378 -3.16748047 62.04418945 C-0.40270735 62.11909188 2.36091357 62.21561073 5.125 62.3125 C6.07632813 62.33505859 7.02765625 62.35761719 8.0078125 62.38085938 C13.34616097 62.58475463 17.43452346 62.92960763 22 66 C23.98809676 68.98214514 24.26366393 69.68576184 24.41064453 73.04077148 C24.45053497 73.84848495 24.49042542 74.65619843 24.53152466 75.48838806 C24.56494965 76.35718094 24.59837463 77.22597382 24.6328125 78.12109375 C24.67437469 79.01740005 24.71593689 79.91370636 24.75875854 80.83717346 C24.8895038 83.70363757 25.00729218 86.57047393 25.125 89.4375 C25.21141233 91.36527163 25.29864226 93.29300681 25.38671875 95.22070312 C25.54541539 98.75688487 25.70165371 102.29312386 25.84814453 105.82983398 C25.87764191 106.54026352 25.90713928 107.25069305 25.93753052 107.98265076 C25.99961543 109.98758089 26 111.99410883 26 114 C27.32 114.33 28.64 114.66 30 115 C25.545 115.495 25.545 115.495 21 116 C21 100.49 21 84.98 21 69 C17.81581893 67.93860631 15.43623833 67.84446723 12.08984375 67.7890625 C10.93548828 67.76070313 9.78113281 67.73234375 8.59179688 67.703125 C6.15184867 67.65096149 3.71171861 67.6067145 1.27148438 67.5703125 C0.11841797 67.539375 -1.03464844 67.5084375 -2.22265625 67.4765625 C-3.28234619 67.45674316 -4.34203613 67.43692383 -5.43383789 67.41650391 C-6.28067139 67.27905762 -7.12750488 67.14161133 -8 67 C-13.31600592 59.02599113 -9.1814576 45.93313054 -7.75 36.875 C-7.63773071 36.14754578 -7.52546143 35.42009155 -7.40979004 34.67059326 C-5.60432716 22.98593362 -3.74921639 11.24764916 0 0 Z " fill="#C8D2DA" transform="translate(122,60)"/>
<path d="M0 0 C0.16435547 1.86978516 0.16435547 1.86978516 0.33203125 3.77734375 C1.19197602 13.14241972 2.24782755 22.37927112 4.03442383 31.61694336 C4.65487062 34.84765567 5 37.68768136 5 41 C29.42 41 53.84 41 79 41 C79 41.33 79 41.66 79 42 C15.97 42 -47.06 42 -112 42 C-112 41.67 -112 41.34 -112 41 C-75.04 41 -38.08 41 0 41 C-0.33 39.35 -0.66 37.7 -1 36 C-2.485 35.505 -2.485 35.505 -4 35 C-4.06058594 33.99839844 -4.12117188 32.99679688 -4.18359375 31.96484375 C-4.26808405 30.62238669 -4.35272768 29.27993928 -4.4375 27.9375 C-4.51871094 26.62652344 -4.59992188 25.31554687 -4.68359375 23.96484375 C-4.8888935 21.3922605 -5.16868346 18.82414086 -5.53515625 16.26953125 C-5.90470511 13.67026745 -6.08481134 11.35794874 -6 8.75 C-5.80235765 5.06588078 -5.80235765 5.06588078 -7 2 C-12.61 2 -18.22 2 -24 2 C-24 1.67 -24 1.34 -24 1 C-21.50018262 0.8301095 -19.00020399 0.66402047 -16.5 0.5 C-15.80390625 0.45230469 -15.1078125 0.40460938 -14.390625 0.35546875 C-9.58304475 0.04386633 -4.81771254 -0.04340282 0 0 Z " fill="#2E5C96" transform="translate(145,183)"/>
<path d="M0 0 C0.33 0 0.66 0 1 0 C1.1167809 23.62616656 1.20496258 47.2522899 1.25906086 70.8786869 C1.28484685 81.84874746 1.32000509 92.81862873 1.37719727 103.78857422 C1.42701994 113.34954109 1.45928814 122.91037812 1.47044247 132.47147119 C1.47696312 137.53446485 1.4922969 142.59708705 1.52865028 147.6599617 C1.5625917 152.42554321 1.57305667 157.1906003 1.56553841 161.9562912 C1.56691378 163.70503718 1.57685743 165.45380072 1.59602737 167.20244217 C1.62093775 169.59195397 1.61491422 171.97949076 1.60127258 174.36904907 C1.61583679 175.05972461 1.630401 175.75040015 1.64540654 176.46200526 C1.58812089 180.17886034 0.92966312 182.54845077 -1.31729889 185.43183899 C-4.16771434 188.16055364 -5.60280726 188.69731985 -9.50862122 188.746521 C-10.2106517 188.72494934 -10.91268219 188.70337769 -11.63598633 188.68115234 C-12.38774139 188.6820285 -13.13949646 188.68290466 -13.91403198 188.68380737 C-16.38777222 188.67964195 -18.85876759 188.63304644 -21.33203125 188.5859375 C-23.05122903 188.57474147 -24.770446 188.5662032 -26.4896698 188.56021118 C-31.00618707 188.53734447 -35.52153944 188.47844101 -40.03759766 188.4119873 C-44.64925376 188.35051749 -49.26109884 188.32318621 -53.87304688 188.29296875 C-62.91587532 188.22869475 -71.95784065 188.12634223 -81 188 C-81.85278269 183.60771554 -82.67852199 179.21073768 -83.5 174.8125 C-83.73847656 173.58595703 -83.97695312 172.35941406 -84.22265625 171.09570312 C-85.72369482 162.96865146 -86.31250587 155.25970385 -86 147 C-85.34 147 -84.68 147 -84 147 C-83.85377197 148.11560303 -83.70754395 149.23120605 -83.55688477 150.38061523 C-83.01509688 154.50537295 -82.4677554 158.62937759 -81.91870117 162.75317383 C-81.68149808 164.54073241 -81.44581742 166.32849369 -81.21166992 168.11645508 C-80.87555155 170.68104535 -80.53402925 173.24486544 -80.19140625 175.80859375 C-80.08719864 176.6127623 -79.98299103 177.41693085 -79.87562561 178.24546814 C-79.6742146 181.93190634 -79.6742146 181.93190634 -78 185 C-75.81276825 185.1048708 -73.62210723 185.13857027 -71.43237305 185.14526367 C-70.4030365 185.15030159 -70.4030365 185.15030159 -69.35290527 185.15544128 C-67.0724916 185.1649803 -64.79215116 185.16689608 -62.51171875 185.16796875 C-60.93089263 185.17118007 -59.35006682 185.17454404 -57.76924133 185.17805481 C-54.44942537 185.18405401 -51.12963546 185.18589398 -47.80981445 185.18530273 C-43.55596221 185.18520124 -39.30227738 185.19883622 -35.04846478 185.21607494 C-31.7807997 185.22719687 -28.513175 185.22922186 -25.24549294 185.22869301 C-23.67741127 185.2298735 -22.10932857 185.23429914 -20.54126549 185.24202538 C-18.34599508 185.25182612 -16.15108682 185.24894668 -13.95581055 185.24291992 C-12.70640182 185.24434494 -11.4569931 185.24576996 -10.16972351 185.24723816 C-7.11469062 185.00894586 -5.45485918 184.79339261 -3 183 C-0.56695442 179.37270774 -0.73951654 176.00493701 -0.7215271 171.72344971 C-0.7157347 170.98907614 -0.7099423 170.25470256 -0.70397437 169.49807525 C-0.68696596 167.0367583 -0.68409717 164.57562878 -0.68115234 162.11425781 C-0.67185474 160.35013875 -0.66168632 158.58602409 -0.65071106 156.82191467 C-0.62337804 152.03099137 -0.60825186 147.24009753 -0.59528303 142.44911671 C-0.57966695 137.44291105 -0.55287188 132.43676568 -0.5272522 127.43060303 C-0.48043744 117.94990444 -0.44370637 108.46919454 -0.41057932 98.98843932 C-0.372377 88.19528615 -0.32296189 77.40219348 -0.27259517 66.60909128 C-0.16923519 44.40610551 -0.079988 22.20308146 0 0 Z " fill="#B0B9C1" transform="translate(231,36)"/>
<path d="M0 0 C1.14275391 0.11021484 1.14275391 0.11021484 2.30859375 0.22265625 C3.62062968 4.63933535 3.62062968 4.63933535 2.26171875 7.1796875 C-9.30704428 19.78327108 -23.79057682 27.51281862 -40.69140625 30.22265625 C-42.01140625 30.22265625 -43.33140625 30.22265625 -44.69140625 30.22265625 C-45.02140625 27.91265625 -45.35140625 25.60265625 -45.69140625 23.22265625 C-45.04816406 23.06410156 -44.40492188 22.90554687 -43.7421875 22.7421875 C-29.41919612 19.04395435 -13.22540051 14.28509618 -4.2890625 1.7265625 C-2.69140625 0.22265625 -2.69140625 0.22265625 0 0 Z " fill="#273038" transform="translate(188.69140625,152.77734375)"/>
<path d="M0 0 C1.2683091 -0.002062 1.2683091 -0.002062 2.5622406 -0.00416565 C3.48652863 -0.00057037 4.41081665 0.0030249 5.3631134 0.00672913 C6.82680611 0.00651009 6.82680611 0.00651009 8.32006836 0.00628662 C11.55034089 0.00698414 14.780556 0.01476907 18.01081848 0.02259827 C20.24855518 0.02446302 22.48629229 0.02588665 24.72402954 0.02688599 C30.61771265 0.03070667 36.51137117 0.04053316 42.40504456 0.05158997 C48.41751269 0.0618137 54.42998479 0.06638567 60.44245911 0.07142639 C72.24260013 0.08215581 84.04272289 0.09922688 95.84284973 0.12025452 C95.18284973 1.44025452 94.52284973 2.76025452 93.84284973 4.12025452 C59.85284973 4.12025452 25.86284973 4.12025452 -9.15715027 4.12025452 C-6.51935475 0.16356125 -4.46824155 -0.00560633 0 0 Z " fill="#72DEF6" transform="translate(37.15715026855469,28.879745483398438)"/>
<path d="M0 0 C0.99 0.495 0.99 0.495 2 1 C3.92313282 1.13008728 5.85030739 1.2025805 7.77734375 1.24609375 C8.93041016 1.27896484 10.08347656 1.31183594 11.27148438 1.34570312 C13.71149621 1.40680092 16.15160604 1.46410521 18.59179688 1.51757812 C19.74615234 1.55173828 20.90050781 1.58589844 22.08984375 1.62109375 C23.68107056 1.65867798 23.68107056 1.65867798 25.30444336 1.69702148 C28 2 28 2 31 4 C31.36076355 6.06277466 31.36076355 6.06277466 31.34057617 8.63330078 C31.34034958 9.59414581 31.34012299 10.55499084 31.33988953 11.54495239 C31.32440567 12.58457123 31.30892181 13.62419006 31.29296875 14.6953125 C31.28872391 15.75789276 31.28447906 16.82047302 31.28010559 17.91525269 C31.26327389 21.31875646 31.22561303 24.72167433 31.1875 28.125 C31.17245899 30.42837688 31.15876958 32.73176302 31.14648438 35.03515625 C31.11335574 40.69030505 31.06311197 46.34511068 31 52 C29.68 51.67 28.36 51.34 27 51 C27.33 50.01 27.66 49.02 28 48 C28.13283689 45.24303896 28.21220305 42.51213388 28.23828125 39.75390625 C28.246353 38.94638412 28.25442474 38.138862 28.26274109 37.30686951 C28.27656151 35.59970231 28.28729279 33.89250772 28.29516602 32.18530273 C28.31241422 29.57547911 28.35632056 26.96691125 28.40039062 24.35742188 C28.41051506 22.69792597 28.41903194 21.03841932 28.42578125 19.37890625 C28.44328934 18.59963272 28.46079742 17.82035919 28.47883606 17.01747131 C28.46500165 13.5617505 28.27398937 11.40334465 26.31005859 8.51220703 C23.53657069 6.69663061 21.91227679 6.47716394 18.61328125 6.42578125 C17.59298828 6.39806641 16.57269531 6.37035156 15.52148438 6.34179688 C14.46251953 6.33212891 13.40355469 6.32246094 12.3125 6.3125 C10.20435056 6.27061624 8.09626659 6.22523937 5.98828125 6.17578125 C5.05540283 6.16458252 4.12252441 6.15338379 3.16137695 6.1418457 C1 6 1 6 0 5 C-0.04063832 3.33382885 -0.042721 1.66611905 0 0 Z " fill="#155B99" transform="translate(112,125)"/>
<path d="M0 0 C0.33 0 0.66 0 1 0 C2.41143173 18.69604189 1.69952331 37.29052739 1 56 C1.66 56 2.32 56 3 56 C3.0510296 62.51038232 3.08587103 69.02071237 3.10986328 75.53125 C3.11987347 77.74253263 3.13348568 79.95380218 3.15087891 82.16503906 C3.17534738 85.35745487 3.18653325 88.54969449 3.1953125 91.7421875 C3.20563507 92.71864227 3.21595764 93.69509705 3.22659302 94.70114136 C3.22760935 101.0268433 2.47824625 106.84952764 1 113 C0.67 113 0.34 113 0 113 C0 75.71 0 38.42 0 0 Z " fill="#39A4FA" transform="translate(25,87)"/>
<path d="M0 0 C7.26 0 14.52 0 22 0 C22.41572266 3.66416016 22.41572266 3.66416016 22.83984375 7.40234375 C23.11020295 9.75882947 23.38205416 12.11513856 23.65405273 14.47143555 C23.84279122 16.11350914 24.02996962 17.75576281 24.21557617 19.39819336 C24.48209625 21.75423089 24.75415663 24.10957118 25.02734375 26.46484375 C25.10967758 27.20339096 25.19201141 27.94193817 25.27684021 28.7028656 C25.41713749 32.14654921 25.41713749 32.14654921 27 35 C27.04063832 36.66617115 27.042721 38.33388095 27 40 C26.01 40 25.02 40 24 40 C23.505 37.525 23.505 37.525 23 35 C21.515 34.505 21.515 34.505 20 34 C19.93941406 32.99839844 19.87882812 31.99679688 19.81640625 30.96484375 C19.73191595 29.62238669 19.64727232 28.27993928 19.5625 26.9375 C19.48128906 25.62652344 19.40007812 24.31554687 19.31640625 22.96484375 C19.1111065 20.3922605 18.83131654 17.82414086 18.46484375 15.26953125 C18.09529489 12.67026745 17.91518866 10.35794874 18 7.75 C18.19764235 4.06588078 18.19764235 4.06588078 17 1 C11.39 1 5.78 1 0 1 C0 0.67 0 0.34 0 0 Z " fill="#085FCD" transform="translate(121,184)"/>
<path d="M0 0 C2.0625 0.4375 2.0625 0.4375 4 1 C3.01 1 2.02 1 1 1 C1.11593506 1.73524902 1.23187012 2.47049805 1.35131836 3.22802734 C1.88290864 6.60990856 2.41022974 9.99244267 2.9375 13.375 C3.11990234 14.53128906 3.30230469 15.68757812 3.49023438 16.87890625 C3.66748047 18.01972656 3.84472656 19.16054687 4.02734375 20.3359375 C4.27085571 21.89127197 4.27085571 21.89127197 4.51928711 23.47802734 C5.13248244 27.97064077 5.5488235 32.48823497 6 37 C29.1 37.66 52.2 38.32 76 39 C76 39.33 76 39.66 76 40 C66.77730794 40.04627979 57.55465566 40.08184694 48.33187294 40.10362434 C44.04965752 40.11407483 39.76752136 40.12825697 35.48535156 40.15087891 C31.35511874 40.17256238 27.22496231 40.18455909 23.09467697 40.18975449 C21.51656262 40.19345835 19.93845259 40.2006908 18.36037064 40.21146011 C16.15503049 40.22591549 13.95000858 40.22798048 11.74462891 40.22705078 C10.48776276 40.231492 9.23089661 40.23593323 7.9359436 40.24050903 C5 40 5 40 3 38 C2.51342773 35.77612305 2.51342773 35.77612305 2.18359375 33.01171875 C2.05952148 32.00052979 1.93544922 30.98934082 1.80761719 29.94750977 C1.68547852 28.87170654 1.56333984 27.79590332 1.4375 26.6875 C1.30891602 25.60202881 1.18033203 24.51655762 1.04785156 23.39819336 C-0.96183689 6.12339702 -0.96183689 6.12339702 -1 1 C-0.67 0.67 -0.34 0.34 0 0 Z " fill="#C6CFD6" transform="translate(148,182)"/>
<path d="M0 0 C5.56818182 0.56818182 5.56818182 0.56818182 7 2 C7.15357265 4.97104013 7.23168121 7.90277553 7.25 10.875 C7.270625 11.70386719 7.29125 12.53273438 7.3125 13.38671875 C7.31765625 14.18464844 7.3228125 14.98257813 7.328125 15.8046875 C7.34214355 16.90272705 7.34214355 16.90272705 7.35644531 18.02294922 C6.89772461 20.56727813 6.05500768 21.4718704 4 23 C-0.42105263 22.57894737 -0.42105263 22.57894737 -2 21 C-2.24966567 17.8617655 -2.18521791 14.70950387 -2.1875 11.5625 C-2.19974609 10.67755859 -2.21199219 9.79261719 -2.22460938 8.88085938 C-2.22654297 8.03458984 -2.22847656 7.18832031 -2.23046875 6.31640625 C-2.23457764 5.53724854 -2.23868652 4.75809082 -2.24291992 3.95532227 C-2 2 -2 2 0 0 Z " fill="#022036" transform="translate(80,79)"/>
<path d="M0 0 C2.5 0.25 2.5 0.25 4.5 2.25 C4.75878906 4.09765625 4.75878906 4.09765625 4.765625 6.3125 C4.76820313 7.10914062 4.77078125 7.90578125 4.7734375 8.7265625 C4.76570312 9.55929688 4.75796875 10.39203125 4.75 11.25 C4.75773438 12.08273438 4.76546875 12.91546875 4.7734375 13.7734375 C4.77085937 14.57007812 4.76828125 15.36671875 4.765625 16.1875 C4.76336914 16.91839844 4.76111328 17.64929688 4.75878906 18.40234375 C4.5 20.25 4.5 20.25 2.5 22.25 C0 22.5 0 22.5 -2.5 22.25 C-4.86568222 19.88431778 -4.75571704 19.39767774 -4.765625 16.1875 C-4.76820313 15.39085938 -4.77078125 14.59421875 -4.7734375 13.7734375 C-4.76570312 12.94070312 -4.75796875 12.10796875 -4.75 11.25 C-4.75773438 10.41726562 -4.76546875 9.58453125 -4.7734375 8.7265625 C-4.77085937 7.92992188 -4.76828125 7.13328125 -4.765625 6.3125 C-4.76336914 5.58160156 -4.76111328 4.85070312 -4.75878906 4.09765625 C-4.31963983 0.96229648 -3.01720842 0.30172084 0 0 Z " fill="#262F37" transform="translate(174.5,78.75)"/>
<path d="M0 0 C0.33 0 0.66 0 1 0 C1.06058594 0.99902344 1.12117188 1.99804688 1.18359375 3.02734375 C1.26738281 4.31769531 1.35117188 5.60804687 1.4375 6.9375 C1.51871094 8.22527344 1.59992188 9.51304688 1.68359375 10.83984375 C1.64919188 13.86023957 1.64919188 13.86023957 3 15 C4.58520397 15.17895956 6.17708237 15.29963806 7.76953125 15.39453125 C8.74083984 15.46349609 9.71214844 15.53246094 10.71289062 15.60351562 C12.76687343 15.74200092 14.82161107 15.86974084 16.87695312 15.98632812 C24.31420463 16.54178709 24.31420463 16.54178709 27.63671875 18.76171875 C31.2609352 24.71207985 30.18609406 32.34656098 30.18530273 39.0847168 C30.18750412 41.19144458 30.20573227 43.29766053 30.22460938 45.40429688 C30.22754095 46.74218571 30.22952732 48.08007703 30.23046875 49.41796875 C30.23457764 50.63250732 30.23868652 51.8470459 30.24291992 53.09838867 C30 56 30 56 28 58 C28.01522705 57.03731201 28.01522705 57.03731201 28.03076172 56.05517578 C28.09577884 48.62332127 27.708846 41.28200143 27.125 33.875 C27.04636719 32.740625 26.96773437 31.60625 26.88671875 30.4375 C26.76103516 28.82488281 26.76103516 28.82488281 26.6328125 27.1796875 C26.55949707 26.20757324 26.48618164 25.23545898 26.41064453 24.23388672 C26.20737549 23.12811279 26.20737549 23.12811279 26 22 C23.70691037 20.85345518 22.20090344 20.80270883 19.6484375 20.68359375 C18.79765625 20.64169922 17.946875 20.59980469 17.0703125 20.55664062 C16.18085937 20.51732422 15.29140625 20.47800781 14.375 20.4375 C13.02921875 20.37272461 13.02921875 20.37272461 11.65625 20.30664062 C9.43765717 20.20043139 7.2189512 20.09838806 5 20 C5 19.34 5 18.68 5 18 C4.360625 17.855625 3.72125 17.71125 3.0625 17.5625 C1 17 1 17 0 16 C-0.07319621 13.30345146 -0.09242537 10.63308542 -0.0625 7.9375 C-0.05798828 7.17888672 -0.05347656 6.42027344 -0.04882812 5.63867188 C-0.0370068 3.75908129 -0.01907078 1.87953101 0 0 Z " fill="#1082DE" transform="translate(109,116)"/>
<path d="M0 0 C0.66 0 1.32 0 2 0 C2.14622803 1.11560303 2.29245605 2.23120605 2.44311523 3.38061523 C2.98490312 7.50537295 3.5322446 11.62937759 4.08129883 15.75317383 C4.31850192 17.54073241 4.55418258 19.32849369 4.78833008 21.11645508 C5.12444845 23.68104535 5.46597075 26.24486544 5.80859375 28.80859375 C5.91280136 29.6127623 6.01700897 30.41693085 6.12437439 31.24546814 C6.3257854 34.93190634 6.3257854 34.93190634 8 38 C9.96287766 38.12363297 11.93015158 38.1779544 13.89672852 38.20532227 C15.15796036 38.22526749 16.4191922 38.24521271 17.71864319 38.26576233 C19.10539627 38.28274795 20.49215066 38.29962671 21.87890625 38.31640625 C23.2899589 38.33696926 24.70100529 38.35796555 26.11204529 38.37937927 C29.8323359 38.43466755 33.55268273 38.48404686 37.27307129 38.53222656 C41.06686425 38.58239242 44.86057523 38.63810408 48.65429688 38.69335938 C56.10279523 38.80102351 63.55136159 38.90244997 71 39 C71 39.33 71 39.66 71 40 C62.70728091 40.06947842 54.41468321 40.12280001 46.12174511 40.15543652 C42.27108169 40.1710996 38.42061725 40.19234923 34.57006836 40.22631836 C30.85478571 40.25888946 27.13969456 40.27684817 23.42428017 40.28463173 C22.00606585 40.29017934 20.58786213 40.30101244 19.16972923 40.31719017 C17.18511533 40.3389319 15.20030914 40.34022513 13.21557617 40.34057617 C12.08528488 40.34723801 10.95499359 40.35389984 9.79045105 40.36076355 C7 40 7 40 5.15576172 38.62480164 C3.59717493 36.43369743 3.2753707 34.56186915 2.83203125 31.9140625 C2.57534668 30.40199219 2.57534668 30.40199219 2.31347656 28.859375 C2.1481543 27.79203125 1.98283203 26.7246875 1.8125 25.625 C1.6381543 24.54476562 1.46380859 23.46453125 1.28417969 22.3515625 C0.12947525 14.83129565 -0.53520499 7.61180431 0 0 Z " fill="#AFB8C0" transform="translate(145,183)"/>
<path d="M0 0 C0.66 0 1.32 0 2 0 C1.74605469 0.98097656 1.49210937 1.96195313 1.23046875 2.97265625 C-0.87705978 11.20846652 -2.74906587 19.43169291 -4.2890625 27.79296875 C-5 31 -5 31 -5.97753906 33.34179688 C-7.06095311 36.15846643 -7.59267365 38.7609991 -8.0703125 41.73828125 C-8.24433594 42.80498047 -8.41835937 43.87167969 -8.59765625 44.97070312 C-8.77167969 46.07349609 -8.94570312 47.17628906 -9.125 48.3125 C-9.30675781 49.43462891 -9.48851563 50.55675781 -9.67578125 51.71289062 C-10.12233533 54.47447507 -10.56355527 57.23680295 -11 60 C-11.33 60 -11.66 60 -12 60 C-12.38574746 51.49926904 -11.82605356 43.40737493 -10.625 35 C-10.49891357 34.10450439 -10.37282715 33.20900879 -10.24291992 32.28637695 C-9.43612442 26.92871124 -8.44516552 21.89033104 -6 17 C-5.34 17 -4.68 17 -4 17 C-3.87882812 16.27554688 -3.75765625 15.55109375 -3.6328125 14.8046875 C-2.75060421 9.71502427 -1.83557653 4.85116654 0 0 Z " fill="#099DD8" transform="translate(122,54)"/>
<path d="M0 0 C0.66 0.33 1.32 0.66 2 1 C-0.08843282 7.45611974 -2.19040342 13.81888753 -5 20 C-5.66 20 -6.32 20 -7 20 C-7.12117188 20.556875 -7.24234375 21.11375 -7.3671875 21.6875 C-8.49330078 26.81564662 -9.70485307 31.91192278 -11 37 C-11.66 37 -12.32 37 -13 37 C-13.33 37.99 -13.66 38.98 -14 40 C-14.33 40 -14.66 40 -15 40 C-14.47270064 33.65985299 -13.34424879 28.12088983 -11.25 22.125 C-10.98340576 21.34705078 -10.71681152 20.56910156 -10.44213867 19.76757812 C-4.62068823 3.08045882 -4.62068823 3.08045882 0 0 Z " fill="#0EA8DF" transform="translate(129,34)"/>
<path d="M0 0 C0.66 0.99 1.32 1.98 2 3 C1.01 3.495 1.01 3.495 0 4 C-0.02722517 6.20826378 -0.04649729 8.41662638 -0.0625 10.625 C-0.07410156 11.85476562 -0.08570312 13.08453125 -0.09765625 14.3515625 C-0.09308824 17.87615704 -0.09308824 17.87615704 0.49609375 20.80859375 C1.21428942 25.3571663 1.1466998 29.83985519 1.125 34.4375 C1.12306641 35.43144775 1.12113281 36.42539551 1.11914062 37.44946289 C1.05780407 48.31199597 0.57013318 59.15382282 0 70 C-0.33 70 -0.66 70 -1 70 C-2.06628576 57.05855473 -2.18622309 44.14797993 -2.18530273 31.16821289 C-2.18752422 27.64913431 -2.20584579 24.13035295 -2.22460938 20.61132812 C-2.22753779 18.36979273 -2.22952627 16.12825586 -2.23046875 13.88671875 C-2.23765427 12.83683273 -2.24483978 11.78694672 -2.25224304 10.70524597 C-2.24916641 9.73605728 -2.24608978 8.76686859 -2.24291992 7.76831055 C-2.24434494 6.91722214 -2.24576996 6.06613373 -2.24723816 5.18925476 C-2 3 -2 3 0 0 Z " fill="#38C8FA" transform="translate(27,33)"/>
<path d="M0 0 C0.33 0 0.66 0 1 0 C0.86057319 3.56278089 0.71232922 7.1251426 0.5625 10.6875 C0.52318359 11.69490234 0.48386719 12.70230469 0.44335938 13.74023438 C0.40146484 14.71669922 0.35957031 15.69316406 0.31640625 16.69921875 C0.27974854 17.59471436 0.24309082 18.49020996 0.20532227 19.4128418 C-0.0007204 22.00907737 -0.46973307 24.45301506 -1 27 C-1.06459042 28.76977761 -1.08611065 30.54170152 -1.0625 32.3125 C-1.05347656 33.19550781 -1.04445313 34.07851562 -1.03515625 34.98828125 C-1.02355469 35.65214844 -1.01195313 36.31601563 -1 37 C-0.34 37.33 0.32 37.66 1 38 C1 38.66 1 39.32 1 40 C8.59 40 16.18 40 24 40 C24.66 41.32 25.32 42.64 26 44 C25.34 43.67 24.68 43.34 24 43 C22.06483126 42.88179661 20.12601234 42.8209999 18.1875 42.7890625 C17.02992188 42.76070312 15.87234375 42.73234375 14.6796875 42.703125 C12.22671587 42.65104492 9.77356602 42.60677274 7.3203125 42.5703125 C6.16273437 42.539375 5.00515625 42.5084375 3.8125 42.4765625 C2.74644531 42.45674316 1.68039063 42.43692383 0.58203125 42.41650391 C-0.27003906 42.27905762 -1.12210937 42.14161133 -2 42 C-7.11332425 34.33001363 -3.31404333 21.87597831 -2 13.3125 C-1.80921875 12.02666016 -1.6184375 10.74082031 -1.421875 9.41601562 C-0.95498971 6.27621203 -0.48090023 3.13768214 0 0 Z " fill="#A0B2C1" transform="translate(116,85)"/>
<path d="M0 0 C0.83849991 -0.00137466 1.67699982 -0.00274933 2.54090881 -0.00416565 C3.45225082 -0.00057037 4.36359283 0.0030249 5.30255127 0.00672913 C6.75183266 0.00651009 6.75183266 0.00651009 8.23039246 0.00628662 C11.42276253 0.00698307 14.6150742 0.01476302 17.80743408 0.02259827 C20.02132129 0.02446339 22.23520891 0.02588685 24.44909668 0.02688599 C30.27536153 0.0307037 36.10160145 0.04052765 41.92785645 0.05158997 C47.87338931 0.0618201 53.8189262 0.06638705 59.76446533 0.07142639 C71.42984087 0.08215055 83.0951979 0.09921806 94.76055908 0.12025452 C94.76055908 0.45025452 94.76055908 0.78025452 94.76055908 1.12025452 C92.92892464 1.12905388 92.92892464 1.12905388 91.06028748 1.13803101 C79.56778191 1.19517711 68.07546704 1.26789602 56.58315563 1.35596943 C50.67444909 1.40074844 44.76581271 1.43998792 38.85699463 1.46669006 C33.1575273 1.49264792 27.45832887 1.53299681 21.75902748 1.58344078 C19.58170217 1.60016047 17.4043303 1.61164285 15.22694969 1.61786842 C12.18342083 1.62745407 9.14058792 1.65544684 6.097229 1.68788147 C4.73884918 1.68572884 4.73884918 1.68572884 3.35302734 1.68353271 C2.52431625 1.69607086 1.69560516 1.70860901 0.84178162 1.7215271 C-0.23809886 1.72844055 -0.23809886 1.72844055 -1.33979511 1.73549366 C-3.76448513 2.22659879 -4.58698002 3.34094998 -6.23944092 5.12025452 C-6.89944092 5.12025452 -7.55944092 5.12025452 -8.23944092 5.12025452 C-8.89944092 6.44025452 -9.55944092 7.76025452 -10.23944092 9.12025452 C-9.71675626 6.35749274 -9.13074505 3.79416692 -8.23944092 1.12025452 C-5.50591145 0.08619587 -2.90020349 -0.00368046 0 0 Z " fill="#47DCFE" transform="translate(36.23944091796875,31.879745483398438)"/>
<path d="M0 0 C0.33 0 0.66 0 1 0 C0.59685166 4.41341337 0.16296012 8.81601538 -0.44140625 13.20703125 C-1.3680932 19.9419293 -2.0656353 26.61955245 -2.46875 33.41015625 C-2.58682007 35.37408325 -2.58682007 35.37408325 -2.70727539 37.37768555 C-2.86379996 40.02607487 -2.99971164 42.67325662 -3.12670898 45.32348633 C-3.19704346 46.54447021 -3.26737793 47.7654541 -3.33984375 49.0234375 C-3.39519287 50.12606934 -3.45054199 51.22870117 -3.50756836 52.36474609 C-3.6700708 53.23437988 -3.83257324 54.10401367 -4 55 C-4.99 55.66 -5.98 56.32 -7 57 C-7.23132319 48.86380503 -6.45899165 40.97195546 -5.45581055 32.91552734 C-5.18984216 30.76890354 -4.93706567 28.62101523 -4.68554688 26.47265625 C-3.60703355 17.51293672 -2.05981236 8.79478248 0 0 Z " fill="#12A5E9" transform="translate(113,74)"/>
<path d="M0 0 C3.11271617 -0.25612611 6.02070596 -0.31838974 9.13134766 -0.2487793 C10.07773605 -0.23946381 11.02412445 -0.23014832 11.99919128 -0.22055054 C15.13783949 -0.18608328 18.27573035 -0.13020554 21.4140625 -0.07421875 C23.58595146 -0.04619651 25.75785796 -0.01950496 27.92977905 0.00590515 C33.65437865 0.07647106 39.37856091 0.16517216 45.10284424 0.25756836 C50.94081469 0.34861751 56.77899789 0.42262935 62.6171875 0.49804688 C74.07839893 0.64862819 85.53924175 0.81835632 97 1 C97 1.33 97 1.66 97 2 C47.995 2.495 47.995 2.495 -2 3 C-1.34 2.01 -0.68 1.02 0 0 Z " fill="#60E1FD" transform="translate(30,30)"/>
<path d="M0 0 C0.66 0 1.32 0 2 0 C4.01542193 7.99052817 4.30357035 15.66088015 4.25 23.875 C4.25773437 25.08414063 4.26546875 26.29328125 4.2734375 27.5390625 C4.27085937 28.69921875 4.26828125 29.859375 4.265625 31.0546875 C4.26336914 32.10124512 4.26111328 33.14780273 4.25878906 34.22607422 C4 37 4 37 2 41 C-6.25 41 -14.5 41 -23 41 C-23 40.67 -23 40.34 -23 40 C-15.41 40 -7.82 40 0 40 C0.95736263 36.17054948 1.12911647 33.18247273 1.1328125 29.2578125 C1.13410156 27.94425781 1.13539063 26.63070312 1.13671875 25.27734375 C1.13462402 24.59526855 1.1325293 23.91319336 1.13037109 23.21044922 C1.12503586 21.13892227 1.13031757 19.06761384 1.13671875 16.99609375 C1.13542969 15.67996094 1.13414062 14.36382812 1.1328125 13.0078125 C1.13168457 11.80785645 1.13055664 10.60790039 1.12939453 9.37158203 C1.00617372 6.16086615 0.6049308 3.15200786 0 0 Z " fill="#0574C7" transform="translate(137,136)"/>
<path d="M0 0 C0.99 0.495 0.99 0.495 2 1 C3.93486832 1.13007672 5.87375254 1.20257743 7.8125 1.24609375 C9.54886719 1.29540039 9.54886719 1.29540039 11.3203125 1.34570312 C13.77334322 1.40689869 16.22647442 1.46419079 18.6796875 1.51757812 C20.41605469 1.56881836 20.41605469 1.56881836 22.1875 1.62109375 C23.25355469 1.6461499 24.31960937 1.67120605 25.41796875 1.69702148 C28 2 28 2 30 4 C29.625 6.125 29.625 6.125 29 8 C28.01 7.34 27.02 6.68 26 6 C23.1913957 5.63155492 23.1913957 5.63155492 20.01953125 5.5859375 C18.85615234 5.54726562 17.69277344 5.50859375 16.49414062 5.46875 C14.67172852 5.42234375 14.67172852 5.42234375 12.8125 5.375 C11.58595703 5.33632812 10.35941406 5.29765625 9.09570312 5.2578125 C6.06395344 5.16343897 3.03221159 5.07785451 0 5 C0 3.35 0 1.7 0 0 Z " fill="#104876" transform="translate(112,125)"/>
<path d="M0 0 C0.99 0.33 1.98 0.66 3 1 C1.96305847 2.47871399 1.96305847 2.47871399 0 4 C-2.5525548 4.28041229 -4.85810658 4.37936916 -7.40893555 4.34057617 C-8.16039856 4.34101425 -8.91186157 4.34145233 -9.68609619 4.34190369 C-12.16990137 4.33981367 -14.6530315 4.31647326 -17.13671875 4.29296875 C-18.85878633 4.28737354 -20.58085868 4.28310309 -22.30293274 4.28010559 C-26.83551212 4.26865091 -31.36780312 4.23917845 -35.90026855 4.20599365 C-40.52526956 4.17530615 -45.15031716 4.16160308 -49.77539062 4.14648438 C-58.85038712 4.11430928 -67.92516958 4.06310545 -77 4 C-77 3.34 -77 2.68 -77 2 C-76.06483551 2.00444122 -75.12967102 2.00888245 -74.16616821 2.01345825 C-65.36655225 2.05394674 -56.5669551 2.08395663 -47.76726723 2.10362434 C-43.2429174 2.11407551 -38.71864259 2.1282589 -34.19433594 2.15087891 C-29.83068476 2.17255993 -25.46710587 2.18455858 -21.103405 2.18975449 C-19.43597653 2.19345879 -17.76855215 2.20069207 -16.10115433 2.21146011 C-13.77128705 2.2259122 -11.44172106 2.22798061 -9.11181641 2.22705078 C-8.07064415 2.23783661 -8.07064415 2.23783661 -7.00843811 2.24884033 C-3.06173972 2.33202644 -3.06173972 2.33202644 0 0 Z " fill="#909EAA" transform="translate(227,220)"/>
<path d="M0 0 C6.6 0 13.2 0 20 0 C20.66 11.55 21.32 23.1 22 35 C21.34 34.67 20.68 34.34 20 34 C19.62109375 30.8671875 19.62109375 30.8671875 19.4375 26.875 C19.1937037 21.84981096 18.71869113 16.97738155 18 12 C17.96198238 10.58384355 17.95395388 9.16591815 18 7.75 C18.19764235 4.06588078 18.19764235 4.06588078 17 1 C11.39 1 5.78 1 0 1 C0 0.67 0 0.34 0 0 Z " fill="#1170D7" transform="translate(121,184)"/>
<path d="M0 0 C0.66 0 1.32 0 2 0 C1.74605469 0.98097656 1.49210937 1.96195313 1.23046875 2.97265625 C0.88184492 4.33569039 0.53426817 5.69899258 0.1875 7.0625 C0.00590332 7.77607666 -0.17569336 8.48965332 -0.36279297 9.22485352 C-1.93244023 15.5027523 -3.15979515 21.81319732 -4.2890625 28.18359375 C-4.52367188 29.11300781 -4.75828125 30.04242188 -5 31 C-5.66 31.33 -6.32 31.66 -7 32 C-7.42595852 25.51092985 -5.85163587 19.95670477 -4.0625 13.75 C-3.64581055 12.26113281 -3.64581055 12.26113281 -3.22070312 10.7421875 C-2.20711915 7.13724788 -1.18430051 3.55290153 0 0 Z " fill="#1B8DC7" transform="translate(122,54)"/>
<path d="M0 0 C0.66 0 1.32 0 2 0 C3.35709504 7.73059495 4.31918373 15.14453364 4 23 C3.67 22.01 3.34 21.02 3 20 C2.34 20 1.68 20 1 20 C-0.23839599 13.34362157 -0.09139136 6.7528064 0 0 Z " fill="#B2BEC9" transform="translate(145,183)"/>
<path d="M0 0 C2.03120707 3.04681061 2.24659875 3.60118324 2.1953125 7.01171875 C2.18886719 7.76904297 2.18242187 8.52636719 2.17578125 9.30664062 C2.15902344 10.09232422 2.14226562 10.87800781 2.125 11.6875 C2.11597656 12.48478516 2.10695312 13.28207031 2.09765625 14.10351562 C2.07411585 16.069139 2.03824547 18.03460775 2 20 C0.68 19.67 -0.64 19.34 -2 19 C-1.505 17.515 -1.505 17.515 -1 16 C-0.77202438 13.26710707 -0.58331813 10.54957796 -0.4375 7.8125 C-0.39431641 7.06291016 -0.35113281 6.31332031 -0.30664062 5.54101562 C-0.20077315 3.69421625 -0.0999024 1.84713166 0 0 Z " fill="#075BA9" transform="translate(141,157)"/>
<path d="M0 0 C3.03357168 3.3642062 3.5415399 6.11663665 4.0625 10.5625 C4.63854722 15.58879317 4.63854722 15.58879317 7 20 C5.68 19.67 4.36 19.34 3 19 C1.2100144 12.6753842 0.45759953 6.5508985 0 0 Z " fill="#A4AFBA" transform="translate(147,203)"/>
<path d="M0 0 C0.33 0 0.66 0 1 0 C1.02688151 1.64574566 1.04634123 3.29161413 1.0625 4.9375 C1.07410156 5.85402344 1.08570313 6.77054688 1.09765625 7.71484375 C1 10 1 10 0 11 C-1.85369611 11.08737645 -3.71067541 11.10698153 -5.56640625 11.09765625 C-6.69111328 11.09443359 -7.81582031 11.09121094 -8.97460938 11.08789062 C-10.15861328 11.07951172 -11.34261719 11.07113281 -12.5625 11.0625 C-13.75037109 11.05798828 -14.93824219 11.05347656 -16.16210938 11.04882812 C-19.10812226 11.03699675 -22.05403681 11.02051287 -25 11 C-25 10.67 -25 10.34 -25 10 C-17.41 10 -9.82 10 -2 10 C-1.34 6.7 -0.68 3.4 0 0 Z " fill="#1274D1" transform="translate(139,166)"/>
<path d="M0 0 C0.33 0 0.66 0 1 0 C0.91932999 3.12607441 0.8064771 6.25016751 0.6875 9.375 C0.66494141 10.26445313 0.64238281 11.15390625 0.61914062 12.0703125 C0.58369141 12.92109375 0.54824219 13.771875 0.51171875 14.6484375 C0.48553467 15.43395996 0.45935059 16.21948242 0.43237305 17.02880859 C0 19 0 19 -3 21 C-3 17.7 -3 14.4 -3 11 C-2.67 11 -2.34 11 -2 11 C-1.34 7.37 -0.68 3.74 0 0 Z " fill="#1591EA" transform="translate(109,110)"/>
<path d="M0 0 C0.66 0.33 1.32 0.66 2 1 C0.93204565 5.50066475 -0.14038586 9.7494534 -2 14 C-2.66 14 -3.32 14 -4 14 C-4 15.98 -4 17.96 -4 20 C-4.66 20 -5.32 20 -6 20 C-4.85210257 12.90116066 -2.88549626 6.58341381 0 0 Z " fill="#CBD9E2" transform="translate(129,38)"/>
<path d="M0 0 C0.33 0 0.66 0 1 0 C1.02694851 1.95825873 1.04637218 3.91662226 1.0625 5.875 C1.07410156 6.96554688 1.08570313 8.05609375 1.09765625 9.1796875 C1 12 1 12 0 14 C-1.65204456 14.70211894 -3.31923769 15.36971413 -5 16 C-5.33 16.33 -5.66 16.66 -6 17 C-7.51928038 17.07179964 -9.04167482 17.08392007 -10.5625 17.0625 C-11.38878906 17.05347656 -12.21507812 17.04445312 -13.06640625 17.03515625 C-14.02353516 17.01775391 -14.02353516 17.01775391 -15 17 C-15 16.67 -15 16.34 -15 16 C-13.7625 15.87625 -12.525 15.7525 -11.25 15.625 C-8.13640662 15.22342347 -5.58912183 14.89205057 -3 13 C-1.25551331 10.08183293 -0.67222578 7.61855881 -0.375 4.25 C-0.30023438 3.45078125 -0.22546875 2.6515625 -0.1484375 1.828125 C-0.09945312 1.22484375 -0.05046875 0.6215625 0 0 Z " fill="#A6B0B9" transform="translate(231,206)"/>
<path d="M0 0 C0.66 0.66 1.32 1.32 2 2 C1.9765625 4.13671875 1.9765625 4.13671875 1.625 6.6875 C1.22889037 9.84271811 1.01092079 12.67708912 1.0625 15.875 C0.99947079 19.02646044 0.48028428 20.31807319 -1 23 C-1.02706445 20.10410348 -1.04687029 17.20846205 -1.0625 14.3125 C-1.07087891 13.49587891 -1.07925781 12.67925781 -1.08789062 11.83789062 C-1.10442051 7.75500916 -1.03035098 3.98348293 0 0 Z " fill="#2A8BF4" transform="translate(26,195)"/>
<path d="M0 0 C3.93743833 -0.05797565 7.87476719 -0.09358789 11.8125 -0.125 C12.93205078 -0.14175781 14.05160156 -0.15851563 15.20507812 -0.17578125 C16.27822266 -0.18222656 17.35136719 -0.18867187 18.45703125 -0.1953125 C19.9416687 -0.21102295 19.9416687 -0.21102295 21.45629883 -0.22705078 C24 0 24 0 27 2 C26.67 3.32 26.34 4.64 26 6 C25.61481201 5.35256836 25.22962402 4.70513672 24.83276367 4.03808594 C23.16596849 1.78797804 23.16596849 1.78797804 20.5480957 1.45410156 C19.60023193 1.4331543 18.65236816 1.41220703 17.67578125 1.390625 C16.64775391 1.35839844 15.61972656 1.32617188 14.56054688 1.29296875 C12.95276367 1.27169922 12.95276367 1.27169922 11.3125 1.25 C10.22904297 1.22035156 9.14558594 1.19070312 8.02929688 1.16015625 C5.35278941 1.08941156 2.67715521 1.03673844 0 1 C0 0.67 0 0.34 0 0 Z " fill="#C9D1D8" transform="translate(117,124)"/>
<path d="M0 0 C0.66 0.33 1.32 0.66 2 1 C0.68 4.96 -0.64 8.92 -2 13 C-2.33 13 -2.66 13 -3 13 C-3 11.35 -3 9.7 -3 8 C-3.66 8 -4.32 8 -5 8 C-3.375 2.25 -3.375 2.25 0 0 Z " fill="#24AEE0" transform="translate(129,34)"/>
<path d="M0 0 C5.28 0 10.56 0 16 0 C16.33 1.65 16.66 3.3 17 5 C16.443125 4.79503906 15.88625 4.59007812 15.3125 4.37890625 C10.16382446 2.56121505 5.43723984 1.49429453 0 1 C0 0.67 0 0.34 0 0 Z " fill="#003B65" transform="translate(125,128)"/>
<path d="M0 0 C0.33 0 0.66 0 1 0 C0.85805236 2.06277107 0.71127784 4.12521031 0.5625 6.1875 C0.48128906 7.33605469 0.40007812 8.48460938 0.31640625 9.66796875 C0.04596188 12.51598171 -0.37521747 15.21210482 -1 18 C-1.33 18 -1.66 18 -2 18 C-2.054138 15.75026553 -2.09285491 13.50015617 -2.125 11.25 C-2.14820312 9.99703125 -2.17140625 8.7440625 -2.1953125 7.453125 C-2.01537302 4.27179508 -1.68998582 2.63478104 0 0 Z " fill="#088DD4" transform="translate(112,96)"/>
<path d="M0 0 C5.61 0 11.22 0 17 0 C15.68 0.99 14.36 1.98 13 3 C11.1875 2.6875 11.1875 2.6875 9 2 C7.205625 2.0309375 7.205625 2.0309375 5.375 2.0625 C2 2 2 2 0 0 Z " fill="#2BCFFC" transform="translate(114,33)"/>
<path d="M0 0 C0.33 0 0.66 0 1 0 C1.19392201 5.52677733 0.7479503 9.75614911 -1 15 C-1.66 14.67 -2.32 14.34 -3 14 C-2.40380045 9.13103697 -1.43023178 4.67209049 0 0 Z " fill="#C5D2DC" transform="translate(122,60)"/>
<path d="M0 0 C1.10176129 3.35216734 0.89303058 5.75121078 0.1875 9.1875 C0.01605469 10.06792969 -0.15539062 10.94835937 -0.33203125 11.85546875 C-0.55246094 12.56316406 -0.77289063 13.27085938 -1 14 C-1.99 14.495 -1.99 14.495 -3 15 C-2.5547115 9.72684667 -1.91626837 4.98229776 0 0 Z " fill="#11AFE9" transform="translate(117,59)"/>
<path d="M0 0 C0 0.99 0 1.98 0 3 C0.226875 3.598125 0.45375 4.19625 0.6875 4.8125 C1.16104802 8.12733613 -0.39114102 10.1684082 -2 13 C-3.29550413 10.40899174 -2.96400816 8.80575631 -2.6875 5.9375 C-2.60886719 5.03902344 -2.53023438 4.14054687 -2.44921875 3.21484375 C-2.30097656 2.48394531 -2.15273437 1.75304688 -2 1 C-1.34 0.67 -0.68 0.34 0 0 Z " fill="#DFE4E9" transform="translate(125,57)"/>
<path d="M0 0 C2.01920337 1.30406884 4.01924973 2.63823419 6 4 C6 4.33 6 4.66 6 5 C4.02 5 2.04 5 0 5 C0 3.35 0 1.7 0 0 Z " fill="#034788" transform="translate(112,125)"/>
</svg>
