<?xml version="1.0" encoding="UTF-8"?>
<svg version="1.1" xmlns="http://www.w3.org/2000/svg" width="256" height="256">
<path d="M0 0 C11.88 0 23.76 0 36 0 C36 2.31 36 4.62 36 7 C38.64 7 41.28 7 44 7 C44 12.28 44 17.56 44 23 C46.64 23 49.28 23 52 23 C52 28.61 52 34.22 52 40 C54.97 40 57.94 40 61 40 C61 44.95 61 49.9 61 55 C63.31 55 65.62 55 68 55 C68 50.05 68 45.1 68 40 C70.64 40 73.28 40 76 40 C76 34.39 76 28.78 76 23 C79.3 23 82.6 23 86 23 C86 17.72 86 12.44 86 7 C88.64 7 91.28 7 94 7 C94 4.69 94 2.38 94 0 C105.55 0 117.1 0 129 0 C129 31.35 129 62.7 129 95 C134.28 95 139.56 95 145 95 C145 93.02 145 91.04 145 89 C142.36 89 139.72 89 137 89 C137 80.75 137 72.5 137 64 C145.25 64 153.5 64 162 64 C162 61.36 162 58.72 162 56 C156.39 56 150.78 56 145 56 C145 53.69 145 51.38 145 49 C142.36 49 139.72 49 137 49 C137 38.11 137 27.22 137 16 C139.64 16 142.28 16 145 16 C145 13.03 145 10.06 145 7 C150.61 7 156.22 7 162 7 C162 4.69 162 2.38 162 0 C176.52 0 191.04 0 206 0 C206 2.31 206 4.62 206 7 C211.61 7 217.22 7 223 7 C223 9.97 223 12.94 223 16 C225.64 16 228.28 16 231 16 C231 24.25 231 32.5 231 41 C219.78 41 208.56 41 197 41 C197 42.98 197 44.96 197 47 C202.94 47 208.88 47 215 47 C215 49.64 215 52.28 215 55 C217.64 55 220.28 55 223 55 C223 57.97 223 60.94 223 64 C225.64 64 228.28 64 231 64 C231 72.25 231 80.5 231 89 C228.36 89 225.72 89 223 89 C223 91.64 223 94.28 223 97 C220.69 97 218.38 97 216 97 C215.67 98.98 215.34 100.96 215 103 C220.28 103 225.56 103 231 103 C231 105.97 231 108.94 231 112 C233.97 112 236.94 112 240 112 C240 114.31 240 116.62 240 119 C242.64 119 245.28 119 248 119 C248 127.25 248 135.5 248 144 C245.36 144 242.72 144 240 144 C240 146.64 240 149.28 240 152 C231.75 152 223.5 152 215 152 C215.33 154.31 215.66 156.62 216 159 C220.95 159 225.9 159 231 159 C231 161.64 231 164.28 231 167 C233.97 167 236.94 167 240 167 C240 169.64 240 172.28 240 175 C242.64 175 245.28 175 248 175 C248 194.14 248 213.28 248 233 C245.36 233 242.72 233 240 233 C240 235.31 240 237.62 240 240 C237.03 240 234.06 240 231 240 C231 242.64 231 245.28 231 248 C225.72 248 220.44 248 215 248 C215 250.64 215 253.28 215 256 C197.51 256 180.02 256 162 256 C162 253.36 162 250.72 162 248 C159.36 248 156.72 248 154 248 C154 250.64 154 253.28 154 256 C134.2 256 114.4 256 94 256 C94 253.36 94 250.72 94 248 C88.72 248 83.44 248 78 248 C78 250.64 78 253.28 78 256 C52.26 256 26.52 256 0 256 C0 253.36 0 250.72 0 248 C-2.64 248 -5.28 248 -8 248 C-8 197.51 -8 147.02 -8 95 C-5.36 95 -2.72 95 0 95 C0 63.65 0 32.3 0 0 Z M172 25 C172 29.95 172 34.9 172 40 C179.92 40 187.84 40 196 40 C196 35.05 196 30.1 196 25 C188.08 25 180.16 25 172 25 Z M164 65 C164 66.98 164 68.96 164 71 C166.64 71 169.28 71 172 71 C172 73.64 172 76.28 172 79 C179.92 79 187.84 79 196 79 C196 77.02 196 75.04 196 73 C193.36 73 190.72 73 188 73 C188 70.36 188 67.72 188 65 C180.08 65 172.16 65 164 65 Z M36 73 C36 80.26 36 87.52 36 95 C40.95 95 45.9 95 51 95 C51 93.02 51 91.04 51 89 C48.36 89 45.72 89 43 89 C43 83.72 43 78.44 43 73 C40.69 73 38.38 73 36 73 Z M87 73 C87 78.28 87 83.56 87 89 C84.03 89 81.06 89 78 89 C78 93.62 78 98.24 78 103 C80.64 103 83.28 103 86 103 C86 100.36 86 97.72 86 95 C88.64 95 91.28 95 94 95 C94 87.41 94 79.82 94 72 C91.6429774 72 89.32495277 72.61250787 87 73 Z M146 96 C146 98.31 146 100.62 146 103 C148.31 103 150.62 103 153 103 C153 100.69 153 98.38 153 96 C150.69 96 148.38 96 146 96 Z M197 137 C197 141.62 197 146.24 197 151 C202.61 151 208.22 151 214 151 C214 148.69 214 146.38 214 144 C210.7 144 207.4 144 204 144 C204 141.69 204 139.38 204 137 C201.69 137 199.38 137 197 137 Z M36 152 C36 167.51 36 183.02 36 199 C43.92 199 51.84 199 60 199 C60 196.69 60 194.38 60 192 C57.03 192 54.06 192 51 192 C51 178.8 51 165.6 51 152 C46.05 152 41.1 152 36 152 Z M121 152 C121 167.51 121 183.02 121 199 C123.31 199 125.62 199 128 199 C128 196.36 128 193.72 128 191 C130.97 191 133.94 191 137 191 C137 188.36 137 185.72 137 183 C142.28 183 147.56 183 153 183 C153 180.69 153 178.38 153 176 C150.36 176 147.72 176 145 176 C145 173.36 145 170.72 145 168 C142.36 168 139.72 168 137 168 C137 165.69 137 163.38 137 161 C134.03 161 131.06 161 128 161 C128 158.03 128 155.06 128 152 C125.69 152 123.38 152 121 152 Z M189 192 C189 194.31 189 196.62 189 199 C193.95 199 198.9 199 204 199 C204 196.69 204 194.38 204 192 C199.05 192 194.1 192 189 192 Z " fill="#060603" transform="translate(8,0)"/>
<path d="M0 0 C69 0 69 0 77 1 C77 3.64 77 6.28 77 9 C79.97 9 82.94 9 86 9 C86 6.03 86 3.06 86 0 C102.83 0.33 119.66 0.66 137 1 C137 19.48 137 37.96 137 57 C139.64 57 142.28 57 145 57 C145 59.64 145 62.28 145 65 C142.36 65 139.72 65 137 65 C137 62.69 137 60.38 137 58 C134.03 58 131.06 58 128 58 C128 55.03 128 52.06 128 49 C125.69 49 123.38 49 121 49 C121 64.51 121 80.02 121 96 C123.31 96 125.62 96 128 96 C128 93.36 128 90.72 128 88 C130.97 88 133.94 88 137 88 C137 98.56 137 109.12 137 120 C139.97 120 142.94 120 146 120 C146 127.92 146 135.84 146 144 C137.42 144 128.84 144 120 144 C120 141.69 120 139.38 120 137 C117.36 137 114.72 137 112 137 C112 139.31 112 141.62 112 144 C106.39 144 100.78 144 95 144 C93.875 136.125 93.875 136.125 93.90234375 132.59765625 C93.90717773 131.48100586 93.90717773 131.48100586 93.91210938 130.34179688 C93.92467773 129.21354492 93.92467773 129.21354492 93.9375 128.0625 C93.94201172 127.28326172 93.94652344 126.50402344 93.95117188 125.70117188 C93.96283092 123.80074732 93.98076123 121.90036294 94 120 C96.64 120 99.28 120 102 120 C102 117.69 102 115.38 102 113 C96.72 113 91.44 113 86 113 C86 120.92 86 128.84 86 137 C83.03 137 80.06 137 77 137 C77 139.31 77 141.62 77 144 C51.59 144 26.18 144 0 144 C0 96.48 0 48.96 0 0 Z M36 49 C36 64.51 36 80.02 36 96 C43.92 96 51.84 96 60 96 C60 93.69 60 91.38 60 89 C57.03 89 54.06 89 51 89 C51 75.8 51 62.6 51 49 C46.05 49 41.1 49 36 49 Z " fill="#000001" transform="translate(8,103)"/>
<path d="M0 0 C11.88 0 23.76 0 36 0 C36 2.31 36 4.62 36 7 C38.64 7 41.28 7 44 7 C44 12.28 44 17.56 44 23 C46.64 23 49.28 23 52 23 C52 28.61 52 34.22 52 40 C54.97 40 57.94 40 61 40 C61 44.95 61 49.9 61 55 C63.31 55 65.62 55 68 55 C68 50.05 68 45.1 68 40 C70.64 40 73.28 40 76 40 C76 34.39 76 28.78 76 23 C79.3 23 82.6 23 86 23 C86 17.72 86 12.44 86 7 C88.64 7 91.28 7 94 7 C94 4.69 94 2.38 94 0 C105.55 0 117.1 0 129 0 C129 31.35 129 62.7 129 95 C134.28 95 139.56 95 145 95 C145 93.02 145 91.04 145 89 C147.64 89 150.28 89 153 89 C153.04241723 91.33294775 153.04092937 93.66702567 153 96 C152 97 152 97 149.4375 97.0625 C148.633125 97.041875 147.82875 97.02125 147 97 C146.67 98.98 146.34 100.96 146 103 C148.31 103 150.62 103 153 103 C153 105.97 153 108.94 153 112 C150.69 112 148.38 112 146 112 C146 114.64 146 117.28 146 120 C143.03 120 140.06 120 137 120 C137 114.72 137 109.44 137 104 C135.73929688 104.00523682 134.47859375 104.01047363 133.1796875 104.01586914 C128.475756 104.03405064 123.77182757 104.04547987 119.06787109 104.05493164 C117.03694129 104.05994189 115.00601506 104.06675191 112.97509766 104.07543945 C110.04588943 104.08765047 107.11672915 104.09326153 104.1875 104.09765625 C103.28821777 104.10281754 102.38893555 104.10797882 101.46240234 104.11329651 C96.21430933 104.11375728 91.19375999 103.76270154 86 103 C86 105.97 86 108.94 86 112 C83.03 112 80.06 112 77 112 C77 109.36 77 106.72 77 104 C51.59 103.67 26.18 103.34 0 103 C0 150.52 0 198.04 0 247 C25.41 247 50.82 247 77 247 C77 244.69 77 242.38 77 240 C79.97 240 82.94 240 86 240 C86 232.08 86 224.16 86 216 C91.28 216 96.56 216 102 216 C102 218.31 102 220.62 102 223 C99.36 223 96.72 223 94 223 C94.495 234.88 94.495 234.88 95 247 C100.61 247 106.22 247 112 247 C112 244.69 112 242.38 112 240 C114.64 240 117.28 240 120 240 C120 242.31 120 244.62 120 247 C128.58 247 137.16 247 146 247 C146 242.05 146 237.1 146 232 C148.64 232 151.28 232 154 232 C154 234.64 154 237.28 154 240 C156.97 240 159.94 240 163 240 C163 242.31 163 244.62 163 247 C179.83 247 196.66 247 214 247 C214 244.36 214 241.72 214 239 C219.28 239 224.56 239 230 239 C230 236.69 230 234.38 230 232 C233.3 232 236.6 232 240 232 C240 213.19 240 194.38 240 175 C242.64 175 245.28 175 248 175 C248 194.14 248 213.28 248 233 C245.36 233 242.72 233 240 233 C240 235.31 240 237.62 240 240 C237.03 240 234.06 240 231 240 C231 242.64 231 245.28 231 248 C225.72 248 220.44 248 215 248 C215 250.64 215 253.28 215 256 C197.51 256 180.02 256 162 256 C162 253.36 162 250.72 162 248 C159.36 248 156.72 248 154 248 C154 250.64 154 253.28 154 256 C134.2 256 114.4 256 94 256 C94 253.36 94 250.72 94 248 C88.72 248 83.44 248 78 248 C78 250.64 78 253.28 78 256 C52.26 256 26.52 256 0 256 C0 253.36 0 250.72 0 248 C-2.64 248 -5.28 248 -8 248 C-8 197.51 -8 147.02 -8 95 C-5.36 95 -2.72 95 0 95 C0 63.65 0 32.3 0 0 Z M36 73 C36 80.26 36 87.52 36 95 C40.95 95 45.9 95 51 95 C51 93.02 51 91.04 51 89 C48.36 89 45.72 89 43 89 C43 83.72 43 78.44 43 73 C40.69 73 38.38 73 36 73 Z M87 73 C87 78.28 87 83.56 87 89 C84.03 89 81.06 89 78 89 C78 93.62 78 98.24 78 103 C80.64 103 83.28 103 86 103 C86 100.36 86 97.72 86 95 C88.64 95 91.28 95 94 95 C94 87.41 94 79.82 94 72 C91.6429774 72 89.32495277 72.61250787 87 73 Z " fill="#020101" transform="translate(8,0)"/>
<path d="M0 0 C69 0 69 0 77 1 C77 3.64 77 6.28 77 9 C71.72 9 66.44 9 61 9 C61 11.64 61 14.28 61 17 C60.67 19.31 60.34 21.62 60 24 C48.78 24 37.56 24 26 24 C26 50.73 26 77.46 26 105 C42.83 105 59.66 105 77 105 C77 102.36 77 99.72 77 97 C79.97 97 82.94 97 86 97 C86 94.36 86 91.72 86 89 C88.64 89 91.28 89 94 89 C94 70.52 94 52.04 94 33 C99.94 33 105.88 33 112 33 C112 53.79 112 74.58 112 96 C109.03 96 106.06 96 103 96 C103 101.61 103 107.22 103 113 C97.39 113 91.78 113 86 113 C86 120.92 86 128.84 86 137 C83.03 137 80.06 137 77 137 C77 139.31 77 141.62 77 144 C51.59 144 26.18 144 0 144 C0 96.48 0 48.96 0 0 Z " fill="#FD0000" transform="translate(8,103)"/>
<path d="M0 0 C8.58 0 17.16 0 26 0 C26 29.37 26 58.74 26 89 C20.06 89 14.12 89 8 89 C8 73.16 8 57.32 8 41 C5.69 41 3.38 41 1 41 C1 43.64 1 46.28 1 49 C-1.97 49 -4.94 49 -8 49 C-8 54.28 -8 59.56 -8 65 C-10.97 65 -13.94 65 -17 65 C-17 70.28 -17 75.56 -17 81 C-19.64 81 -22.28 81 -25 81 C-25 83.64 -25 86.28 -25 89 C-27.64 89 -30.28 89 -33 89 C-33 86.36 -33 83.72 -33 81 C-35.97 81 -38.94 81 -42 81 C-42 75.72 -42 70.44 -42 65 C-44.97 65 -47.94 65 -51 65 C-51 59.72 -51 54.44 -51 49 C-53.64 49 -56.28 49 -59 49 C-59 46.36 -59 43.72 -59 41 C-61.97 41 -64.94 41 -68 41 C-68 56.84 -68 72.68 -68 89 C-73.61 89 -79.22 89 -85 89 C-85 59.96 -85 30.92 -85 1 C-76.42 1 -67.84 1 -59 1 C-59 6.28 -59 11.56 -59 17 C-56.36 17 -53.72 17 -51 17 C-51 22.28 -51 27.56 -51 33 C-48.36 33 -45.72 33 -43 33 C-43 38.28 -43 43.56 -43 49 C-40.03 49 -37.06 49 -34 49 C-33.505 56.92 -33.505 56.92 -33 65 C-30.36 65 -27.72 65 -25 65 C-25 59.72 -25 54.44 -25 49 C-22.36 49 -19.72 49 -17 49 C-17 43.72 -17 38.44 -17 33 C-14.03 33 -11.06 33 -8 33 C-8 27.72 -8 22.44 -8 17 C-5.36 17 -2.72 17 0 17 C0 11.39 0 5.78 0 0 Z " fill="#BCBCBC" transform="translate(102,7)"/>
<path d="M0 0 C5.61 0 11.22 0 17 0 C17 2.64 17 5.28 17 8 C22.28 8 27.56 8 33 8 C33 10.31 33 12.62 33 15 C36.3 15 39.6 15 43 15 C43 33.81 43 52.62 43 72 C39.7 72 36.4 72 33 72 C33 74.31 33 76.62 33 79 C27.72 79 22.44 79 17 79 C17 81.64 17 84.28 17 87 C0.17 87 -16.66 87 -34 87 C-34 84.69 -34 82.38 -34 80 C-36.97 80 -39.94 80 -43 80 C-43 77.36 -43 74.72 -43 72 C-45.64 72 -48.28 72 -51 72 C-51 69.03 -51 66.06 -51 63 C-53.97 63 -56.94 63 -60 63 C-60 52.44 -60 41.88 -60 31 C-51.42 31 -42.84 31 -34 31 C-34 33.64 -34 36.28 -34 39 C-31.36 39 -28.72 39 -26 39 C-26 41.97 -26 44.94 -26 48 C-14.78 48 -3.56 48 8 48 C8 45.03 8 42.06 8 39 C10.97 39 13.94 39 17 39 C17 34.05 17 29.1 17 24 C11.39 24 5.78 24 0 24 C0 16.08 0 8.16 0 0 Z " fill="#FDFD00" transform="translate(205,160)"/>
<path d="M0 0 C2.97 0 5.94 0 9 0 C9 2.31 9 4.62 9 7 C11.64 7 14.28 7 17 7 C17 15.25 17 23.5 17 32 C14.36 32 11.72 32 9 32 C9 34.64 9 37.28 9 40 C0.75 40 -7.5 40 -16 40 C-15.505 43.465 -15.505 43.465 -15 47 C-10.05 47 -5.1 47 0 47 C0 49.64 0 52.28 0 55 C2.97 55 5.94 55 9 55 C9 57.64 9 60.28 9 63 C5.7 63 2.4 63 -1 63 C-1 60.69 -1 58.38 -1 56 C-6.28 56 -11.56 56 -17 56 C-17 53.36 -17 50.72 -17 48 C-22.61 48 -28.22 48 -34 48 C-34 55.92 -34 63.84 -34 72 C-28.39 72 -22.78 72 -17 72 C-17 76.95 -17 81.9 -17 87 C-19.97 87 -22.94 87 -26 87 C-26 89.97 -26 92.94 -26 96 C-37.22 96 -48.44 96 -60 96 C-60 93.03 -60 90.06 -60 87 C-62.64 87 -65.28 87 -68 87 C-68 84.36 -68 81.72 -68 79 C-76.58 79 -85.16 79 -94 79 C-94 76.36 -94 73.72 -94 71 C-88.72 71 -83.44 71 -78 71 C-78 68.69 -78 66.38 -78 64 C-80.64 64 -83.28 64 -86 64 C-86 61.36 -86 58.72 -86 56 C-83.03 56 -80.06 56 -77 56 C-77 45.44 -77 34.88 -77 24 C-74.03 24 -71.06 24 -68 24 C-68 21.36 -68 18.72 -68 16 C-54.14 16 -40.28 16 -26 16 C-26 18.64 -26 21.28 -26 24 C-17.42 24 -8.84 24 0 24 C0 21.36 0 18.72 0 16 C2.97 16 5.94 16 9 16 C9 13.36 9 10.72 9 8 C6.03 8 3.06 8 0 8 C0 5.36 0 2.72 0 0 Z M-34 25 C-34 29.62 -34 34.24 -34 39 C-28.39 39 -22.78 39 -17 39 C-17 36.69 -17 34.38 -17 32 C-20.3 32 -23.6 32 -27 32 C-27 29.69 -27 27.38 -27 25 C-29.31 25 -31.62 25 -34 25 Z M-42 80 C-42 82.31 -42 84.62 -42 87 C-37.05 87 -32.1 87 -27 87 C-27 84.69 -27 82.38 -27 80 C-31.95 80 -36.9 80 -42 80 Z " fill="#020200" transform="translate(239,112)"/>
<path d="M0 0 C14.52 0 29.04 0 44 0 C44 2.31 44 4.62 44 7 C49.61 7 55.22 7 61 7 C61 15.25 61 23.5 61 32 C55.06 32 49.12 32 43 32 C43 29.36 43 26.72 43 24 C40.36 24 37.72 24 35 24 C35 21.36 35 18.72 35 16 C26.42 16 17.84 16 9 16 C9 18.64 9 21.28 9 24 C6.36 24 3.72 24 1 24 C1 29.28 1 34.56 1 40 C3.64 40 6.28 40 9 40 C9 42.64 9 45.28 9 48 C17.58 48 26.16 48 35 48 C35 50.64 35 53.28 35 56 C40.61 56 46.22 56 52 56 C52 58.64 52 61.28 52 64 C54.64 64 57.28 64 60 64 C60 71.92 60 79.84 60 88 C57.36 88 54.72 88 52 88 C52 90.64 52 93.28 52 96 C32.2 96 12.4 96 -8 96 C-8 93.36 -8 90.72 -8 88 C-10.64 88 -13.28 88 -16 88 C-16 82.72 -16 77.44 -16 72 C-10.39 72 -4.78 72 1 72 C1 77.28 1 82.56 1 88 C12.22 88 23.44 88 35 88 C35 85.36 35 82.72 35 80 C37.64 80 40.28 80 43 80 C43 77.36 43 74.72 43 72 C40.36 72 37.72 72 35 72 C35 69.36 35 66.72 35 64 C32.36 64 29.72 64 27 64 C27 61.36 27 58.72 27 56 C18.42 56 9.84 56 1 56 C1 53.36 1 50.72 1 48 C-4.94 48 -10.88 48 -17 48 C-17 34.47 -17 20.94 -17 7 C-11.39 7 -5.78 7 0 7 C0 4.69 0 2.38 0 0 Z " fill="#BDBDBD" transform="translate(170,0)"/>
<path d="M0 0 C5.28 0 10.56 0 16 0 C16 2.64 16 5.28 16 8 C13.36 8 10.72 8 8 8 C8 13.28 8 18.56 8 24 C5.36 24 2.72 24 0 24 C0 42.48 0 60.96 0 80 C2.64 80 5.28 80 8 80 C8 82.31 8 84.62 8 87 C10.64 87 13.28 87 16 87 C16 82.05 16 77.1 16 72 C18.97 72 21.94 72 25 72 C25 56.16 25 40.32 25 24 C27.64 24 30.28 24 33 24 C33 42.48 33 60.96 33 80 C30.36 80 27.72 80 25 80 C25 82.64 25 85.28 25 88 C22.03 88 19.06 88 16 88 C16 90.64 16 93.28 16 96 C-0.83 96 -17.66 96 -35 96 C-35 69.27 -35 42.54 -35 15 C-23.78 15 -12.56 15 -1 15 C-0.67 10.05 -0.34 5.1 0 0 Z M-25 40 C-25 55.51 -25 71.02 -25 87 C-17.08 87 -9.16 87 -1 87 C-1 84.69 -1 82.38 -1 80 C-3.97 80 -6.94 80 -10 80 C-10 66.8 -10 53.6 -10 40 C-14.95 40 -19.9 40 -25 40 Z " fill="#030003" transform="translate(69,112)"/>
<path d="M0 0 C16.83 0.33 33.66 0.66 51 1 C51 3.64 51 6.28 51 9 C48.03 9 45.06 9 42 9 C42 19.56 42 30.12 42 41 C39.36 41 36.72 41 34 41 C34 35.72 34 30.44 34 25 C25.42 25 16.84 25 8 25 C8 27.64 8 30.28 8 33 C5.36 33 2.72 33 0 33 C0 48.84 0 64.68 0 81 C-2.97 81 -5.94 81 -9 81 C-9 85.95 -9 90.9 -9 96 C-11.64 96 -14.28 96 -17 96 C-17 93.69 -17 91.38 -17 89 C-19.64 89 -22.28 89 -25 89 C-25 70.52 -25 52.04 -25 33 C-22.36 33 -19.72 33 -17 33 C-17 27.72 -17 22.44 -17 17 C-14.36 17 -11.72 17 -9 17 C-9 14.36 -9 11.72 -9 9 C-6.03 9 -3.06 9 0 9 C0 6.03 0 3.06 0 0 Z " fill="#2100FE" transform="translate(94,103)"/>
<path d="M0 0 C19.8 0 39.6 0 60 0 C60 2.64 60 5.28 60 8 C65.61 8 71.22 8 77 8 C77 10.64 77 13.28 77 16 C79.97 16 82.94 16 86 16 C86 18.64 86 21.28 86 24 C83.03 24 80.06 24 77 24 C77 26.64 77 29.28 77 32 C68.42 32 59.84 32 51 32 C51 29.36 51 26.72 51 24 C37.14 24 23.28 24 9 24 C9 26.64 9 29.28 9 32 C6.03 32 3.06 32 0 32 C0 42.56 0 53.12 0 64 C-2.97 64 -5.94 64 -9 64 C-9 61.36 -9 58.72 -9 56 C-11.64 56 -14.28 56 -17 56 C-17 42.8 -17 29.6 -17 16 C-14.03 16 -11.06 16 -8 16 C-8 13.36 -8 10.72 -8 8 C-5.36 8 -2.72 8 0 8 C0 5.36 0 2.72 0 0 Z " fill="#FDFD00" transform="translate(162,104)"/>
<path d="M0 0 C2.97 0 5.94 0 9 0 C9 18.81 9 37.62 9 57 C5.7 57 2.4 57 -1 57 C-1 59.31 -1 61.62 -1 64 C-6.28 64 -11.56 64 -17 64 C-17 66.64 -17 69.28 -17 72 C-33.83 72 -50.66 72 -68 72 C-68 69.69 -68 67.38 -68 65 C-70.97 65 -73.94 65 -77 65 C-77 62.36 -77 59.72 -77 57 C-79.64 57 -82.28 57 -85 57 C-85 54.03 -85 51.06 -85 48 C-87.97 48 -90.94 48 -94 48 C-94 37.44 -94 26.88 -94 16 C-85.42 16 -76.84 16 -68 16 C-68 16.33 -68 16.66 -68 17 C-76.25 17 -84.5 17 -93 17 C-93 19.31 -93 21.62 -93 24 C-90.36 24 -87.72 24 -85 24 C-85 29.61 -85 35.22 -85 41 C-82.36 41 -79.72 41 -77 41 C-77 43.31 -77 45.62 -77 48 C-71.39 48 -65.78 48 -60 48 C-60 50.97 -60 53.94 -60 57 C-45.81 57 -31.62 57 -17 57 C-17 54.03 -17 51.06 -17 48 C-14.03 48 -11.06 48 -8 48 C-8 45.69 -8 43.38 -8 41 C-5.36 41 -2.72 41 0 41 C0 38.36 0 35.72 0 33 C2.64 33 5.28 33 8 33 C8 22.44 8 11.88 8 1 C5.36 1 2.72 1 0 1 C0 0.67 0 0.34 0 0 Z " fill="#818100" transform="translate(239,175)"/>
<path d="M0 0 C14.52 0 29.04 0 44 0 C44 2.31 44 4.62 44 7 C49.61 7 55.22 7 61 7 C61 15.25 61 23.5 61 32 C55.06 32 49.12 32 43 32 C43 29.36 43 26.72 43 24 C40.36 24 37.72 24 35 24 C35 21.36 35 18.72 35 16 C26.42 16 17.84 16 9 16 C9 18.64 9 21.28 9 24 C3.39 24 -2.22 24 -8 24 C-8 31.92 -8 39.84 -8 48 C-10.97 48 -13.94 48 -17 48 C-17 34.47 -17 20.94 -17 7 C-11.39 7 -5.78 7 0 7 C0 4.69 0 2.38 0 0 Z " fill="#BFBFBF" transform="translate(170,0)"/>
<path d="M0 0 C5.28 0 10.56 0 16 0 C16 4.95 16 9.9 16 15 C21.94 15 27.88 15 34 15 C34 22.92 34 30.84 34 39 C25.42 39 16.84 39 8 39 C8 36.69 8 34.38 8 32 C5.36 32 2.72 32 0 32 C0 34.31 0 36.62 0 39 C-5.61 39 -11.22 39 -17 39 C-18.125 31.125 -18.125 31.125 -18.09765625 27.59765625 C-18.09443359 26.85322266 -18.09121094 26.10878906 -18.08789062 25.34179688 C-18.07951172 24.58962891 -18.07113281 23.83746094 -18.0625 23.0625 C-18.05798828 22.28326172 -18.05347656 21.50402344 -18.04882812 20.70117188 C-18.03716908 18.80074732 -18.01923877 16.90036294 -18 15 C-15.36 15 -12.72 15 -10 15 C-10 12.69 -10 10.38 -10 8 C-6.7 8 -3.4 8 0 8 C0 5.36 0 2.72 0 0 Z " fill="#0E0080" transform="translate(120,208)"/>
<path d="M0 0 C22.77 0 45.54 0 69 0 C69 0.33 69 0.66 69 1 C46.56 1 24.12 1 1 1 C1 45.55 1 90.1 1 136 C3.64 136 6.28 136 9 136 C9 133.69 9 131.38 9 129 C31.44 129 53.88 129 77 129 C77 126.03 77 123.06 77 120 C79.97 120 82.94 120 86 120 C86 125.61 86 131.22 86 137 C83.03 137 80.06 137 77 137 C77 139.31 77 141.62 77 144 C51.59 144 26.18 144 0 144 C0 96.48 0 48.96 0 0 Z " fill="#870000" transform="translate(8,103)"/>
<path d="M0 0 C5.94 0 11.88 0 18 0 C18 18.48 18 36.96 18 56 C12.06 56 6.12 56 0 56 C0 53.36 0 50.72 0 48 C2.64 48 5.28 48 8 48 C8 45.36 8 42.72 8 40 C5.36 40 2.72 40 0 40 C0 26.8 0 13.6 0 0 Z " fill="#6400D1" transform="translate(179,136)"/>
<path d="M0 0 C2.97 0 5.94 0 9 0 C9 15.84 9 31.68 9 48 C6.03 48 3.06 48 0 48 C0 52.95 0 57.9 0 63 C-2.64 63 -5.28 63 -8 63 C-8 60.69 -8 58.38 -8 56 C-10.64 56 -13.28 56 -16 56 C-16 45.44 -16 34.88 -16 24 C-13.36 24 -10.72 24 -8 24 C-8 26.64 -8 29.28 -8 32 C-5.36 32 -2.72 32 0 32 C0 21.44 0 10.88 0 0 Z " fill="#1F00FE" transform="translate(85,136)"/>
<path d="M0 0 C5.28 0 10.56 0 16 0 C16 2.64 16 5.28 16 8 C13.36 8 10.72 8 8 8 C8 13.28 8 18.56 8 24 C2.06 24 -3.88 24 -10 24 C-10 26.64 -10 29.28 -10 32 C-18.25 32 -26.5 32 -35 32 C-35 26.39 -35 20.78 -35 15 C-23.78 15 -12.56 15 -1 15 C-0.67 10.05 -0.34 5.1 0 0 Z " fill="#820000" transform="translate(69,112)"/>
<path d="M0 0 C13.86 0 27.72 0 42 0 C42 2.64 42 5.28 42 8 C39.03 8 36.06 8 33 8 C33 12.95 33 17.9 33 23 C22.11 23 11.22 23 0 23 C0 20.69 0 18.38 0 16 C2.31 16 4.62 16 7 16 C7 13.36 7 10.72 7 8 C4.69 8 2.38 8 0 8 C0 5.36 0 2.72 0 0 Z " fill="#0C00FF" transform="translate(103,104)"/>
<path d="M0 0 C8.58 0 17.16 0 26 0 C26 29.37 26 58.74 26 89 C23.36 89 20.72 89 18 89 C18 59.96 18 30.92 18 1 C12.39 1 6.78 1 1 1 C1 6.28 1 11.56 1 17 C0.67 17 0.34 17 0 17 C0 11.39 0 5.78 0 0 Z " fill="#7C7C7C" transform="translate(102,7)"/>
<path d="M0 0 C2.97 0 5.94 0 9 0 C9 18.15 9 36.3 9 55 C0.42 55 -8.16 55 -17 55 C-17 52.36 -17 49.72 -17 47 C-11.72 47 -6.44 47 -1 47 C-1 44.69 -1 42.38 -1 40 C-3.64 40 -6.28 40 -9 40 C-9 37.36 -9 34.72 -9 32 C-6.03 32 -3.06 32 0 32 C0 21.44 0 10.88 0 0 Z " fill="#000000" transform="translate(162,136)"/>
<path d="M0 0 C14.52 0 29.04 0 44 0 C44 2.31 44 4.62 44 7 C49.61 7 55.22 7 61 7 C61 9.97 61 12.94 61 16 C55.06 16 49.12 16 43 16 C43 13.36 43 10.72 43 8 C29.14 8 15.28 8 1 8 C1 10.64 1 13.28 1 16 C-4.94 16 -10.88 16 -17 16 C-17 13.03 -17 10.06 -17 7 C-11.39 7 -5.78 7 0 7 C0 4.69 0 2.38 0 0 Z " fill="#030303" transform="translate(170,0)"/>
<path d="M0 0 C2.64 0 5.28 0 8 0 C8 8.25 8 16.5 8 25 C-3.22 25 -14.44 25 -26 25 C-26 26.98 -26 28.96 -26 31 C-34.25 31 -42.5 31 -51 31 C-51 28.69 -51 26.38 -51 24 C-43.08 24 -35.16 24 -27 24 C-27 19.05 -27 14.1 -27 9 C-24.36 9 -21.72 9 -19 9 C-19 11.31 -19 13.62 -19 16 C-12.73 16 -6.46 16 0 16 C0 10.72 0 5.44 0 0 Z " fill="#000000" transform="translate(231,16)"/>
<path d="M0 0 C2.64 0 5.28 0 8 0 C8 13.2 8 26.4 8 40 C10.64 40 13.28 40 16 40 C16 42.64 16 45.28 16 48 C13.36 48 10.72 48 8 48 C8 50.64 8 53.28 8 56 C10.64 56 13.28 56 16 56 C16 58.31 16 60.62 16 63 C10.72 63 5.44 63 0 63 C0 42.21 0 21.42 0 0 Z " fill="#78007E" transform="translate(171,136)"/>
<path d="M0 0 C2.64 0 5.28 0 8 0 C8 2.64 8 5.28 8 8 C10.97 8 13.94 8 17 8 C17 10.64 17 13.28 17 16 C14.03 16 11.06 16 8 16 C8 31.84 8 47.68 8 64 C5.36 64 2.72 64 0 64 C0 42.88 0 21.76 0 0 Z " fill="#7D7D7D" transform="translate(26,32)"/>
<path d="M0 0 C6.15234375 -0.09765625 6.15234375 -0.09765625 8 0 C9 1 9 1 9.09765625 2.84765625 C9.06510417 4.8984375 9.03255208 6.94921875 9 9 C11.31 9 13.62 9 16 9 C16 11.64 16 14.28 16 17 C13.69 17 11.38 17 9 17 C9 19.31 9 21.62 9 24 C19.89 24 30.78 24 42 24 C42 29.61 42 35.22 42 41 C39.36 41 36.72 41 34 41 C34 35.72 34 30.44 34 25 C25.42 25 16.84 25 8 25 C8 27.64 8 30.28 8 33 C5.36 33 2.72 33 0 33 C0 27.72 0 22.44 0 17 C-2.97 17 -5.94 17 -9 17 C-9 14.36 -9 11.72 -9 9 C-6.03 9 -3.06 9 0 9 C0 6.03 0 3.06 0 0 Z " fill="#D300FE" transform="translate(94,103)"/>
<path d="M0 0 C2.97 0 5.94 0 9 0 C9 2.31 9 4.62 9 7 C11.64 7 14.28 7 17 7 C17 15.25 17 23.5 17 32 C5.78 32 -5.44 32 -17 32 C-17 29.36 -17 26.72 -17 24 C-11.39 24 -5.78 24 0 24 C0 21.36 0 18.72 0 16 C2.97 16 5.94 16 9 16 C9 13.36 9 10.72 9 8 C6.03 8 3.06 8 0 8 C0 5.36 0 2.72 0 0 Z " fill="#7C7C00" transform="translate(239,112)"/>
<path d="M0 0 C5.28 0 10.56 0 16 0 C16 5.28 16 10.56 16 16 C18.97 16 21.94 16 25 16 C25 18.64 25 21.28 25 24 C13.78 24 2.56 24 -9 24 C-9 21.03 -9 18.06 -9 15 C-6.03 15 -3.06 15 0 15 C0 10.05 0 5.1 0 0 Z " fill="#DB00FE" transform="translate(120,208)"/>
<path d="M0 0 C19.8 0 39.6 0 60 0 C60 2.64 60 5.28 60 8 C40.2 8 20.4 8 0 8 C0 5.36 0 2.72 0 0 Z " fill="#000000" transform="translate(102,248)"/>
<path d="M0 0 C2.97 0 5.94 0 9 0 C9 15.84 9 31.68 9 48 C6.03 48 3.06 48 0 48 C0 32.16 0 16.32 0 0 Z " fill="#070081" transform="translate(85,136)"/>
<path d="M0 0 C2.64 0 5.28 0 8 0 C8 2.64 8 5.28 8 8 C13.94 8 19.88 8 26 8 C26 13.28 26 18.56 26 24 C20.06 24 14.12 24 8 24 C8 21.36 8 18.72 8 16 C5.36 16 2.72 16 0 16 C0 10.72 0 5.44 0 0 Z " fill="#BEBEBE" transform="translate(205,8)"/>
<path d="M0 0 C3.3 0 6.6 0 10 0 C10 2.31 10 4.62 10 7 C7.03 7 4.06 7 1 7 C1 9.97 1 12.94 1 16 C3.97 16 6.94 16 10 16 C10 20.95 10 25.9 10 31 C4.39 31 -1.22 31 -7 31 C-8.125 23.125 -8.125 23.125 -8.09765625 19.59765625 C-8.09443359 18.85322266 -8.09121094 18.10878906 -8.08789062 17.34179688 C-8.07951172 16.58962891 -8.07113281 15.83746094 -8.0625 15.0625 C-8.05798828 14.28326172 -8.05347656 13.50402344 -8.04882812 12.70117188 C-8.03716908 10.80074732 -8.01923877 8.90036294 -8 7 C-5.36 7 -2.72 7 0 7 C0 4.69 0 2.38 0 0 Z " fill="#25007F" transform="translate(110,216)"/>
<path d="M0 0 C2.97 0 5.94 0 9 0 C9 2.64 9 5.28 9 8 C6.36 8 3.72 8 1 8 C1 10.31 1 12.62 1 15 C3.97 15 6.94 15 10 15 C10 20.61 10 26.22 10 32 C4.06 32 -1.88 32 -8 32 C-8 29.36 -8 26.72 -8 24 C-5.36 24 -2.72 24 0 24 C0 21.36 0 18.72 0 16 C-2.64 16 -5.28 16 -8 16 C-8 13.36 -8 10.72 -8 8 C-5.36 8 -2.72 8 0 8 C0 5.36 0 2.72 0 0 Z " fill="#9000EE" transform="translate(187,160)"/>
<path d="M0 0 C5.94 0 11.88 0 18 0 C18 20.79 18 41.58 18 63 C15.03 63 12.06 63 9 63 C9 68.61 9 74.22 9 80 C3.39 80 -2.22 80 -8 80 C-8 79.67 -8 79.34 -8 79 C-5.36 79 -2.72 79 0 79 C0 73.72 0 68.44 0 63 C2.64 63 5.28 63 8 63 C7.979375 61.865625 7.95875 60.73125 7.9375 59.5625 C8 56 8 56 9 55 C11.64 55 14.28 55 17 55 C17 37.18 17 19.36 17 1 C11.72 1 6.44 1 1 1 C1 19.15 1 37.3 1 56 C0.67 56 0.34 56 0 56 C0 37.52 0 19.04 0 0 Z " fill="#9A0000" transform="translate(102,136)"/>
<path d="M0 0 C0.33 0 0.66 0 1 0 C1 4.95 1 9.9 1 15 C6.28 15 11.56 15 17 15 C17 20.61 17 26.22 17 32 C19.97 32 22.94 32 26 32 C26 39.92 26 47.84 26 56 C25.67 56 25.34 56 25 56 C25 53.36 25 50.72 25 48 C22.03 48 19.06 48 16 48 C16 42.72 16 37.44 16 32 C13.36 32 10.72 32 8 32 C8 26.72 8 21.44 8 16 C5.36 16 2.72 16 0 16 C0 10.72 0 5.44 0 0 Z " fill="#0D0D0D" transform="translate(43,8)"/>
<path d="M0 0 C3.3 0 6.6 0 10 0 C10 2.31 10 4.62 10 7 C14.95 7 19.9 7 25 7 C25 9.64 25 12.28 25 15 C14.44 15 3.88 15 -7 15 C-7.33 12.36 -7.66 9.72 -8 7 C-5.36 7 -2.72 7 0 7 C0 4.69 0 2.38 0 0 Z " fill="#000004" transform="translate(187,192)"/>
<path d="M0 0 C2.97 0 5.94 0 9 0 C9 5.28 9 10.56 9 16 C11.64 16 14.28 16 17 16 C17 18.64 17 21.28 17 24 C11.39 24 5.78 24 0 24 C0 16.08 0 8.16 0 0 Z " fill="#7E7E7E" transform="translate(162,24)"/>
<path d="M0 0 C5.61 0 11.22 0 17 0 C17 5.28 17 10.56 17 16 C11.39 16 5.78 16 0 16 C0 10.72 0 5.44 0 0 Z " fill="#E200FF" transform="translate(77,120)"/>
<path d="M0 0 C2.97 0 5.94 0 9 0 C9 2.31 9 4.62 9 7 C11.64 7 14.28 7 17 7 C17 15.25 17 23.5 17 32 C14.36 32 11.72 32 9 32 C9 24.08 9 16.16 9 8 C6.03 8 3.06 8 0 8 C0 5.36 0 2.72 0 0 Z " fill="#010100" transform="translate(239,112)"/>
<path d="M0 0 C11.22 0 22.44 0 34 0 C34 2.64 34 5.28 34 8 C22.78 8 11.56 8 0 8 C0 5.36 0 2.72 0 0 Z " fill="#C0C0C0" transform="translate(171,8)"/>
<path d="M0 0 C5.28 0 10.56 0 16 0 C16 2.64 16 5.28 16 8 C13.36 8 10.72 8 8 8 C8 13.28 8 18.56 8 24 C5.36 24 2.72 24 0 24 C0 16.08 0 8.16 0 0 Z " fill="#030006" transform="translate(69,112)"/>
<path d="M0 0 C2.64 0 5.28 0 8 0 C8 7.59 8 15.18 8 23 C5.36 23 2.72 23 0 23 C0 20.69 0 18.38 0 16 C-2.64 16 -5.28 16 -8 16 C-8 13.36 -8 10.72 -8 8 C-5.36 8 -2.72 8 0 8 C0 5.36 0 2.72 0 0 Z " fill="#0B00FC" transform="translate(77,176)"/>
<path d="M0 0 C2.64 0 5.28 0 8 0 C8 5.28 8 10.56 8 16 C-11.8 16 -31.6 16 -52 16 C-52 13.36 -52 10.72 -52 8 C-51.67 8 -51.34 8 -51 8 C-51 10.31 -51 12.62 -51 15 C-45.39 15 -39.78 15 -34 15 C-34 12.69 -34 10.38 -34 8 C-31.36 8 -28.72 8 -26 8 C-26 10.31 -26 12.62 -26 15 C-17.42 15 -8.84 15 0 15 C0 10.05 0 5.1 0 0 Z " fill="#120031" transform="translate(154,232)"/>
<path d="M0 0 C13.86 0 27.72 0 42 0 C42 5.61 42 11.22 42 17 C39.36 17 36.72 17 34 17 C34 11.72 34 6.44 34 1 C25.42 1 16.84 1 8 1 C8 3.64 8 6.28 8 9 C5.36 9 2.72 9 0 9 C0 6.03 0 3.06 0 0 Z " fill="#6A008B" transform="translate(94,127)"/>
<path d="M0 0 C2.97 0 5.94 0 9 0 C9 7.92 9 15.84 9 24 C6.03 24 3.06 24 0 24 C0 16.08 0 8.16 0 0 Z " fill="#780081" transform="translate(85,136)"/>
<path d="M0 0 C8.25 0 16.5 0 25 0 C25 2.64 25 5.28 25 8 C16.75 8 8.5 8 0 8 C0 5.36 0 2.72 0 0 Z " fill="#080081" transform="translate(120,232)"/>
<path d="M0 0 C2.64 0 5.28 0 8 0 C8 2.64 8 5.28 8 8 C10.97 8 13.94 8 17 8 C17 10.64 17 13.28 17 16 C14.03 16 11.06 16 8 16 C8 18.31 8 20.62 8 23 C5.36 23 2.72 23 0 23 C0 20.69 0 18.38 0 16 C2.31 16 4.62 16 7 16 C7 13.36 7 10.72 7 8 C4.69 8 2.38 8 0 8 C0 5.36 0 2.72 0 0 Z " fill="#D600FF" transform="translate(103,104)"/>
<path d="M0 0 C2.64 0 5.28 0 8 0 C8 8.25 8 16.5 8 25 C5.36 25 2.72 25 0 25 C0 16.75 0 8.5 0 0 Z " fill="#000000" transform="translate(231,64)"/>
<path d="M0 0 C2.64 0 5.28 0 8 0 C8 7.92 8 15.84 8 24 C5.36 24 2.72 24 0 24 C0 16.08 0 8.16 0 0 Z " fill="#07007E" transform="translate(171,136)"/>
<path d="M0 0 C2.64 0 5.28 0 8 0 C8 7.92 8 15.84 8 24 C5.36 24 2.72 24 0 24 C0 16.08 0 8.16 0 0 Z " fill="#818181" transform="translate(222,64)"/>
<path d="M0 0 C2.97 0 5.94 0 9 0 C9 4.95 9 9.9 9 15 C6.03 15 3.06 15 0 15 C0 17.97 0 20.94 0 24 C-11.22 24 -22.44 24 -34 24 C-34 21.36 -34 18.72 -34 16 C-33.67 16 -33.34 16 -33 16 C-33 18.31 -33 20.62 -33 23 C-22.44 23 -11.88 23 -1 23 C-1 18.05 -1 13.1 -1 8 C-0.72924102 5.3262551 -0.43302897 2.65230242 0 0 Z " fill="#070700" transform="translate(213,184)"/>
<path d="M0 0 C0.33 0 0.66 0 1 0 C1 10.23 1 20.46 1 31 C3.64 31 6.28 31 9 31 C9 33.97 9 36.94 9 40 C11.64 40 14.28 40 17 40 C17 42.64 17 45.28 17 48 C14.03 48 11.06 48 8 48 C8 45.36 8 42.72 8 40 C5.36 40 2.72 40 0 40 C0 26.8 0 13.6 0 0 Z " fill="#8A8A00" transform="translate(145,120)"/>
<path d="M0 0 C8.58 0 17.16 0 26 0 C26 2.31 26 4.62 26 7 C17.42 7 8.84 7 0 7 C0 4.69 0 2.38 0 0 Z " fill="#BEBEBE" transform="translate(171,48)"/>
<path d="M0 0 C2.64 0 5.28 0 8 0 C8 2.64 8 5.28 8 8 C10.64 8 13.28 8 16 8 C16 10.31 16 12.62 16 15 C10.72 15 5.44 15 0 15 C0 10.05 0 5.1 0 0 Z " fill="#01007B" transform="translate(171,184)"/>
<path d="M0 0 C0.33 0 0.66 0 1 0 C1 2.64 1 5.28 1 8 C3.64 8 6.28 8 9 8 C9 10.64 9 13.28 9 16 C11.64 16 14.28 16 17 16 C17 18.64 17 21.28 17 24 C14.36 24 11.72 24 9 24 C9 26.64 9 29.28 9 32 C8.67 32 8.34 32 8 32 C8 27.05 8 22.1 8 17 C5.36 17 2.72 17 0 17 C0 11.39 0 5.78 0 0 Z " fill="#0E0E0E" transform="translate(196,56)"/>
<path d="M0 0 C5.94 0 11.88 0 18 0 C18 5.28 18 10.56 18 16 C12.06 16 6.12 16 0 16 C0 15.67 0 15.34 0 15 C2.97 15 5.94 15 9 15 C9 10.38 9 5.76 9 1 C6.03 1 3.06 1 0 1 C0 0.67 0 0.34 0 0 Z " fill="#767676" transform="translate(213,16)"/>
<path d="M0 0 C5.28 0 10.56 0 16 0 C16 2.97 16 5.94 16 9 C10.72 9 5.44 9 0 9 C0 6.03 0 3.06 0 0 Z " fill="#000000" transform="translate(223,103)"/>
<path d="M0 0 C2.97 0 5.94 0 9 0 C9 18.48 9 36.96 9 56 C8.67 56 8.34 56 8 56 C8 40.16 8 24.32 8 8 C5.69 8 3.38 8 1 8 C1 10.64 1 13.28 1 16 C-1.97 16 -4.94 16 -8 16 C-8 15.67 -8 15.34 -8 15 C-5.36 15 -2.72 15 0 15 C0 10.05 0 5.1 0 0 Z " fill="#6D6D6D" transform="translate(102,40)"/>
<path d="M0 0 C2.97 0 5.94 0 9 0 C9 4.95 9 9.9 9 15 C6.03 15 3.06 15 0 15 C0 10.05 0 5.1 0 0 Z " fill="#000000" transform="translate(60,40)"/>
<path d="M0 0 C16.83 0 33.66 0 51 0 C51 2.97 51 5.94 51 9 C48.03 9 45.06 9 42 9 C42 6.36 42 3.72 42 1 C28.14 1 14.28 1 0 1 C0 0.67 0 0.34 0 0 Z " fill="#858500" transform="translate(171,127)"/>
<path d="M0 0 C2.31 0 4.62 0 7 0 C7 5.61 7 11.22 7 17 C4.69 17 2.38 17 0 17 C0 11.39 0 5.78 0 0 Z " fill="#000000" transform="translate(69,55)"/>
<path d="M0 0 C8.58 0 17.16 0 26 0 C26 2.64 26 5.28 26 8 C23.36 8 20.72 8 18 8 C18 5.69 18 3.38 18 1 C12.39 1 6.78 1 1 1 C1 11.23 1 21.46 1 32 C0.67 32 0.34 32 0 32 C0 21.44 0 10.88 0 0 Z " fill="#737373" transform="translate(153,16)"/>
<path d="M0 0 C3.3 0 6.6 0 10 0 C10 2.31 10 4.62 10 7 C1.585 7.495 1.585 7.495 -7 8 C-7 12.95 -7 17.9 -7 23 C-7.33 23 -7.66 23 -8 23 C-8 17.72 -8 12.44 -8 7 C-5.36 7 -2.72 7 0 7 C0 4.69 0 2.38 0 0 Z " fill="#900000" transform="translate(110,192)"/>
<path d="M0 0 C2.64 0 5.28 0 8 0 C8 2.64 8 5.28 8 8 C-3.22 8 -14.44 8 -26 8 C-26 7.67 -26 7.34 -26 7 C-17.42 7 -8.84 7 0 7 C0 4.69 0 2.38 0 0 Z " fill="#7C7C7C" transform="translate(197,48)"/>
<path d="M0 0 C2.97 0 5.94 0 9 0 C9 2.97 9 5.94 9 9 C6.03 9 3.06 9 0 9 C0 6.03 0 3.06 0 0 Z " fill="#080080" transform="translate(85,175)"/>
<path d="M0 0 C0.33 0 0.66 0 1 0 C1 2.64 1 5.28 1 8 C3.64 8 6.28 8 9 8 C9 10.64 9 13.28 9 16 C6.03 16 3.06 16 0 16 C0 10.72 0 5.44 0 0 Z " fill="#868686" transform="translate(68,64)"/>
<path d="M0 0 C2.97 0 5.94 0 9 0 C9 2.64 9 5.28 9 8 C6.03 8 3.06 8 0 8 C0 5.36 0 2.72 0 0 Z " fill="#780081" transform="translate(136,232)"/>
<path d="M0 0 C2.64 0 5.28 0 8 0 C8 2.97 8 5.94 8 9 C5.36 9 2.72 9 0 9 C0 6.03 0 3.06 0 0 Z " fill="#0B0B00" transform="translate(146,223)"/>
<path d="M0 0 C2.97 0 5.94 0 9 0 C9 2.64 9 5.28 9 8 C6.03 8 3.06 8 0 8 C0 5.36 0 2.72 0 0 Z " fill="#0600FE" transform="translate(136,224)"/>
<path d="M0 0 C2.97 0 5.94 0 9 0 C9 2.64 9 5.28 9 8 C6.03 8 3.06 8 0 8 C0 5.36 0 2.72 0 0 Z " fill="#7D7D00" transform="translate(213,184)"/>
<path d="M0 0 C2.97 0 5.94 0 9 0 C9 2.64 9 5.28 9 8 C6.03 8 3.06 8 0 8 C0 5.36 0 2.72 0 0 Z " fill="#0300ED" transform="translate(188,184)"/>
<path d="M0 0 C2.64 0 5.28 0 8 0 C8 2.97 8 5.94 8 9 C5.36 9 2.72 9 0 9 C0 6.03 0 3.06 0 0 Z " fill="#868600" transform="translate(205,175)"/>
<path d="M0 0 C2.97 0 5.94 0 9 0 C9 2.64 9 5.28 9 8 C6.03 8 3.06 8 0 8 C0 5.36 0 2.72 0 0 Z " fill="#747400" transform="translate(153,160)"/>
<path d="M0 0 C2.97 0 5.94 0 9 0 C9 2.64 9 5.28 9 8 C6.03 8 3.06 8 0 8 C0 5.36 0 2.72 0 0 Z " fill="#7A0083" transform="translate(85,136)"/>
<path d="M0 0 C2.97 0 5.94 0 9 0 C9 2.64 9 5.28 9 8 C6.03 8 3.06 8 0 8 C0 5.36 0 2.72 0 0 Z " fill="#0100FF" transform="translate(85,128)"/>
<path d="M0 0 C2.97 0 5.94 0 9 0 C9 2.64 9 5.28 9 8 C6.03 8 3.06 8 0 8 C0 5.36 0 2.72 0 0 Z " fill="#0F0F08" transform="translate(145,112)"/>
<path d="M0 0 C2.97 0 5.94 0 9 0 C9 2.64 9 5.28 9 8 C6.03 8 3.06 8 0 8 C0 5.36 0 2.72 0 0 Z " fill="#0B0083" transform="translate(136,112)"/>
<path d="M0 0 C2.97 0 5.94 0 9 0 C9 2.64 9 5.28 9 8 C6.03 8 3.06 8 0 8 C0 5.36 0 2.72 0 0 Z " fill="#0500F7" transform="translate(85,112)"/>
<path d="M0 0 C2.97 0 5.94 0 9 0 C9 2.64 9 5.28 9 8 C6.03 8 3.06 8 0 8 C0 5.36 0 2.72 0 0 Z " fill="#F900FF" transform="translate(136,104)"/>
<path d="M0 0 C2.97 0 5.94 0 9 0 C9 2.64 9 5.28 9 8 C6.03 8 3.06 8 0 8 C0 5.36 0 2.72 0 0 Z " fill="#0500FF" transform="translate(111,104)"/>
<path d="M0 0 C2.64 0 5.28 0 8 0 C8 2.97 8 5.94 8 9 C5.36 9 2.72 9 0 9 C0 6.03 0 3.06 0 0 Z " fill="#0000E9" transform="translate(94,103)"/>
<path d="M0 0 C2.97 0 5.94 0 9 0 C9 2.64 9 5.28 9 8 C6.03 8 3.06 8 0 8 C0 5.36 0 2.72 0 0 Z " fill="#808080" transform="translate(213,88)"/>
<path d="M0 0 C2.97 0 5.94 0 9 0 C9 2.64 9 5.28 9 8 C6.03 8 3.06 8 0 8 C0 5.36 0 2.72 0 0 Z " fill="#818181" transform="translate(213,56)"/>
<path d="M0 0 C2.97 0 5.94 0 9 0 C9 2.64 9 5.28 9 8 C6.03 8 3.06 8 0 8 C0 5.36 0 2.72 0 0 Z " fill="#838383" transform="translate(59,56)"/>
<path d="M0 0 C2.64 0 5.28 0 8 0 C8 2.97 8 5.94 8 9 C5.36 9 2.72 9 0 9 C0 6.03 0 3.06 0 0 Z " fill="#000000" transform="translate(223,55)"/>
<path d="M0 0 C2.97 0 5.94 0 9 0 C9 2.64 9 5.28 9 8 C6.03 8 3.06 8 0 8 C0 5.36 0 2.72 0 0 Z " fill="#7F7F7F" transform="translate(34,8)"/>
<path d="M0 0 C2.64 0 5.28 0 8 0 C8 2.64 8 5.28 8 8 C5.36 8 2.72 8 0 8 C0 5.36 0 2.72 0 0 Z " fill="#040404" transform="translate(154,232)"/>
<path d="M0 0 C2.64 0 5.28 0 8 0 C8 2.64 8 5.28 8 8 C5.36 8 2.72 8 0 8 C0 5.36 0 2.72 0 0 Z " fill="#790081" transform="translate(120,232)"/>
<path d="M0 0 C2.64 0 5.28 0 8 0 C8 2.64 8 5.28 8 8 C5.36 8 2.72 8 0 8 C0 5.36 0 2.72 0 0 Z " fill="#FB00FE" transform="translate(128,224)"/>
<path d="M0 0 C2.64 0 5.28 0 8 0 C8 2.64 8 5.28 8 8 C5.36 8 2.72 8 0 8 C0 5.36 0 2.72 0 0 Z " fill="#0200FE" transform="translate(120,224)"/>
<path d="M0 0 C2.64 0 5.28 0 8 0 C8 2.64 8 5.28 8 8 C5.36 8 2.72 8 0 8 C0 5.36 0 2.72 0 0 Z " fill="#0D00FE" transform="translate(103,224)"/>
<path d="M0 0 C2.64 0 5.28 0 8 0 C8 2.64 8 5.28 8 8 C5.36 8 2.72 8 0 8 C0 5.36 0 2.72 0 0 Z " fill="#F100FB" transform="translate(128,208)"/>
<path d="M0 0 C2.64 0 5.28 0 8 0 C8 2.64 8 5.28 8 8 C5.36 8 2.72 8 0 8 C0 5.36 0 2.72 0 0 Z " fill="#0A00FB" transform="translate(120,208)"/>
<path d="M0 0 C2.64 0 5.28 0 8 0 C8 2.64 8 5.28 8 8 C5.36 8 2.72 8 0 8 C0 5.36 0 2.72 0 0 Z " fill="#EE00F7" transform="translate(69,184)"/>
<path d="M0 0 C2.64 0 5.28 0 8 0 C8 2.64 8 5.28 8 8 C5.36 8 2.72 8 0 8 C0 5.36 0 2.72 0 0 Z " fill="#FE00FF" transform="translate(188,176)"/>
<path d="M0 0 C2.64 0 5.28 0 8 0 C8 2.64 8 5.28 8 8 C5.36 8 2.72 8 0 8 C0 5.36 0 2.72 0 0 Z " fill="#0300FB" transform="translate(179,176)"/>
<path d="M0 0 C2.64 0 5.28 0 8 0 C8 2.64 8 5.28 8 8 C5.36 8 2.72 8 0 8 C0 5.36 0 2.72 0 0 Z " fill="#FC00FD" transform="translate(77,176)"/>
<path d="M0 0 C2.64 0 5.28 0 8 0 C8 2.64 8 5.28 8 8 C5.36 8 2.72 8 0 8 C0 5.36 0 2.72 0 0 Z " fill="#F400FF" transform="translate(188,160)"/>
<path d="M0 0 C2.64 0 5.28 0 8 0 C8 2.64 8 5.28 8 8 C5.36 8 2.72 8 0 8 C0 5.36 0 2.72 0 0 Z " fill="#0D00FB" transform="translate(179,160)"/>
<path d="M0 0 C2.64 0 5.28 0 8 0 C8 2.64 8 5.28 8 8 C5.36 8 2.72 8 0 8 C0 5.36 0 2.72 0 0 Z " fill="#79007E" transform="translate(171,160)"/>
<path d="M0 0 C2.64 0 5.28 0 8 0 C8 2.64 8 5.28 8 8 C5.36 8 2.72 8 0 8 C0 5.36 0 2.72 0 0 Z " fill="#F200FE" transform="translate(77,160)"/>
<path d="M0 0 C2.64 0 5.28 0 8 0 C8 2.64 8 5.28 8 8 C5.36 8 2.72 8 0 8 C0 5.36 0 2.72 0 0 Z " fill="#1000FF" transform="translate(69,160)"/>
<path d="M0 0 C2.64 0 5.28 0 8 0 C8 2.64 8 5.28 8 8 C5.36 8 2.72 8 0 8 C0 5.36 0 2.72 0 0 Z " fill="#0000FF" transform="translate(188,152)"/>
<path d="M0 0 C2.64 0 5.28 0 8 0 C8 2.64 8 5.28 8 8 C5.36 8 2.72 8 0 8 C0 5.36 0 2.72 0 0 Z " fill="#F800FB" transform="translate(179,152)"/>
<path d="M0 0 C2.64 0 5.28 0 8 0 C8 2.64 8 5.28 8 8 C5.36 8 2.72 8 0 8 C0 5.36 0 2.72 0 0 Z " fill="#0100FE" transform="translate(77,152)"/>
<path d="M0 0 C2.64 0 5.28 0 8 0 C8 2.64 8 5.28 8 8 C5.36 8 2.72 8 0 8 C0 5.36 0 2.72 0 0 Z " fill="#F800FF" transform="translate(69,152)"/>
<path d="M0 0 C2.64 0 5.28 0 8 0 C8 2.64 8 5.28 8 8 C5.36 8 2.72 8 0 8 C0 5.36 0 2.72 0 0 Z " fill="#0500F9" transform="translate(188,136)"/>
<path d="M0 0 C2.64 0 5.28 0 8 0 C8 2.64 8 5.28 8 8 C5.36 8 2.72 8 0 8 C0 5.36 0 2.72 0 0 Z " fill="#EE00F6" transform="translate(179,136)"/>
<path d="M0 0 C2.64 0 5.28 0 8 0 C8 2.64 8 5.28 8 8 C5.36 8 2.72 8 0 8 C0 5.36 0 2.72 0 0 Z " fill="#02007C" transform="translate(171,136)"/>
<path d="M0 0 C2.64 0 5.28 0 8 0 C8 2.64 8 5.28 8 8 C5.36 8 2.72 8 0 8 C0 5.36 0 2.72 0 0 Z " fill="#02007C" transform="translate(128,136)"/>
<path d="M0 0 C2.64 0 5.28 0 8 0 C8 2.64 8 5.28 8 8 C5.36 8 2.72 8 0 8 C0 5.36 0 2.72 0 0 Z " fill="#0B00FE" transform="translate(77,136)"/>
<path d="M0 0 C2.64 0 5.28 0 8 0 C8 2.64 8 5.28 8 8 C5.36 8 2.72 8 0 8 C0 5.36 0 2.72 0 0 Z " fill="#EE00FA" transform="translate(69,136)"/>
<path d="M0 0 C2.64 0 5.28 0 8 0 C8 2.64 8 5.28 8 8 C5.36 8 2.72 8 0 8 C0 5.36 0 2.72 0 0 Z " fill="#F200FF" transform="translate(128,112)"/>
<path d="M0 0 C2.64 0 5.28 0 8 0 C8 2.64 8 5.28 8 8 C5.36 8 2.72 8 0 8 C0 5.36 0 2.72 0 0 Z " fill="#020007" transform="translate(77,112)"/>
<path d="M0 0 C2.64 0 5.28 0 8 0 C8 2.64 8 5.28 8 8 C5.36 8 2.72 8 0 8 C0 5.36 0 2.72 0 0 Z " fill="#7C0000" transform="translate(69,112)"/>
<path d="M0 0 C2.64 0 5.28 0 8 0 C8 2.64 8 5.28 8 8 C5.36 8 2.72 8 0 8 C0 5.36 0 2.72 0 0 Z " fill="#0C0087" transform="translate(145,104)"/>
<path d="M0 0 C2.64 0 5.28 0 8 0 C8 2.64 8 5.28 8 8 C5.36 8 2.72 8 0 8 C0 5.36 0 2.72 0 0 Z " fill="#0100FF" transform="translate(128,104)"/>
<path d="M0 0 C2.64 0 5.28 0 8 0 C8 2.64 8 5.28 8 8 C5.36 8 2.72 8 0 8 C0 5.36 0 2.72 0 0 Z " fill="#FD00FF" transform="translate(120,104)"/>
<path d="M0 0 C2.64 0 5.28 0 8 0 C8 2.64 8 5.28 8 8 C5.36 8 2.72 8 0 8 C0 5.36 0 2.72 0 0 Z " fill="#7F0000" transform="translate(77,104)"/>
<path d="M0 0 C2.64 0 5.28 0 8 0 C8 2.64 8 5.28 8 8 C5.36 8 2.72 8 0 8 C0 5.36 0 2.72 0 0 Z " fill="#7E7E7E" transform="translate(51,40)"/>
<path d="M0 0 C2.64 0 5.28 0 8 0 C8 2.64 8 5.28 8 8 C5.36 8 2.72 8 0 8 C0 5.36 0 2.72 0 0 Z " fill="#828282" transform="translate(43,24)"/>
<path d="M0 0 C2.64 0 5.28 0 8 0 C8 2.64 8 5.28 8 8 C5.36 8 2.72 8 0 8 C0 5.36 0 2.72 0 0 Z " fill="#7F7F7F" transform="translate(205,8)"/>
<path d="M0 0 C2.97 0 5.94 0 9 0 C9 2.31 9 4.62 9 7 C6.03 7 3.06 7 0 7 C0 4.69 0 2.38 0 0 Z " fill="#7E0080" transform="translate(111,240)"/>
<path d="M0 0 C2.97 0 5.94 0 9 0 C9 2.31 9 4.62 9 7 C6.03 7 3.06 7 0 7 C0 4.69 0 2.38 0 0 Z " fill="#0500FF" transform="translate(111,216)"/>
<path d="M0 0 C2.97 0 5.94 0 9 0 C9 2.31 9 4.62 9 7 C6.03 7 3.06 7 0 7 C0 4.69 0 2.38 0 0 Z " fill="#0000F4" transform="translate(188,168)"/>
<path d="M0 0 C2.97 0 5.94 0 9 0 C9 2.31 9 4.62 9 7 C6.03 7 3.06 7 0 7 C0 4.69 0 2.38 0 0 Z " fill="#800081" transform="translate(85,168)"/>
<path d="M0 0 C2.97 0 5.94 0 9 0 C9 2.31 9 4.62 9 7 C6.03 7 3.06 7 0 7 C0 4.69 0 2.38 0 0 Z " fill="#010081" transform="translate(85,144)"/>
<path d="M0 0 C2.97 0 5.94 0 9 0 C9 2.31 9 4.62 9 7 C6.03 7 3.06 7 0 7 C0 4.69 0 2.38 0 0 Z " fill="#0500FF" transform="translate(111,120)"/>
<path d="M0 0 C2.97 0 5.94 0 9 0 C9 2.31 9 4.62 9 7 C6.03 7 3.06 7 0 7 C0 4.69 0 2.38 0 0 Z " fill="#FD00FF" transform="translate(85,120)"/>
<path d="M0 0 C2.64 0 5.28 0 8 0 C8 2.64 8 5.28 8 8 C5.66705225 8.04241723 3.33297433 8.04092937 1 8 C0 7 0 7 -0.0625 3.4375 C-0.041875 2.303125 -0.02125 1.16875 0 0 Z " fill="#000000" transform="translate(223,89)"/>
<path d="M0 0 C2.64 0 5.28 0 8 0 C8 2.64 8 5.28 8 8 C5.36 7.67 2.72 7.34 0 7 C0 4.69 0 2.38 0 0 Z " fill="#000078" transform="translate(146,232)"/>
<path d="M0 0 C2.64 0 5.28 0 8 0 C8 2.31 8 4.62 8 7 C5.36 7 2.72 7 0 7 C0 4.69 0 2.38 0 0 Z " fill="#00007D" transform="translate(154,240)"/>
<path d="M0 0 C2.64 0 5.28 0 8 0 C8 2.31 8 4.62 8 7 C5.36 7 2.72 7 0 7 C0 4.69 0 2.38 0 0 Z " fill="#7B0080" transform="translate(146,240)"/>
<path d="M0 0 C2.64 0 5.28 0 8 0 C8 2.31 8 4.62 8 7 C5.36 7 2.72 7 0 7 C0 4.69 0 2.38 0 0 Z " fill="#800080" transform="translate(128,240)"/>
<path d="M0 0 C2.64 0 5.28 0 8 0 C8 2.31 8 4.62 8 7 C5.36 7 2.72 7 0 7 C0 4.69 0 2.38 0 0 Z " fill="#000080" transform="translate(120,240)"/>
<path d="M0 0 C2.64 0 5.28 0 8 0 C8 2.31 8 4.62 8 7 C5.36 7 2.72 7 0 7 C0 4.69 0 2.38 0 0 Z " fill="#0100FF" transform="translate(128,216)"/>
<path d="M0 0 C2.64 0 5.28 0 8 0 C8 2.31 8 4.62 8 7 C5.36 7 2.72 7 0 7 C0 4.69 0 2.38 0 0 Z " fill="#FD00FF" transform="translate(120,216)"/>
<path d="M0 0 C2.64 0 5.28 0 8 0 C8 2.31 8 4.62 8 7 C5.36 7 2.72 7 0 7 C0 4.69 0 2.38 0 0 Z " fill="#0000F8" transform="translate(179,192)"/>
<path d="M0 0 C2.64 0 5.28 0 8 0 C8 2.31 8 4.62 8 7 C5.36 7 2.72 7 0 7 C0 4.69 0 2.38 0 0 Z " fill="#010100" transform="translate(171,192)"/>
<path d="M0 0 C2.64 0 5.28 0 8 0 C8 2.31 8 4.62 8 7 C5.36 7 2.72 7 0 7 C0 4.69 0 2.38 0 0 Z " fill="#FD00FD" transform="translate(77,192)"/>
<path d="M0 0 C2.64 0 5.28 0 8 0 C8 2.31 8 4.62 8 7 C5.36 7 2.72 7 0 7 C0 4.69 0 2.38 0 0 Z " fill="#F800FB" transform="translate(179,168)"/>
<path d="M0 0 C2.64 0 5.28 0 8 0 C8 2.31 8 4.62 8 7 C5.36 7 2.72 7 0 7 C0 4.69 0 2.38 0 0 Z " fill="#00007E" transform="translate(171,168)"/>
<path d="M0 0 C2.64 0 5.28 0 8 0 C8 2.31 8 4.62 8 7 C5.36 7 2.72 7 0 7 C0 4.69 0 2.38 0 0 Z " fill="#0000FE" transform="translate(77,168)"/>
<path d="M0 0 C2.64 0 5.28 0 8 0 C8 2.31 8 4.62 8 7 C5.36 7 2.72 7 0 7 C0 4.69 0 2.38 0 0 Z " fill="#F800FF" transform="translate(69,168)"/>
<path d="M0 0 C2.64 0 5.28 0 8 0 C8 2.31 8 4.62 8 7 C5.36 7 2.72 7 0 7 C0 4.69 0 2.38 0 0 Z " fill="#FF00FF" transform="translate(188,144)"/>
<path d="M0 0 C2.64 0 5.28 0 8 0 C8 2.31 8 4.62 8 7 C5.36 7 2.72 7 0 7 C0 4.69 0 2.38 0 0 Z " fill="#0300FB" transform="translate(179,144)"/>
<path d="M0 0 C2.64 0 5.28 0 8 0 C8 2.31 8 4.62 8 7 C5.36 7 2.72 7 0 7 C0 4.69 0 2.38 0 0 Z " fill="#7F007E" transform="translate(171,144)"/>
<path d="M0 0 C2.64 0 5.28 0 8 0 C8 2.31 8 4.62 8 7 C5.36 7 2.72 7 0 7 C0 4.69 0 2.38 0 0 Z " fill="#FD00FE" transform="translate(77,144)"/>
<path d="M0 0 C2.31 0 4.62 0 7 0 C7 2.64 7 5.28 7 8 C4.69 8 2.38 8 0 8 C0 5.36 0 2.72 0 0 Z " fill="#81007F" transform="translate(95,128)"/>
<path d="M0 0 C2.64 0 5.28 0 8 0 C8 2.31 8 4.62 8 7 C5.36 7 2.72 7 0 7 C0 4.69 0 2.38 0 0 Z " fill="#0200FF" transform="translate(128,120)"/>
<path d="M0 0 C2.64 0 5.28 0 8 0 C8 2.31 8 4.62 8 7 C5.36 7 2.72 7 0 7 C0 4.69 0 2.38 0 0 Z " fill="#FD00FF" transform="translate(120,120)"/>
<path d="M0 0 C2.64 0 5.28 0 8 0 C8 2.31 8 4.62 8 7 C5.36 7 2.72 7 0 7 C0 4.69 0 2.38 0 0 Z " fill="#0600FF" transform="translate(94,120)"/>
<path d="M0 0 C2.64 0 5.28 0 8 0 C8 2.31 8 4.62 8 7 C5.36 7 2.72 7 0 7 C0 4.69 0 2.38 0 0 Z " fill="#0100FE" transform="translate(77,120)"/>
<path d="M0 0 C2.31 0 4.62 0 7 0 C7 2.64 7 5.28 7 8 C4.69 8 2.38 8 0 8 C0 5.36 0 2.72 0 0 Z " fill="#0A00FF" transform="translate(103,112)"/>
<path d="M0 0 C2.31 0 4.62 0 7 0 C7 2.64 7 5.28 7 8 C4.69 8 2.38 8 0 8 C0 5.36 0 2.72 0 0 Z " fill="#FF00FF" transform="translate(103,104)"/>
<path d="M0 0 C2.31 0 4.62 0 7 0 C7 2.31 7 4.62 7 7 C4.69 7 2.38 7 0 7 C0 4.69 0 2.38 0 0 Z " fill="#000081" transform="translate(103,240)"/>
<path d="M0 0 C2.31 0 4.62 0 7 0 C7 2.31 7 4.62 7 7 C4.69 7 2.38 7 0 7 C0 4.69 0 2.38 0 0 Z " fill="#800082" transform="translate(103,232)"/>
<path d="M0 0 C2.31 0 4.62 0 7 0 C7 2.31 7 4.62 7 7 C4.69 7 2.38 7 0 7 C0 4.69 0 2.38 0 0 Z " fill="#FA00FF" transform="translate(180,184)"/>
<path d="M0 0 C2.64 0 5.28 0 8 0 C8 1.98 8 3.96 8 6 C5.36 6 2.72 6 0 6 C0 4.02 0 2.04 0 0 Z " fill="#000080" transform="translate(111,233)"/>
<path d="M0 0 C2.64 0 5.28 0 8 0 C8 1.98 8 3.96 8 6 C5.36 6 2.72 6 0 6 C0 4.02 0 2.04 0 0 Z " fill="#FF00FF" transform="translate(111,113)"/>
</svg>
