<?xml version="1.0" encoding="UTF-8"?>
<svg version="1.1" xmlns="http://www.w3.org/2000/svg" width="224" height="224">
<path d="M0 0 C73.92 0 147.84 0 224 0 C224 73.92 224 147.84 224 224 C150.08 224 76.16 224 0 224 C0 150.08 0 76.16 0 0 Z " fill="#299BE8" transform="translate(0,0)"/>
<path d="M0 0 C4.93153395 0.01064762 9.86307432 0.01488153 14.7946167 0.01983643 C24.29398058 0.03023577 33.793319 0.04704918 43.29266357 0.06866455 C43.50694467 48.74343876 42.87123589 97.39626837 42.29266357 146.06866455 C-5.22733643 146.06866455 -52.74733643 146.06866455 -101.70733643 146.06866455 C-101.70733643 98.21866455 -101.70733643 50.36866455 -101.70733643 1.06866455 C-67.7820628 0.47348431 -33.9203182 -0.08179253 0 0 Z " fill="#FAFAFA" transform="translate(140.70733642578125,32.93133544921875)"/>
<path d="M0 0 C1.3366259 0.00933643 2.67326902 0.01644863 4.00991821 0.0214386 C7.51202415 0.04044404 11.01307771 0.08948554 14.51477051 0.1449585 C18.09433763 0.19629266 21.67407639 0.2189826 25.25390625 0.24414062 C32.26605474 0.29761327 39.27750797 0.38284542 46.2890625 0.48828125 C47.34482855 44.50193227 47.36754599 88.45904257 47.2890625 132.48828125 C3.0690625 132.48828125 -41.1509375 132.48828125 -86.7109375 132.48828125 C-86.2159375 130.50828125 -86.2159375 130.50828125 -85.7109375 128.48828125 C-84.2259375 127.99328125 -84.2259375 127.99328125 -82.7109375 127.48828125 C-82.30797958 126.65971367 -82.30797958 126.65971367 -81.8968811 125.81440735 C-80.14977866 122.38761659 -77.4409735 119.94912841 -74.73583984 117.27026367 C-73.8183345 116.34991081 -73.8183345 116.34991081 -72.8822937 115.41096497 C-70.85867434 113.38364132 -68.82794163 111.36361047 -66.796875 109.34375 C-65.3836378 107.93170564 -63.97077086 106.5192906 -62.55825806 105.10652161 C-59.59384263 102.14367082 -56.62609772 99.18420993 -53.65576172 96.22729492 C-49.86473396 92.45318687 -46.08025122 88.67260061 -42.29805565 84.88964367 C-39.37797312 81.96983442 -36.45528058 79.05264953 -33.53172684 76.1363163 C-32.13661404 74.74436788 -30.7420904 73.35182867 -29.34818649 71.95866966 C-16.90099101 59.52539496 -16.90099101 59.52539496 -10.67251587 54.22648621 C-6.05724318 50.13677458 -1.77752241 45.6752284 2.5703125 41.3046875 C3.63483022 40.2383004 4.69957212 39.17213706 5.76452637 38.10618591 C8.54170083 35.32522718 11.31585675 32.54127681 14.08935547 29.75665283 C16.93011888 26.90558645 19.77378122 24.05741456 22.6171875 21.20898438 C28.1772908 15.63821607 33.73420268 10.06427806 39.2890625 4.48828125 C7.44505373 0.28627504 7.44505373 0.28627504 -21.68359375 8.94140625 C-26.58188749 13.49087961 -30.5264847 18.61169596 -33.7109375 24.48828125 C-34.3709375 24.15828125 -35.0309375 23.82828125 -35.7109375 23.48828125 C-33.38708253 20.81323276 -31.05069205 18.14943066 -28.7109375 15.48828125 C-27.96585938 14.63621094 -27.22078125 13.78414062 -26.453125 12.90625 C-25.69257812 12.04644531 -24.93203125 11.18664062 -24.1484375 10.30078125 C-23.09462891 9.10388672 -23.09462891 9.10388672 -22.01953125 7.8828125 C-21.25769531 7.09261719 -20.49585937 6.30242188 -19.7109375 5.48828125 C-18.95611084 4.62396484 -18.20128418 3.75964844 -17.42358398 2.86914062 C-12.49382285 -1.16232403 -6.02525989 -0.12133859 0 0 Z " fill="#FAF8F8" transform="translate(130.7109375,40.51171875)"/>
<path d="M0 0 C13.2 0 26.4 0 40 0 C37.65885618 2.34114382 36.00982043 2.7545417 32.875 3.75 C26.70679596 5.9193946 21.31771576 8.81882151 17.40625 14.1875 C16.71015625 15.0846875 16.71015625 15.0846875 16 16 C15.34 16 14.68 16 14 16 C13.62875 16.9590625 13.62875 16.9590625 13.25 17.9375 C12 21 12 21 11.01789856 22.9107666 C8.07278832 28.82040123 7.4494083 33.61233339 7.57421875 40.15625 C7.57687241 41.1678418 7.57952606 42.17943359 7.58226013 43.22167969 C7.5968475 46.64825645 7.64138725 50.07371147 7.6875 53.5 C7.70885138 55.96548362 7.72882242 58.4309795 7.74755859 60.89648438 C7.78110639 65.03992456 7.81743168 69.18323003 7.86444092 73.32653809 C7.97539295 83.30388348 8.016583 93.27984538 8.02019978 103.25780487 C8.02372419 112.03110887 8.04907125 120.80418403 8.08830547 129.57740021 C8.1122101 135.08237639 8.12660746 140.58701111 8.1187439 146.09204102 C8.11212153 151.35227053 8.13473846 156.61162796 8.17823982 161.87167358 C8.18948585 163.82942545 8.19049847 165.78726695 8.18050957 167.74502563 C8.0146381 182.41510141 8.0146381 182.41510141 15 195 C15.58540558 195.75438354 16.17081116 196.50876709 16.7739563 197.28601074 C22.43720105 204.45415028 28.96269359 208.48657873 38 210 C42.70647597 210.30289299 47.40503971 210.30401792 52.12011719 210.30639648 C53.54023672 210.31402907 54.96035215 210.32245843 56.38046265 210.33161926 C60.21952333 210.35346301 64.05850441 210.36234946 67.8976202 210.36744571 C70.3018658 210.37110134 72.70609093 210.3773476 75.11032867 210.3844471 C83.51431688 210.40890654 91.91824366 210.42198587 100.32226562 210.42553711 C108.12946884 210.42916954 115.93627828 210.45905279 123.74336123 210.50094169 C130.4680841 210.53574545 137.19267707 210.55108729 143.91748929 210.55178314 C147.92421029 210.55257254 151.93052956 210.56115433 155.93715668 210.58978081 C159.7098122 210.61613552 163.48173782 210.61807129 167.25444412 210.60212517 C169.27983479 210.59947322 171.30521239 210.62137496 173.33047485 210.64431763 C184.09208744 210.55912837 194.23427533 207.95429684 202.12988281 200.22134399 C212.03216791 188.45931021 213.16193084 178.48549819 213 163.6015625 C213.00777177 161.61998371 213.01907046 159.63841604 213.03364563 157.65687561 C213.06265212 152.39558519 213.04361098 147.13553879 213.01388931 141.87429428 C212.9906517 136.43804004 213.00945925 131.00193437 213.02416992 125.56567383 C213.04277363 116.97708055 213.03642778 108.3888677 213.01318359 99.80029297 C212.98977752 90.41832199 213.03929131 81.03949284 213.15185928 71.65824127 C213.20406451 67.16139936 213.24054772 62.6643955 213.27905273 58.16741943 C213.30111054 55.87248135 213.328338 53.57758634 213.36108398 51.28277588 C213.56732453 35.65481129 212.92972972 23.52780159 201.875 11.4375 C196.05596045 5.80576859 189.06802734 2.5261757 181 2 C181 1.34 181 0.68 181 0 C195.19 0 209.38 0 224 0 C224 73.92 224 147.84 224 224 C150.08 224 76.16 224 0 224 C0 150.08 0 76.16 0 0 Z " fill="#010203" transform="translate(0,0)"/>
<path d="M0 0 C1.40101474 -0.00651086 2.80201951 -0.0155844 4.20300293 -0.0269928 C7.97192631 -0.04987059 11.73982383 -0.03547705 15.50871277 -0.01252341 C19.47489655 0.00654722 23.44101824 -0.00478989 27.40722656 -0.01142883 C34.06461673 -0.01774856 40.72160127 0.00039159 47.37890625 0.03320312 C55.04766299 0.07069005 62.71565168 0.06891269 70.38444901 0.04616195 C77.79769525 0.02512693 85.21066082 0.03253563 92.62390137 0.0524807 C95.76241194 0.06041408 98.90068169 0.05853915 102.03918457 0.04845619 C105.74306217 0.03781266 109.44605709 0.05229176 113.14979553 0.08519936 C115.13690142 0.09716345 117.12410817 0.08497358 119.11120605 0.07174683 C127.58827368 0.18057633 134.04269665 1.93821221 141.609375 5.76049805 C141.609375 6.42049805 141.609375 7.08049805 141.609375 7.76049805 C142.48916016 8.16848633 142.48916016 8.16848633 143.38671875 8.5847168 C148.53840467 11.30994959 153.24536454 15.37580756 155.609375 20.76049805 C156.50671052 25.79554734 156.76350052 30.72117862 156.734375 35.82299805 C156.73824219 36.50426758 156.74210938 37.18553711 156.74609375 37.88745117 C156.73829071 41.94893158 156.39250627 45.77647308 155.609375 49.76049805 C156.269375 49.76049805 156.929375 49.76049805 157.609375 49.76049805 C157.939375 52.07049805 158.269375 54.38049805 158.609375 56.76049805 C158.939375 56.76049805 159.269375 56.76049805 159.609375 56.76049805 C159.609375 66.00049805 159.609375 75.24049805 159.609375 84.76049805 C143.68629808 90.06819035 143.68629808 90.06819035 138.609375 89.76049805 C137.02159903 86.25407787 136.37262512 83.58274213 136.44921875 79.7409668 C136.4656543 78.33041016 136.4656543 78.33041016 136.48242188 76.89135742 C136.50369141 75.92004883 136.52496094 74.94874023 136.546875 73.94799805 C136.66503366 67.43176667 136.59420433 61.2115119 135.609375 54.76049805 C135.279375 54.76049805 134.949375 54.76049805 134.609375 54.76049805 C134.609375 45.85049805 134.609375 36.94049805 134.609375 27.76049805 C131.77842758 27.76382896 131.77842758 27.76382896 128.89028931 27.76722717 C111.14323964 27.7874594 93.39619229 27.80253057 75.64913368 27.81231022 C66.52422244 27.81747195 57.39931979 27.82451233 48.27441406 27.8359375 C40.32345206 27.84588807 32.37249628 27.85235237 24.42152822 27.85458654 C20.20948414 27.85589301 15.99745786 27.85897487 11.78541946 27.8662281 C7.82434242 27.87299418 3.8632906 27.8751138 -0.09779167 27.87360573 C-1.55470479 27.87388179 -3.01161871 27.87588344 -4.46852684 27.87970352 C-6.45153576 27.88464984 -8.43455809 27.88289346 -10.41757202 27.88075256 C-12.08509553 27.88213525 -12.08509553 27.88213525 -13.78630638 27.88354588 C-16.390625 27.76049805 -16.390625 27.76049805 -18.390625 26.76049805 C-18.37902344 28.02506836 -18.36742188 29.28963867 -18.35546875 30.5925293 C-18.34608934 32.25268407 -18.3369893 33.91284044 -18.328125 35.57299805 C-18.31974609 36.40637695 -18.31136719 37.23975586 -18.30273438 38.09838867 C-18.29790039 39.30205078 -18.29790039 39.30205078 -18.29296875 40.5300293 C-18.28511353 41.63761597 -18.28511353 41.63761597 -18.27709961 42.76757812 C-18.390625 44.76049805 -18.390625 44.76049805 -19.390625 47.76049805 C-19.46374846 50.32621743 -19.48247999 52.86380571 -19.453125 55.4284668 C-19.44933838 56.18211014 -19.44555176 56.93575348 -19.44165039 57.7122345 C-19.42535343 60.93094605 -19.397391 64.14952968 -19.37011719 67.36816406 C-19.35187914 69.72159217 -19.33987523 72.0749987 -19.328125 74.4284668 C-19.31982666 75.14334763 -19.31152832 75.85822845 -19.30297852 76.59477234 C-19.27997557 81.40284378 -19.71174256 85.99930037 -20.390625 90.76049805 C-23.79144636 91.89410517 -25.9326707 91.60577576 -29.390625 90.76049805 C-30.10992187 90.61354492 -30.82921875 90.4665918 -31.5703125 90.31518555 C-32.35664062 90.15276367 -33.14296875 89.9903418 -33.953125 89.82299805 C-34.69691406 89.66959961 -35.44070312 89.51620117 -36.20703125 89.3581543 C-38.54089589 88.71936845 -40.37684976 88.11489555 -42.390625 86.76049805 C-42.96484375 84.9753418 -42.96484375 84.9753418 -43.078125 82.69799805 C-43.13226563 81.79694336 -43.18640625 80.89588867 -43.2421875 79.9675293 C-43.29117188 78.90920898 -43.34015625 77.85088867 -43.390625 76.76049805 C-43.48085938 75.52686523 -43.57109375 74.29323242 -43.6640625 73.0222168 C-44.24467827 64.9816561 -44.51312933 56.94642219 -44.578125 48.88549805 C-44.59109619 48.02327637 -44.60406738 47.16105469 -44.61743164 46.27270508 C-44.61864014 45.46687988 -44.61984863 44.66105469 -44.62109375 43.83081055 C-44.62520264 43.11683105 -44.62931152 42.40285156 -44.63354492 41.66723633 C-44.390625 39.76049805 -44.390625 39.76049805 -42.390625 36.76049805 C-42.0424205 34.28998319 -42.0424205 34.28998319 -41.953125 31.57299805 C-41.58358577 26.42682205 -40.4381458 22.47869816 -38.390625 17.76049805 C-37.730625 17.76049805 -37.070625 17.76049805 -36.390625 17.76049805 C-36.225625 17.05924805 -36.060625 16.35799805 -35.890625 15.63549805 C-29.42917452 3.25105129 -12.55127684 -0.13402671 0 0 Z " fill="#85BFF2" transform="translate(52.390625,3.239501953125)"/>
<path d="M0 0 C1.3366259 0.00933643 2.67326902 0.01644863 4.00991821 0.0214386 C7.51202415 0.04044404 11.01307771 0.08948554 14.51477051 0.1449585 C18.09433763 0.19629266 21.67407639 0.2189826 25.25390625 0.24414062 C32.26605474 0.29761327 39.27750797 0.38284542 46.2890625 0.48828125 C47.34482855 44.50193227 47.36754599 88.45904257 47.2890625 132.48828125 C3.0690625 132.48828125 -41.1509375 132.48828125 -86.7109375 132.48828125 C-86.2159375 130.50828125 -86.2159375 130.50828125 -85.7109375 128.48828125 C-84.2259375 127.99328125 -84.2259375 127.99328125 -82.7109375 127.48828125 C-82.30797958 126.65971367 -82.30797958 126.65971367 -81.8968811 125.81440735 C-80.14977866 122.38761659 -77.4409735 119.94912841 -74.73583984 117.27026367 C-73.8183345 116.34991081 -73.8183345 116.34991081 -72.8822937 115.41096497 C-70.85867434 113.38364132 -68.82794163 111.36361047 -66.796875 109.34375 C-65.3836378 107.93170564 -63.97077086 106.5192906 -62.55825806 105.10652161 C-59.59384263 102.14367082 -56.62609772 99.18420993 -53.65576172 96.22729492 C-49.86473396 92.45318687 -46.08025122 88.67260061 -42.29805565 84.88964367 C-39.37797312 81.96983442 -36.45528058 79.05264953 -33.53172684 76.1363163 C-32.13661404 74.74436788 -30.7420904 73.35182867 -29.34818649 71.95866966 C-16.90099101 59.52539496 -16.90099101 59.52539496 -10.67251587 54.22648621 C-6.05724318 50.13677458 -1.77752241 45.6752284 2.5703125 41.3046875 C3.63483022 40.2383004 4.69957212 39.17213706 5.76452637 38.10618591 C8.54170083 35.32522718 11.31585675 32.54127681 14.08935547 29.75665283 C16.93011888 26.90558645 19.77378122 24.05741456 22.6171875 21.20898438 C28.1772908 15.63821607 33.73420268 10.06427806 39.2890625 4.48828125 C7.44505373 0.28627504 7.44505373 0.28627504 -21.68359375 8.94140625 C-26.58188749 13.49087961 -30.5264847 18.61169596 -33.7109375 24.48828125 C-34.3709375 24.15828125 -35.0309375 23.82828125 -35.7109375 23.48828125 C-33.38708253 20.81323276 -31.05069205 18.14943066 -28.7109375 15.48828125 C-27.96585938 14.63621094 -27.22078125 13.78414062 -26.453125 12.90625 C-25.69257812 12.04644531 -24.93203125 11.18664062 -24.1484375 10.30078125 C-23.09462891 9.10388672 -23.09462891 9.10388672 -22.01953125 7.8828125 C-21.25769531 7.09261719 -20.49585937 6.30242188 -19.7109375 5.48828125 C-18.95611084 4.62396484 -18.20128418 3.75964844 -17.42358398 2.86914062 C-12.49382285 -1.16232403 -6.02525989 -0.12133859 0 0 Z M42.2890625 3.48828125 C41.13026607 4.83132266 39.97663075 6.17907376 38.8454895 7.54548836 C30.62541049 17.47149602 21.54905694 26.48335765 12.4140625 35.55859375 C10.71399601 37.25491923 9.01437858 38.95169485 7.31518555 40.64889526 C2.88255014 45.07396741 -1.55605784 49.49299928 -5.99603271 53.91070557 C-10.52576332 58.41986546 -15.04974369 62.93478657 -19.57421875 67.44921875 C-26.86568103 74.72317572 -34.16064351 81.99359987 -41.46003723 89.25959778 C-42.69006417 90.48403523 -43.9188749 91.70969649 -45.14608765 92.9369545 C-46.4696183 94.24904748 -47.8169012 95.53711521 -49.16918945 96.81954956 C-50.93714019 98.35446026 -50.93714019 98.35446026 -50.7109375 100.48828125 C-51.2884375 100.73578125 -51.8659375 100.98328125 -52.4609375 101.23828125 C-55.04033729 102.67128113 -56.77215342 104.27252801 -58.7109375 106.48828125 C-58.7109375 107.14828125 -58.7109375 107.80828125 -58.7109375 108.48828125 C-59.29069336 108.74351562 -59.87044922 108.99875 -60.46777344 109.26171875 C-62.94109062 110.61412902 -64.60695859 112.12560649 -66.6015625 114.11328125 C-67.31054688 114.8196875 -68.01953125 115.52609375 -68.75 116.25390625 C-69.47960937 116.99125 -70.20921875 117.72859375 -70.9609375 118.48828125 C-71.70601562 119.225625 -72.45109375 119.96296875 -73.21875 120.72265625 C-73.92257813 121.4290625 -74.62640625 122.13546875 -75.3515625 122.86328125 C-75.99641602 123.51039063 -76.64126953 124.1575 -77.30566406 124.82421875 C-78.92600359 126.37994481 -78.92600359 126.37994481 -78.7109375 128.48828125 C-65.5109375 128.48828125 -52.3109375 128.48828125 -38.7109375 128.48828125 C-38.2159375 126.50828125 -38.2159375 126.50828125 -37.7109375 124.48828125 C-36.5971875 124.38515625 -35.4834375 124.28203125 -34.3359375 124.17578125 C-33.1396875 123.94890625 -31.9434375 123.72203125 -30.7109375 123.48828125 C-28.37702547 120.70714069 -28.37702547 120.70714069 -29.0859375 117.80078125 C-29.2921875 117.03765625 -29.4984375 116.27453125 -29.7109375 115.48828125 C-34.13698756 114.04303241 -34.13698756 114.04303241 -38.7109375 113.48828125 C-38.7109375 109.52828125 -38.7109375 105.56828125 -38.7109375 101.48828125 C-35.12234165 99.69398332 -34.03763786 99.29917126 -30.3359375 99.17578125 C-25.32848227 98.72055805 -23.11252712 97.15153161 -19.7109375 93.48828125 C-19.7109375 92.49828125 -19.7109375 91.50828125 -19.7109375 90.48828125 C-20.7009375 90.15828125 -21.6909375 89.82828125 -22.7109375 89.48828125 C-23.3709375 90.14828125 -24.0309375 90.80828125 -24.7109375 91.48828125 C-24.7109375 92.47828125 -24.7109375 93.46828125 -24.7109375 94.48828125 C-26.6909375 94.48828125 -28.6709375 94.48828125 -30.7109375 94.48828125 C-27.11504709 88.15266481 -27.11504709 88.15266481 -24.7109375 86.48828125 C-20.85973572 86.68577878 -18.60748503 88.02085187 -15.7109375 90.48828125 C-16.0409375 92.13828125 -16.3709375 93.78828125 -16.7109375 95.48828125 C-17.3709375 95.48828125 -18.0309375 95.48828125 -18.7109375 95.48828125 C-19.855625 96.63296875 -19.855625 96.63296875 -21.0234375 97.80078125 C-25.16075191 101.93809566 -29.14373714 103.80517417 -34.7109375 105.48828125 C-33.26311957 108.9325639 -31.43399141 110.84959087 -28.5859375 113.23828125 C-27.86148438 113.851875 -27.13703125 114.46546875 -26.390625 115.09765625 C-25.83632812 115.5565625 -25.28203125 116.01546875 -24.7109375 116.48828125 C-25.42110565 121.3615041 -27.15010906 123.1100594 -30.7109375 126.48828125 C-30.7109375 127.14828125 -30.7109375 127.80828125 -30.7109375 128.48828125 C-21.34057812 128.51140629 -11.97022849 128.52919716 -2.59984684 128.54009342 C1.75074709 128.5453219 6.10132157 128.5524189 10.4519043 128.5637207 C14.64696508 128.57455084 18.84200709 128.58055835 23.03708076 128.58315849 C24.64113218 128.58501251 26.24518253 128.58863269 27.849226 128.59401131 C30.08822765 128.60122344 32.3271508 128.60227212 34.56616211 128.60180664 C35.84301376 128.60402725 37.11986542 128.60624786 38.43540955 128.60853577 C41.18795105 128.81496214 41.18795105 128.81496214 42.2890625 127.48828125 C42.37750043 125.03997699 42.40435002 122.62007526 42.38671875 120.171875 C42.3853038 119.44082047 42.38388885 118.70976593 42.38243103 117.95655823 C42.37681658 115.61292493 42.36426172 113.26938586 42.3515625 110.92578125 C42.34654936 109.34049617 42.34198613 107.75520959 42.33789062 106.16992188 C42.32684247 102.27600515 42.30956822 98.3821592 42.2890625 94.48828125 C38.88693951 96.10210882 36.18581731 98.07431891 33.2890625 100.48828125 C33.6190625 101.80828125 33.9490625 103.12828125 34.2890625 104.48828125 C35.2790625 104.48828125 36.2690625 104.48828125 37.2890625 104.48828125 C37.2890625 110.75828125 37.2890625 117.02828125 37.2890625 123.48828125 C35.6390625 123.48828125 33.9890625 123.48828125 32.2890625 123.48828125 C32.2890625 117.21828125 32.2890625 110.94828125 32.2890625 104.48828125 C29.6490625 104.48828125 27.0090625 104.48828125 24.2890625 104.48828125 C24.2890625 110.75828125 24.2890625 117.02828125 24.2890625 123.48828125 C26.5990625 123.81828125 28.9090625 124.14828125 31.2890625 124.48828125 C31.6190625 125.47828125 31.9490625 126.46828125 32.2890625 127.48828125 C29.3190625 127.48828125 26.3490625 127.48828125 23.2890625 127.48828125 C23.2890625 126.49828125 23.2890625 125.50828125 23.2890625 124.48828125 C21.3090625 123.49828125 21.3090625 123.49828125 19.2890625 122.48828125 C18.07556711 107.35329707 18.07556711 107.35329707 20.82421875 103.12890625 C22.9220477 101.56058711 24.86972221 100.48572856 27.2890625 99.48828125 C27.92070312 99.21628906 28.55234375 98.94429688 29.203125 98.6640625 C29.78835937 98.42042969 30.37359375 98.17679687 30.9765625 97.92578125 C34.63363787 96.33874854 36.65569889 94.44084045 39.2890625 91.48828125 C37.6390625 91.15828125 35.9890625 90.82828125 34.2890625 90.48828125 C33.2990625 92.46828125 33.2990625 92.46828125 32.2890625 94.48828125 C30.6390625 94.48828125 28.9890625 94.48828125 27.2890625 94.48828125 C31.51274671 87.04655193 31.51274671 87.04655193 35.4765625 85.80078125 C36.0746875 85.69765625 36.6728125 85.59453125 37.2890625 85.48828125 C37.69125 86.44734375 37.69125 86.44734375 38.1015625 87.42578125 C39.17574002 89.81959811 39.17574002 89.81959811 42.2890625 90.48828125 C43.57801564 61.49711974 43.39331589 32.50145504 43.2890625 3.48828125 C42.9590625 3.48828125 42.6290625 3.48828125 42.2890625 3.48828125 Z " fill="#040304" transform="translate(130.7109375,40.51171875)"/>
<path d="M0 0 C75.24 0.495 75.24 0.495 152 1 C152.57758611 38.54309734 153.14900951 76.02579312 153.0625 113.5625 C153.041875 126.576875 153.02125 139.59125 153 153 C102.18 153 51.36 153 -1 153 C-1.020625 140.00625 -1.04125 127.0125 -1.0625 113.625 C-1.071604 109.68385254 -1.08070801 105.74270508 -1.09008789 101.68212891 C-1.11523809 67.76829838 -0.51404547 33.92700114 0 0 Z M4 4 C4 51.85 4 99.7 4 149 C51.52 149 99.04 149 148 149 C148.8964267 76.00118902 148.8964267 76.00118902 149 3 C138.5106611 2.97613193 128.02132929 2.95872685 117.53196812 2.94818783 C112.65387026 2.94311297 107.77579176 2.93632314 102.89770508 2.92456055 C69.91242835 2.85130781 36.9913925 3.42120364 4 4 Z " fill="#201A1A" transform="translate(35,30)"/>
<path d="M0 0 C1.19464371 -0.00274933 2.38928741 -0.00549866 3.62013245 -0.0083313 C4.91701492 -0.00114075 6.2138974 0.0060498 7.55007935 0.01345825 C8.94010917 0.01402286 10.33013959 0.01370483 11.72016907 0.01257324 C15.48214311 0.01200067 19.24398897 0.0237394 23.00593328 0.03772116 C26.94171336 0.05024453 30.87749654 0.05140028 34.81329346 0.05377197 C42.26109983 0.05998202 49.70884731 0.0763864 57.15662777 0.09647095 C65.63785482 0.11884475 74.11908471 0.1298271 82.60033393 0.13986182 C100.04211253 0.16075306 117.48383384 0.19591978 134.92556763 0.24050903 C134.92556763 0.90050903 134.92556763 1.56050903 134.92556763 2.24050903 C135.85369263 2.11675903 136.78181763 1.99300903 137.73806763 1.86550903 C145.52547611 1.91270545 152.39905812 7.42257271 157.86306763 12.49050903 C162.04692008 16.89180185 164.20072858 21.46290132 165.92556763 27.24050903 C165.26556763 27.24050903 164.60556763 27.24050903 163.92556763 27.24050903 C163.92556763 26.25050903 163.92556763 25.26050903 163.92556763 24.24050903 C163.34806763 24.19925903 162.77056763 24.15800903 162.17556763 24.11550903 C159.3518602 23.01740059 158.71588877 21.45717546 157.20681763 18.93191528 C155.12894395 16.18886862 152.36013839 14.45521766 149.53494263 12.53738403 C148.738302 11.89543091 148.738302 11.89543091 147.92556763 11.24050903 C147.92556763 10.58050903 147.92556763 9.92050903 147.92556763 9.24050903 C147.31068481 9.0355481 146.695802 8.83058716 146.06228638 8.61941528 C142.68338013 7.4931132 139.30447388 6.36681112 135.92556763 5.24050903 C134.0165522 5.13495105 132.10408767 5.08815595 130.19221497 5.07315063 C128.99668503 5.06165985 127.80115509 5.05016907 126.56939697 5.03833008 C125.25567108 5.03092804 123.94194519 5.023526 122.58840942 5.01589966 C121.19197834 5.0047221 119.7955499 4.9932087 118.39912415 4.98138428 C113.80771616 4.94482351 109.21628084 4.91959272 104.62478638 4.89675903 C103.84211907 4.89281317 103.05945176 4.8888673 102.25306726 4.88480186 C94.86164752 4.84836089 87.47021805 4.8169355 80.07873821 4.79569244 C70.64824419 4.7681842 61.21850763 4.71755773 51.78832883 4.63521814 C45.14607417 4.57920496 38.50402346 4.55042402 31.86154109 4.54121923 C27.9014133 4.5349932 23.94217333 4.51715777 19.98230553 4.46983337 C16.24649008 4.42574332 12.51203485 4.41580556 8.77600288 4.43046188 C6.77470889 4.42998335 4.77351259 4.39501845 2.77255249 4.35845947 C-7.36526445 4.44993851 -16.91512402 7.17040883 -24.34489918 14.47171783 C-24.91564513 15.05541893 -25.48639109 15.63912003 -26.07443237 16.24050903 C-26.73443237 16.24050903 -27.39443237 16.24050903 -28.07443237 16.24050903 C-29.06443237 18.71550903 -29.06443237 18.71550903 -30.07443237 21.24050903 C-30.73443237 21.24050903 -31.39443237 21.24050903 -32.07443237 21.24050903 C-32.29099487 22.38519653 -32.29099487 22.38519653 -32.51193237 23.55300903 C-33.07443237 26.24050903 -33.07443237 26.24050903 -34.07443237 29.24050903 C-34.34008859 32.04044122 -34.51821391 34.83994439 -34.69552612 37.64675903 C-35.07443237 40.24050903 -35.07443237 40.24050903 -37.07443237 43.24050903 C-37.2504005 46.21407214 -37.30796216 49.08153078 -37.26193237 52.05300903 C-37.25403687 52.92651001 -37.24614136 53.80001099 -37.23800659 54.69998169 C-37.15235472 61.50749634 -36.95890431 68.3125329 -36.69943237 75.11550903 C-36.66873657 76.03565796 -36.63804077 76.95580688 -36.60641479 77.90383911 C-36.39256629 82.69395709 -35.90163452 86.73935252 -34.07443237 91.24050903 C-32.34635919 91.57946559 -30.61691263 91.91142428 -28.88693237 92.24050903 C-27.44253784 92.51894653 -27.44253784 92.51894653 -25.96896362 92.80300903 C-23.28101178 93.20928516 -20.78672218 93.31984475 -18.07443237 93.24050903 C-18.07443237 93.90050903 -18.07443237 94.56050903 -18.07443237 95.24050903 C-16.09443237 94.74550903 -16.09443237 94.74550903 -14.07443237 94.24050903 C-14.07443237 78.73050903 -14.07443237 63.22050903 -14.07443237 47.24050903 C-13.74443237 47.24050903 -13.41443237 47.24050903 -13.07443237 47.24050903 C-12.74443237 41.63050903 -12.41443237 36.02050903 -12.07443237 30.24050903 C-11.74443237 30.24050903 -11.41443237 30.24050903 -11.07443237 30.24050903 C-11.04223556 39.42798976 -11.02293591 48.61548046 -11.01193237 57.80300903 C-11.01107635 58.51243401 -11.01022034 59.22185898 -11.00933838 59.95278168 C-10.97970637 87.92628252 -11.23432859 115.89427076 -11.57443237 143.86550903 C-11.58639019 144.84934193 -11.59834801 145.83317482 -11.61066818 146.84682083 C-11.75871424 158.97813611 -11.91333124 171.10936032 -12.07443237 183.24050903 C-12.40443237 183.24050903 -12.73443237 183.24050903 -13.07443237 183.24050903 C-13.94129143 165.42384988 -14.34536776 147.6135812 -14.60665894 129.77883911 C-14.65805796 126.31810957 -14.713108 122.85743795 -14.76779175 119.39675903 C-14.87344834 112.67805965 -14.97527032 105.95930734 -15.07443237 99.24050903 C-18.04443237 98.91050903 -21.01443237 98.58050903 -24.07443237 98.24050903 C-24.07443237 97.58050903 -24.07443237 96.92050903 -24.07443237 96.24050903 C-25.12630737 96.54988403 -25.12630737 96.54988403 -26.19943237 96.86550903 C-29.67982045 97.3194727 -31.8120816 96.42435377 -35.07443237 95.24050903 C-35.08473984 96.03484848 -35.0950473 96.82918793 -35.10566711 97.64759827 C-35.20399256 105.16481194 -35.30655387 112.68195064 -35.41377163 120.19904232 C-35.46873525 124.06285409 -35.52210992 127.9266737 -35.57174683 131.79055786 C-35.61978574 135.52536037 -35.67213757 139.26008064 -35.72737312 142.9947834 C-35.74761923 144.41356904 -35.7663593 145.83237706 -35.78350639 147.25120354 C-35.87390433 154.64924684 -36.08385142 161.90456964 -37.07443237 169.24050903 C-37.40443237 169.24050903 -37.73443237 169.24050903 -38.07443237 169.24050903 C-38.41891175 144.87911554 -38.72638311 120.51745327 -38.98818302 96.15502548 C-39.03388862 91.90985163 -39.08068335 87.66470076 -39.13162231 83.41958618 C-39.23153823 75.09247334 -39.31448175 66.76581529 -39.36154175 58.4382019 C-39.3783653 55.98815098 -39.40220339 53.53813741 -39.43331909 51.08822632 C-39.47478521 47.71170796 -39.49085679 44.33599758 -39.50021362 40.95925903 C-39.51768143 39.9941037 -39.53514923 39.02894836 -39.55314636 38.0345459 C-39.53253543 31.59076901 -38.12300229 26.89937955 -35.07443237 21.24050903 C-34.53818237 20.22988403 -34.00193237 19.21925903 -33.44943237 18.17800903 C-32.99568237 17.53863403 -32.54193237 16.89925903 -32.07443237 16.24050903 C-31.41443237 16.24050903 -30.75443237 16.24050903 -30.07443237 16.24050903 C-29.86818237 15.68363403 -29.66193237 15.12675903 -29.44943237 14.55300903 C-23.98439841 5.36181556 -10.22325571 -0.01822327 0 0 Z " fill="#1167B4" transform="translate(46.074432373046875,-0.240509033203125)"/>
<path d="M0 0 C0.33 0 0.66 0 1 0 C1.33 14.52 1.66 29.04 2 44 C2.33 44 2.66 44 3 44 C3.97810848 79.01680386 4 113.95296886 4 149 C51.85 149 99.7 149 149 149 C149 149.66 149 150.32 149 151 C150.32 151 151.64 151 153 151 C153 151.66 153 152.32 153 153 C102.18 153 51.36 153 -1 153 C-1.13856534 65.70383523 -1.13856534 65.70383523 -0.5 27.5625 C-0.48804218 26.84775764 -0.47608437 26.13301529 -0.46376419 25.39661407 C-0.32108378 16.93084972 -0.16736755 8.46531355 0 0 Z " fill="#08090D" transform="translate(35,30)"/>
<path d="M0 0 C1.3366259 0.00933643 2.67326902 0.01644863 4.00991821 0.0214386 C7.51202415 0.04044404 11.01307771 0.08948554 14.51477051 0.1449585 C18.09433502 0.19629263 21.67407624 0.21925741 25.25390625 0.24414062 C32.26655155 0.2949569 39.2763148 0.39282643 46.2890625 0.48828125 C46.2890625 11.04828125 46.2890625 21.60828125 46.2890625 32.48828125 C45.9590625 32.48828125 45.6290625 32.48828125 45.2890625 32.48828125 C44.9590625 23.24828125 44.6290625 14.00828125 44.2890625 4.48828125 C43.6290625 4.48828125 42.9690625 4.48828125 42.2890625 4.48828125 C41.069187 5.8968476 39.91799167 7.36480135 38.79248047 8.84985352 C31.63058735 17.78571273 23.35456369 25.64860689 15.234375 33.703125 C13.48271282 35.44850601 11.73157197 37.19441036 9.98092651 38.94081116 C5.39973118 43.50878417 0.81297875 48.0711317 -3.77545166 52.63183594 C-11.14074847 59.95378583 -18.49912941 67.28267112 -25.85437393 74.61471748 C-28.41956706 77.16970062 -30.98814904 79.72124004 -33.55709839 82.27244568 C-35.12525684 83.8337779 -36.69330681 85.3952191 -38.26123047 86.95678711 C-38.97501358 87.66383286 -39.68879669 88.3708786 -40.42420959 89.09934998 C-41.08004532 89.75367004 -41.73588104 90.40799011 -42.41159058 91.08213806 C-42.979709 91.64673705 -43.54782742 92.21133604 -44.13316154 92.79304409 C-45.7953635 94.50605376 -45.7953635 94.50605376 -47.29214668 96.7011652 C-47.76034765 97.2909135 -48.22854862 97.88066179 -48.7109375 98.48828125 C-49.3709375 98.48828125 -50.0309375 98.48828125 -50.7109375 98.48828125 C-50.7109375 99.14828125 -50.7109375 99.80828125 -50.7109375 100.48828125 C-54.17247596 103.48828125 -54.17247596 103.48828125 -56.7109375 103.48828125 C-56.8759375 104.16890625 -57.0409375 104.84953125 -57.2109375 105.55078125 C-59.02801767 109.10922991 -61.23488022 110.85254329 -64.2734375 113.3828125 C-67.19233129 115.90410056 -69.92283756 118.57384501 -72.6484375 121.30078125 C-73.13304443 121.78111816 -73.61765137 122.26145508 -74.11694336 122.75634766 C-76.7445586 125.37330655 -76.7445586 125.37330655 -78.7109375 128.48828125 C-76.0709375 128.81828125 -73.4309375 129.14828125 -70.7109375 129.48828125 C-70.7109375 129.81828125 -70.7109375 130.14828125 -70.7109375 130.48828125 C-68.0709375 130.81828125 -65.4309375 131.14828125 -62.7109375 131.48828125 C-62.7109375 131.81828125 -62.7109375 132.14828125 -62.7109375 132.48828125 C-70.6309375 132.48828125 -78.5509375 132.48828125 -86.7109375 132.48828125 C-86.2159375 130.50828125 -86.2159375 130.50828125 -85.7109375 128.48828125 C-84.2259375 127.99328125 -84.2259375 127.99328125 -82.7109375 127.48828125 C-82.30797958 126.65971367 -82.30797958 126.65971367 -81.8968811 125.81440735 C-80.14977866 122.38761659 -77.4409735 119.94912841 -74.73583984 117.27026367 C-73.8183345 116.34991081 -73.8183345 116.34991081 -72.8822937 115.41096497 C-70.85867434 113.38364132 -68.82794163 111.36361047 -66.796875 109.34375 C-65.3836378 107.93170564 -63.97077086 106.5192906 -62.55825806 105.10652161 C-59.59384263 102.14367082 -56.62609772 99.18420993 -53.65576172 96.22729492 C-49.86473396 92.45318687 -46.08025122 88.67260061 -42.29805565 84.88964367 C-39.37797312 81.96983442 -36.45528058 79.05264953 -33.53172684 76.1363163 C-32.13661404 74.74436788 -30.7420904 73.35182867 -29.34818649 71.95866966 C-16.90099101 59.52539496 -16.90099101 59.52539496 -10.67251587 54.22648621 C-6.05724318 50.13677458 -1.77752241 45.6752284 2.5703125 41.3046875 C3.63483022 40.2383004 4.69957212 39.17213706 5.76452637 38.10618591 C8.54170083 35.32522718 11.31585675 32.54127681 14.08935547 29.75665283 C16.93011888 26.90558645 19.77378122 24.05741456 22.6171875 21.20898438 C28.1772908 15.63821607 33.73420268 10.06427806 39.2890625 4.48828125 C7.44505373 0.28627504 7.44505373 0.28627504 -21.68359375 8.94140625 C-26.58188749 13.49087961 -30.5264847 18.61169596 -33.7109375 24.48828125 C-34.3709375 24.15828125 -35.0309375 23.82828125 -35.7109375 23.48828125 C-33.38708253 20.81323276 -31.05069205 18.14943066 -28.7109375 15.48828125 C-27.96585938 14.63621094 -27.22078125 13.78414062 -26.453125 12.90625 C-25.69257812 12.04644531 -24.93203125 11.18664062 -24.1484375 10.30078125 C-23.09462891 9.10388672 -23.09462891 9.10388672 -22.01953125 7.8828125 C-21.25769531 7.09261719 -20.49585937 6.30242188 -19.7109375 5.48828125 C-18.95611084 4.62396484 -18.20128418 3.75964844 -17.42358398 2.86914062 C-12.49382285 -1.16232403 -6.02525989 -0.12133859 0 0 Z " fill="#111112" transform="translate(130.7109375,40.51171875)"/>
<path d="M0 0 C6.04895266 5.18481656 11.78293914 10.20973185 16.8125 16.375 C18.7292087 19.0316122 18.7292087 19.0316122 21 20 C21 20.66 21 21.32 21 22 C21.57975586 22.25450928 22.15951172 22.50901855 22.75683594 22.77124023 C25.24044664 24.13171179 26.8967063 25.65362094 28.890625 27.66015625 C29.59960938 28.37107422 30.30859375 29.08199219 31.0390625 29.81445312 C32.13347656 30.92723633 32.13347656 30.92723633 33.25 32.0625 C33.99507812 32.80822266 34.74015625 33.55394531 35.5078125 34.32226562 C41 39.85971841 41 39.85971841 41 41 C27.47 41 13.94 41 0 41 C0 27.47 0 13.94 0 0 Z " fill="#F2F2F2" transform="translate(74,45)"/>
<path d="M0 0 C1.39047222 0.0008477 2.78094579 0.00036834 4.17141724 -0.00132751 C7.9208844 -0.00218332 11.67005982 0.01537447 15.41945958 0.03639436 C19.34720559 0.05523098 23.27495932 0.05691708 27.20274353 0.06047058 C34.62923619 0.06977063 42.05559534 0.09435656 49.48202938 0.12451905 C57.94155039 0.15812684 66.401078 0.17456506 74.86064923 0.18960536 C92.25214723 0.22090811 109.64351552 0.2736286 127.03491211 0.34057617 C127.03491211 1.00057617 127.03491211 1.66057617 127.03491211 2.34057617 C127.96303711 2.21682617 128.89116211 2.09307617 129.84741211 1.96557617 C137.63482059 2.01277259 144.50840261 7.52263985 149.97241211 12.59057617 C154.15626457 16.99186899 156.31007306 21.56296846 158.03491211 27.34057617 C157.37491211 27.34057617 156.71491211 27.34057617 156.03491211 27.34057617 C156.03491211 26.35057617 156.03491211 25.36057617 156.03491211 24.34057617 C155.45741211 24.29932617 154.87991211 24.25807617 154.28491211 24.21557617 C151.46120468 23.11746773 150.82523325 21.5572426 149.31616211 19.03198242 C147.23828843 16.28893576 144.46948287 14.55528479 141.64428711 12.63745117 C140.84764648 11.99549805 140.84764648 11.99549805 140.03491211 11.34057617 C140.03491211 10.68057617 140.03491211 10.02057617 140.03491211 9.34057617 C139.4200293 9.13561523 138.80514648 8.9306543 138.17163086 8.71948242 C134.79272461 7.59318034 131.41381836 6.46687826 128.03491211 5.34057617 C126.1076903 5.24527438 124.17730072 5.20993914 122.24772644 5.2068634 C121.04063522 5.20259842 119.83354401 5.19833344 118.58987427 5.19393921 C117.25018307 5.19428873 115.9104919 5.19475027 114.57080078 5.1953125 C113.1613913 5.19232065 111.75198265 5.18891806 110.34257507 5.18513489 C106.51188914 5.17629223 102.68122554 5.17395663 98.85053039 5.1733191 C95.65232555 5.1723698 92.45412592 5.16869116 89.25592309 5.16514701 C81.70886141 5.15700105 74.16181166 5.15456286 66.61474609 5.15527344 C58.83209579 5.15587393 51.04951487 5.14532808 43.26688212 5.12952977 C36.5839773 5.11644774 29.90109514 5.11108984 23.21817762 5.11172885 C19.22736347 5.11198369 15.23661094 5.10914038 11.24580956 5.0985508 C7.49066298 5.08885893 3.73563677 5.08879808 -0.01951408 5.09606743 C-1.39573467 5.09711199 -2.77196279 5.09475797 -4.14817047 5.08870697 C-6.03108213 5.08096612 -7.91403493 5.08684065 -9.79695129 5.09333801 C-10.8494296 5.09279325 -11.9019079 5.09224848 -12.98627949 5.0916872 C-16.23652504 5.36325561 -18.92178 6.19454775 -21.96508789 7.34057617 C-21.96508789 6.68057617 -21.96508789 6.02057617 -21.96508789 5.34057617 C-23.61508789 5.67057617 -25.26508789 6.00057617 -26.96508789 6.34057617 C-19.48023794 -0.49341726 -9.51374162 -0.07978683 0 0 Z " fill="#027BD8" transform="translate(53.965087890625,-0.340576171875)"/>
<path d="M0 0 C0.02465288 4.68139254 0.04283739 9.36274759 0.05493164 14.04418945 C0.05997157 15.63794614 0.0668035 17.23169819 0.07543945 18.82543945 C0.08751999 21.11150253 0.09323155 23.39750467 0.09765625 25.68359375 C0.10281754 26.40026718 0.10797882 27.11694061 0.11329651 27.85533142 C0.11349263 29.57063672 0.06192007 31.28581266 0 33 C-2.99318597 35.99318597 -14.02046092 34.41557831 -18.26293945 34.45996094 C-20.20394613 34.48653453 -22.14481249 34.52742322 -24.08520508 34.58300781 C-26.8842066 34.66227664 -29.68050818 34.69529299 -32.48046875 34.71875 C-33.34318893 34.75174194 -34.20590912 34.78473389 -35.09477234 34.81872559 C-38.65136519 34.80697876 -41.03827336 34.73307535 -43.92398071 32.53344727 C-47.0481323 29.11505314 -48 27.80019534 -48 23 C-47.01 23 -46.02 23 -45 23 C-44.1028125 24.2065625 -44.1028125 24.2065625 -43.1875 25.4375 C-41.18226129 28.28845931 -41.18226129 28.28845931 -37.75 28.8125 C-36.38875 28.9053125 -36.38875 28.9053125 -35 29 C-34.34 26.36 -33.68 23.72 -33 21 C-33.99 20.95875 -34.98 20.9175 -36 20.875 C-40.96723847 20.21473313 -44.28296505 17.15706605 -48 14 C-46.6537371 9.59404869 -44.93896005 7.41708912 -41 5 C-36.92993342 4.22062555 -35.3897531 4.76355299 -31.83203125 6.921875 C-29.84066143 8.65003017 -29.08927163 9.59505232 -28.5168457 12.19165039 C-28.40938334 14.75619754 -28.4759645 17.25023581 -28.625 19.8125 C-28.65207031 20.69615234 -28.67914063 21.57980469 -28.70703125 22.49023438 C-28.77744131 24.66121114 -28.88505394 26.83092529 -29 29 C-30.32 29 -31.64 29 -33 29 C-33 30.32 -33 31.64 -33 33 C-25.41 33 -17.82 33 -10 33 C-10.33 32.01 -10.66 31.02 -11 30 C-13.31 29.67 -15.62 29.34 -18 29 C-18 22.73 -18 16.46 -18 10 C-15.36 10 -12.72 10 -10 10 C-10 16.27 -10 22.54 -10 29 C-8.35 29 -6.7 29 -5 29 C-5 22.73 -5 16.46 -5 10 C-6.32 9.67 -7.64 9.34 -9 9 C-9 6 -9 6 -7.5390625 4.39453125 C-6.90742188 3.87246094 -6.27578125 3.35039062 -5.625 2.8125 C-4.99851563 2.28269531 -4.37203125 1.75289062 -3.7265625 1.20703125 C-2 0 -2 0 0 0 Z " fill="#FA0405" transform="translate(173,135)"/>
<path d="M0 0 C3.97202045 2.05956616 6.66865542 4.19235986 9 8 C9.85848487 13.55308233 9.73654342 18.50060803 7.25 23.5625 C6.5075 24.366875 5.765 25.17125 5 26 C4.443125 26.61875 3.88625 27.2375 3.3125 27.875 C-0.38632251 29.67442716 -3.96958634 29.52633309 -8 29 C-12.2740741 27.23462157 -13.97085287 25.09230231 -16 21 C-16.74217701 15.7119888 -17.29428922 9.71321369 -14.9453125 4.7890625 C-10.68020698 -0.3845862 -6.3271639 -0.77758075 0 0 Z " fill="#2432F6" transform="translate(74,97)"/>
<path d="M0 0 C0.66 0 1.32 0 2 0 C2 6.27 2 12.54 2 19 C4.475 19.99 4.475 19.99 7 21 C6.625 22.9375 6.625 22.9375 6 25 C5.01 25.495 5.01 25.495 4 26 C3.67 27.32 3.34 28.64 3 30 C-7.23 30 -17.46 30 -28 30 C-26.25403935 26.5080787 -25.04031109 24.78397752 -22.375 22.109375 C-21.66859375 21.40039062 -20.9621875 20.69140625 -20.234375 19.9609375 C-19.49703125 19.23132813 -18.7596875 18.50171875 -18 17.75 C-17.26265625 17.00492188 -16.5253125 16.25984375 -15.765625 15.4921875 C-15.05921875 14.78835937 -14.3528125 14.08453125 -13.625 13.359375 C-12.97789063 12.71452148 -12.33078125 12.06966797 -11.6640625 11.40527344 C-10 10 -10 10 -8 10 C-7.7525 9.236875 -7.505 8.47375 -7.25 7.6875 C-5.87869328 4.73919055 -4.7648921 3.64165468 -2 2 C-1.34 2 -0.68 2 0 2 C0 1.34 0 0.68 0 0 Z " fill="#F10C0E" transform="translate(80,139)"/>
<path d="M0 0 C0.66 0 1.32 0 2 0 C2 0.99 2 1.98 2 3 C2.99 3.33 3.98 3.66 5 4 C6.00733665 6.68071091 6.12614683 9.22852435 6.12939453 12.07128906 C6.13406235 13.29316925 6.13406235 13.29316925 6.13882446 14.53973389 C6.13584854 15.88904999 6.13584854 15.88904999 6.1328125 17.265625 C6.13479141 18.73168182 6.13479141 18.73168182 6.1368103 20.22735596 C6.13877278 23.56826635 6.13224201 26.90909755 6.125 30.25 C6.12411377 31.41120361 6.12322754 32.57240723 6.12231445 33.76879883 C6.08569781 75.84695856 5.48882105 117.92523856 5 160 C4.67 160 4.34 160 4 160 C4 129.64 4 99.28 4 68 C1.36 69.32 -1.28 70.64 -4 72 C-8 72.0625 -8 72.0625 -9.96875 71.94140625 C-13.62679243 72.0469267 -16.66714302 73.57163272 -20 75 C-21.2498103 71.25056909 -21.14301274 67.75652771 -21.1328125 63.8515625 C-21.13376923 63.04318939 -21.13472595 62.23481628 -21.13571167 61.40194702 C-21.1363926 59.68544436 -21.13454436 57.96893913 -21.13037109 56.25244141 C-21.12509104 53.66953455 -21.13028254 51.08680719 -21.13671875 48.50390625 C-21.14005802 39.28284458 -20.91395116 30.18323132 -20 21 C-19.67 21 -19.34 21 -19 21 C-18.3211963 33.35206098 -17.87545808 45.65512697 -18.03710938 58.02783203 C-18.04548828 58.89907715 -18.05386719 59.77032227 -18.0625 60.66796875 C-18.07990234 61.81688599 -18.07990234 61.81688599 -18.09765625 62.98901367 C-18.08054922 65.20808638 -18.08054922 65.20808638 -17 68 C-10.30565934 67.64894054 -5.04682788 66.89743836 1 64 C1.99 64 2.98 64 4 64 C3.67 55.09 3.34 46.18 3 37 C2.67 37 2.34 37 2 37 C2 34.36 2 31.72 2 29 C1.34 29 0.68 29 0 29 C0 19.43 0 9.86 0 0 Z " fill="#2A7CBA" transform="translate(208,24)"/>
<path d="M0 0 C0 0.99 0 1.98 0 3 C2.97 3.495 2.97 3.495 6 4 C6 4.99 6 5.98 6 7 C6.66 7.33 7.32 7.66 8 8 C7.01 9.485 7.01 9.485 6 11 C6.99 11.66 7.98 12.32 9 13 C9 13.99 9 14.98 9 16 C9.90363281 16 10.80726562 16 11.73828125 16 C19.92549299 16 27.97228574 16.19076764 36.140625 16.78125 C42.7484476 17.48360319 42.7484476 17.48360319 49 16 C50.55853285 15.90750422 52.12100723 15.87807388 53.68228149 15.87974548 C55.16308952 15.87768349 55.16308952 15.87768349 56.67381287 15.87557983 C57.76065872 15.87917511 58.84750458 15.88277039 59.96728516 15.88647461 C61.10874496 15.88632858 62.25020477 15.88618256 63.42625427 15.8860321 C67.21387609 15.88673094 71.00144923 15.89452202 74.7890625 15.90234375 C77.40937269 15.90420803 80.02968323 15.90563189 82.6499939 15.90663147 C88.85127161 15.90974248 95.05253174 15.91795278 101.2538017 15.92798096 C108.31296163 15.93914922 115.37212239 15.94465435 122.43128896 15.94967639 C136.95420172 15.96013557 151.47710061 15.97773058 166 16 C162.68212701 19.31787299 159.63416474 19.12790391 155.15707397 19.14044189 C153.93748993 19.14615204 152.71790588 19.15186218 151.46136475 19.15774536 C150.10754405 19.15899072 148.75372323 19.16011582 147.39990234 19.16113281 C145.97565584 19.1657617 144.55141057 19.17078645 143.12716675 19.17617798 C139.25496324 19.18930097 135.38277707 19.19574724 131.51055479 19.20018864 C129.08944815 19.20312075 126.66834623 19.20722592 124.24724197 19.21169281 C116.66694485 19.22537017 109.08665853 19.23503451 101.50634992 19.2388947 C92.76644348 19.24337011 84.02669385 19.26089289 75.28683507 19.2898953 C68.52575245 19.31154925 61.76471381 19.32160103 55.0035969 19.32293582 C50.96849643 19.32398159 46.93354331 19.3298402 42.89847946 19.34775543 C39.09814163 19.3642995 35.29806087 19.36636113 31.49769974 19.35761642 C30.10822102 19.35684931 28.71872812 19.36114557 27.32928467 19.37107468 C14.62725536 19.45646808 4.74045249 17.3163181 -4.7109375 8.3828125 C-6.125 6.8125 -6.125 6.8125 -8 4 C-7.67 3.01 -7.34 2.02 -7 1 C-4.53721199 -0.231394 -2.7204945 -0.07159196 0 0 Z " fill="#76DEF3" transform="translate(23,192)"/>
<path d="M0 0 C2.3125 2.1875 2.3125 2.1875 4 5 C4.09412123 8.76484909 3.04672668 9.9460846 0.5625 12.8125 C-2 15 -2 15 -4 15 C-3.67 15.99 -3.34 16.98 -3 18 C-2.01 18.33 -1.02 18.66 0 19 C0 25.27 0 31.54 0 38 C-1.65 38 -3.3 38 -5 38 C-5 31.73 -5 25.46 -5 19 C-7.64 19 -10.28 19 -13 19 C-13 25.27 -13 31.54 -13 38 C-10.69 38 -8.38 38 -6 38 C-5.67 39.32 -5.34 40.64 -5 42 C-7.97 42 -10.94 42 -14 42 C-14 41.01 -14 40.02 -14 39 C-15.65 38.34 -17.3 37.68 -19 37 C-20.36609853 22.00664696 -20.36609853 22.00664696 -17.2421875 17.41796875 C-12.90712852 14.04543982 -8.04233447 12.07625537 -3 10 C-0.62208021 7.95955036 -0.62208021 7.95955036 1 6 C-1.47266765 6.34444881 -1.47266765 6.34444881 -4 7 C-4.33 7.66 -4.66 8.32 -5 9 C-6.65 9 -8.3 9 -10 9 C-9.35875684 3.22881158 -5.59674318 0 0 0 Z " fill="#DC3D3E" transform="translate(168,126)"/>
<path d="M0 0 C1.3366259 0.00933643 2.67326902 0.01644863 4.00991821 0.0214386 C7.51202415 0.04044404 11.01307771 0.08948554 14.51477051 0.1449585 C18.09433502 0.19629263 21.67407624 0.21925741 25.25390625 0.24414062 C32.26655155 0.2949569 39.2763148 0.39282643 46.2890625 0.48828125 C46.2890625 11.04828125 46.2890625 21.60828125 46.2890625 32.48828125 C45.9590625 32.48828125 45.6290625 32.48828125 45.2890625 32.48828125 C44.9590625 23.24828125 44.6290625 14.00828125 44.2890625 4.48828125 C43.6290625 4.48828125 42.9690625 4.48828125 42.2890625 4.48828125 C40.89853226 6.0646151 39.57733462 7.7023304 38.2890625 9.36328125 C33.65762006 15.16952861 28.64513826 20.33347764 23.2890625 25.48828125 C22.2990625 24.82828125 21.3090625 24.16828125 20.2890625 23.48828125 C26.5590625 17.21828125 32.8290625 10.94828125 39.2890625 4.48828125 C7.54370574 0.37351601 7.54370574 0.37351601 -21.68359375 8.94140625 C-26.58188749 13.49087961 -30.5264847 18.61169596 -33.7109375 24.48828125 C-34.3709375 24.15828125 -35.0309375 23.82828125 -35.7109375 23.48828125 C-33.38708253 20.81323276 -31.05069205 18.14943066 -28.7109375 15.48828125 C-27.96585937 14.63621094 -27.22078125 13.78414062 -26.453125 12.90625 C-25.69257812 12.04644531 -24.93203125 11.18664062 -24.1484375 10.30078125 C-23.44589844 9.50285156 -22.74335937 8.70492187 -22.01953125 7.8828125 C-21.25769531 7.09261719 -20.49585937 6.30242188 -19.7109375 5.48828125 C-18.57869751 4.19180664 -18.57869751 4.19180664 -17.42358398 2.86914062 C-12.49382285 -1.16232403 -6.02525989 -0.12133859 0 0 Z " fill="#1D1C1C" transform="translate(130.7109375,40.51171875)"/>
<path d="M0 0 C2.96357021 1.25951734 5.09769423 2.93474346 7.5 5.0625 C6.84 6.7125 6.18 8.3625 5.5 10.0625 C4.84 10.0625 4.18 10.0625 3.5 10.0625 C3.273125 10.64 3.04625 11.2175 2.8125 11.8125 C0.76518522 15.32218249 -1.70859335 17.47090374 -5.60546875 18.7578125 C-7.55717038 19.24832866 -9.52797751 19.66141068 -11.5 20.0625 C-10.05218207 23.50678265 -8.22305391 25.42380962 -5.375 27.8125 C-4.65054688 28.42609375 -3.92609375 29.0396875 -3.1796875 29.671875 C-2.62539062 30.13078125 -2.07109375 30.5896875 -1.5 31.0625 C-2.29189533 36.33269997 -4.21135426 39.82544117 -8.5 43.0625 C-11.41561477 43.65923265 -13.49415743 43.4252741 -16.5 43.0625 C-16.17 41.4125 -15.84 39.7625 -15.5 38.0625 C-12.035 37.5675 -12.035 37.5675 -8.5 37.0625 C-8.005 34.0925 -8.005 34.0925 -7.5 31.0625 C-8.45712891 30.77246094 -8.45712891 30.77246094 -9.43359375 30.4765625 C-10.25988281 30.21617187 -11.08617188 29.95578125 -11.9375 29.6875 C-13.17306641 29.30464844 -13.17306641 29.30464844 -14.43359375 28.9140625 C-16.5 28.0625 -16.5 28.0625 -17.5 26.0625 C-17.90637049 22.67801431 -17.97712473 19.44166575 -17.5 16.0625 C-14.19803972 12.54751002 -10.2069668 12.80523562 -5.65625 12.43359375 C-2.43964042 11.88001058 -0.70006816 10.40007242 1.5 8.0625 C1.83 7.0725 2.16 6.0825 2.5 5.0625 C0.51508358 5.32926204 0.51508358 5.32926204 -1.5 6.0625 C-1.83 7.0525 -2.16 8.0425 -2.5 9.0625 C-4.48 9.0625 -6.46 9.0625 -8.5 9.0625 C-8.15657251 5.97165263 -7.24044345 4.73805431 -5.25 2.25 C-2.5 0.0625 -2.5 0.0625 0 0 Z " fill="#F40D0E" transform="translate(108.5,125.9375)"/>
<path d="M0 0 C0 10.89 0 21.78 0 33 C-3.3 33 -6.6 33 -10 33 C-10.495 31.515 -10.495 31.515 -11 30 C-13.31 29.67 -15.62 29.34 -18 29 C-18 22.73 -18 16.46 -18 10 C-15.36 10 -12.72 10 -10 10 C-10 16.27 -10 22.54 -10 29 C-8.35 29 -6.7 29 -5 29 C-5 22.73 -5 16.46 -5 10 C-6.32 9.67 -7.64 9.34 -9 9 C-9 6 -9 6 -7.5390625 4.39453125 C-6.90742188 3.87246094 -6.27578125 3.35039062 -5.625 2.8125 C-4.99851563 2.28269531 -4.37203125 1.75289062 -3.7265625 1.20703125 C-2 0 -2 0 0 0 Z " fill="#FCEAE9" transform="translate(173,135)"/>
<path d="M0 0 C0.33 0 0.66 0 1 0 C2.57165572 31.97441603 3.18810959 63.86660716 3.125 95.875 C3.12328796 96.74952694 3.12157593 97.62405388 3.11981201 98.52508163 C3.09704431 109.35013901 3.05691151 120.17506905 3 131 C2.67 131 2.34 131 2 131 C1.67 116.81 1.34 102.62 1 88 C0.34 89.65 -0.32 91.3 -1 93 C-1.66 93 -2.32 93 -3 93 C-2.76198368 81.31715125 -2.51896286 69.63441844 -2.26950932 57.95180798 C-2.1538428 52.52740873 -2.03991632 47.10298446 -1.92993164 41.6784668 C-1.82377519 36.44589009 -1.71309353 31.21342707 -1.59924126 25.98101234 C-1.55655353 23.98231716 -1.51551096 21.98358615 -1.4761219 19.98482323 C-1.42077764 17.19053511 -1.35964464 14.39643027 -1.29711914 11.60229492 C-1.28201294 10.77151428 -1.26690674 9.94073364 -1.25134277 9.08477783 C-1.1733116 5.82087287 -1.03895367 3.116861 0 0 Z " fill="#181515" transform="translate(175,42)"/>
<path d="M0 0 C19.8 0 39.6 0 60 0 C60 0.99 60 1.98 60 3 C41.19 3 22.38 3 3 3 C3 31.38 3 59.76 3 89 C2.67 89 2.34 89 2 89 C1.67 75.8 1.34 62.6 1 49 C0.67 49 0.34 49 0 49 C0 32.83 0 16.66 0 0 Z " fill="#8B6E65" transform="translate(36,31)"/>
<path d="M0 0 C23.43 0 46.86 0 71 0 C71 0.66 71 1.32 71 2 C71.928125 1.87625 72.85625 1.7525 73.8125 1.625 C81.59990848 1.67219642 88.4734905 7.18206367 93.9375 12.25 C98.12135246 16.65129282 100.27516095 21.22239229 102 27 C101.34 27 100.68 27 100 27 C100 26.01 100 25.02 100 24 C99.4225 23.95875 98.845 23.9175 98.25 23.875 C95.42629257 22.77689155 94.79032114 21.21666643 93.28125 18.69140625 C91.20337632 15.94835959 88.43457077 14.21470862 85.609375 12.296875 C84.81273437 11.65492187 84.81273437 11.65492187 84 11 C84 10.34 84 9.68 84 9 C83.38511719 8.79503906 82.77023438 8.59007812 82.13671875 8.37890625 C78.7578125 7.25260417 75.37890625 6.12630208 72 5 C59.27414403 3.13597822 46.59307816 2.63382886 33.75 2.4375 C30.32802196 2.37853371 26.90617721 2.31449503 23.484375 2.24609375 C22.67125854 2.23017181 21.85814209 2.21424988 21.02038574 2.19784546 C13.99143126 2.04060993 7.00590966 1.60164152 0 1 C0 0.67 0 0.34 0 0 Z " fill="#047EE0" transform="translate(110,0)"/>
<path d="M0 0 C0 0.99 0 1.98 0 3 C-0.61488281 3.32613281 -1.22976562 3.65226563 -1.86328125 3.98828125 C-3.07564453 4.64376953 -3.07564453 4.64376953 -4.3125 5.3125 C-5.11300781 5.74175781 -5.91351562 6.17101562 -6.73828125 6.61328125 C-9.02250381 7.89283846 -9.02250381 7.89283846 -10.66796875 9.66796875 C-11.10753906 10.10753906 -11.54710937 10.54710937 -12 11 C-12.66 11 -13.32 11 -14 11 C-14.66 12.65 -15.32 14.3 -16 16 C-16.66 16 -17.32 16 -18 16 C-18.2165625 17.1446875 -18.2165625 17.1446875 -18.4375 18.3125 C-19 21 -19 21 -20 24 C-20.26565622 26.79993219 -20.44378153 29.59943535 -20.62109375 32.40625 C-21 35 -21 35 -23 38 C-23.17596813 40.97356311 -23.23352978 43.84102175 -23.1875 46.8125 C-23.17960449 47.68600098 -23.17170898 48.55950195 -23.16357422 49.45947266 C-23.07792234 56.2669873 -22.88447194 63.07202386 -22.625 69.875 C-22.5943042 70.79514893 -22.5636084 71.71529785 -22.53198242 72.66333008 C-22.31813392 77.45344806 -21.82720215 81.49884348 -20 86 C-16.37 86.66 -12.74 87.32 -9 88 C-9 88.33 -9 88.66 -9 89 C-20.28845091 89.3945478 -20.28845091 89.3945478 -24 87 C-25.12667002 83.81241355 -25.14376246 80.72192851 -25.17700195 77.36450195 C-25.18983719 76.23264969 -25.20267242 75.10079742 -25.21589661 73.93464661 C-25.22328354 72.71484604 -25.23067047 71.49504547 -25.23828125 70.23828125 C-25.246353 68.9779155 -25.25442474 67.71754974 -25.26274109 66.41899109 C-25.27657277 63.75007462 -25.28759126 61.08128124 -25.29516602 58.41235352 C-25.30619939 55.01417693 -25.34057324 51.61666075 -25.38033772 48.21871662 C-25.41297146 44.95447128 -25.41729713 41.69016481 -25.42578125 38.42578125 C-25.44328934 37.21610184 -25.46079742 36.00642242 -25.47883606 34.76008606 C-25.46050076 27.56769384 -24.55953281 22.27480755 -21 16 C-20.46375 14.989375 -19.9275 13.97875 -19.375 12.9375 C-18.92125 12.298125 -18.4675 11.65875 -18 11 C-17.34 11 -16.68 11 -16 11 C-15.79375 10.443125 -15.5875 9.88625 -15.375 9.3125 C-12.79072909 4.9662262 -9.33370706 2.53861247 -4.75 0.6875 C-2 0 -2 0 0 0 Z " fill="#4783B8" transform="translate(32,5)"/>
<path d="M0 0 C1.03789581 1.64333504 2.03567924 3.31243867 3 5 C3.66 5.66 4.32 6.32 5 7 C5 8.32 5 9.64 5 11 C2.08366224 9.69267618 0.24135944 8.24135944 -2 6 C-2.66 6 -3.32 6 -4 6 C-4 8.31 -4 10.62 -4 13 C-0.7 13.99 2.6 14.98 6 16 C6 17.32 6 18.64 6 20 C-2.58 20 -11.16 20 -20 20 C-18.25403935 16.5080787 -17.04031109 14.78397752 -14.375 12.109375 C-13.66859375 11.40039062 -12.9621875 10.69140625 -12.234375 9.9609375 C-11.49703125 9.23132813 -10.7596875 8.50171875 -10 7.75 C-9.26265625 7.00492188 -8.5253125 6.25984375 -7.765625 5.4921875 C-6.70601562 4.43644531 -6.70601562 4.43644531 -5.625 3.359375 C-4.97789063 2.71452148 -4.33078125 2.06966797 -3.6640625 1.40527344 C-2 0 -2 0 0 0 Z " fill="#FCFCFB" transform="translate(72,149)"/>
<path d="M0 0 C2.1640625 1.11328125 2.1640625 1.11328125 4 3 C4.49609375 5.99609375 4.49609375 5.99609375 4.4375 9.4375 C4.43621094 10.57058594 4.43492188 11.70367187 4.43359375 12.87109375 C3.9670592 16.23770792 3.47184516 17.69033472 1 20 C-1.83568858 20.66259654 -4.04239226 20.28167693 -7 20 C-9 18 -9 18 -9.1953125 14.0859375 C-9.18200376 12.51550649 -9.15813602 10.94513779 -9.125 9.375 C-9.11597656 8.57320312 -9.10695312 7.77140625 -9.09765625 6.9453125 C-9.07406223 4.96341477 -9.03819065 2.98167019 -9 1 C-5.70952793 -0.09682402 -3.44927034 -0.28157309 0 0 Z " fill="#F4F5FD" transform="translate(73,101)"/>
<path d="M0 0 C0.66 0 1.32 0 2 0 C2 0.99 2 1.98 2 3 C2.99 3.33 3.98 3.66 5 4 C6.2395931 7.12051323 6.12100847 10.27223861 6.11352539 13.59472656 C6.11344986 14.71558655 6.11337433 15.83644653 6.11329651 16.99127197 C6.10813522 18.19555847 6.10297394 19.39984497 6.09765625 20.640625 C6.0962413 21.87794373 6.09482635 23.11526245 6.09336853 24.39007568 C6.0887211 27.67144941 6.07974347 30.95277373 6.06866455 34.23413086 C6.0584152 37.58577011 6.05394859 40.93741148 6.04882812 44.2890625 C6.03780025 50.85939431 6.02106296 57.42969311 6 64 C5.01 64.495 5.01 64.495 4 65 C3.67 55.76 3.34 46.52 3 37 C2.67 37 2.34 37 2 37 C2 34.36 2 31.72 2 29 C1.34 29 0.68 29 0 29 C0 19.43 0 9.86 0 0 Z " fill="#50A3E8" transform="translate(208,24)"/>
<path d="M0 0 C1.875 0.5625 1.875 0.5625 4 2 C5.125 5.375 5.125 5.375 6 9 C6.62469505 10.35350594 7.2716331 11.69934483 8 13 C7.01 14.485 7.01 14.485 6 16 C4.34656748 21.45632732 3.69848032 28.173973 6.1171875 33.42578125 C7.3340487 35.36107181 8.59212695 37.19993375 10 39 C6.25722814 38.73887638 4.31692476 38.24708212 1.32568359 35.91503906 C-1.63263956 32.20704216 -1.59462989 30.24557281 -1.5234375 25.546875 C-1.51873444 24.84604797 -1.51403137 24.14522095 -1.50918579 23.42315674 C-1.48793144 21.19774816 -1.43134149 18.97476668 -1.375 16.75 C-1.35848411 15.23960572 -1.3441383 13.72918605 -1.33203125 12.21875 C-1.19607622 1.19607622 -1.19607622 1.19607622 0 0 Z " fill="#051BF3" transform="translate(45,87)"/>
<path d="M0 0 C1.20804794 0.00424484 2.41609589 0.00848969 3.66075134 0.01286316 C7.49151587 0.02955781 11.32174017 0.06719401 15.15234375 0.10546875 C17.76106007 0.12052744 20.3697847 0.13421377 22.97851562 0.14648438 C29.34914038 0.1794312 35.71945345 0.22953861 42.08984375 0.29296875 C42.08984375 0.62296875 42.08984375 0.95296875 42.08984375 1.29296875 C36.70493734 2.20954856 31.54754186 2.40435034 26.08984375 2.29296875 C26.08984375 2.95296875 26.08984375 3.61296875 26.08984375 4.29296875 C24.87925293 4.31278809 23.66866211 4.33260742 22.42138672 4.35302734 C17.91483335 4.42930211 13.40859366 4.51798555 8.90234375 4.61035156 C6.95481577 4.64855108 5.0072194 4.6834195 3.05957031 4.71484375 C0.25430929 4.76069071 -2.55048464 4.81865241 -5.35546875 4.87890625 C-6.65425461 4.89623306 -6.65425461 4.89623306 -7.97927856 4.91390991 C-12.66377667 5.02736651 -16.50378261 5.50660106 -20.91015625 7.29296875 C-20.91015625 6.63296875 -20.91015625 5.97296875 -20.91015625 5.29296875 C-22.56015625 5.62296875 -24.21015625 5.95296875 -25.91015625 6.29296875 C-18.69452855 -0.29521306 -9.19861367 -0.12314477 0 0 Z " fill="#0980DD" transform="translate(52.91015625,-0.29296875)"/>
<path d="M0 0 C3 3 3 3 3.2487793 6.64526367 C3.20640031 8.15335919 3.14714268 9.66104136 3.07421875 11.16796875 C3.04777786 11.96278152 3.02133698 12.7575943 2.99409485 13.57649231 C2.90634586 16.11426039 2.79719492 18.65059498 2.6875 21.1875 C2.62423955 22.90815181 2.56237354 24.6288555 2.50195312 26.34960938 C2.35342113 30.5675111 2.17598184 34.7827966 2 39 C13.22 38.67 24.44 38.34 36 38 C27.25218732 29.22384661 27.25218732 29.22384661 18 21 C18.33 20.34 18.66 19.68 19 19 C19.66 19.33 20.32 19.66 21 20 C21 20.66 21 21.32 21 22 C21.57975586 22.25450928 22.15951172 22.50901855 22.75683594 22.77124023 C25.24044664 24.13171179 26.8967063 25.65362094 28.890625 27.66015625 C29.59960938 28.37107422 30.30859375 29.08199219 31.0390625 29.81445312 C32.13347656 30.92723633 32.13347656 30.92723633 33.25 32.0625 C33.99507812 32.80822266 34.74015625 33.55394531 35.5078125 34.32226562 C41 39.85971841 41 39.85971841 41 41 C27.47 41 13.94 41 0 41 C0 27.47 0 13.94 0 0 Z " fill="#222123" transform="translate(74,45)"/>
<path d="M0 0 C0 0.99 0 1.98 0 3 C2.97 3.495 2.97 3.495 6 4 C6 4.99 6 5.98 6 7 C6.66 7.33 7.32 7.66 8 8 C7.01 9.485 7.01 9.485 6 11 C6.99 11.66 7.98 12.32 9 13 C9 13.99 9 14.98 9 16 C9.90363281 16 10.80726562 16 11.73828125 16 C18.94832056 16 25.85429066 16.06285779 33 17 C33 17.33 33 17.66 33 18 C18.60345911 19.28901067 8.75621481 19.39589369 -3 10 C-5.04834318 8.0638948 -6.41787455 6.37318817 -8 4 C-7.67 3.01 -7.34 2.02 -7 1 C-4.53721199 -0.231394 -2.7204945 -0.07159196 0 0 Z " fill="#68CCE8" transform="translate(23,192)"/>
<path d="M0 0 C0.66 0 1.32 0 2 0 C3.01688324 8.60719026 3.04350477 17.10353067 2.97827148 25.75756836 C2.947107 32.36727317 3.23427958 38.83641 3.87890625 45.41796875 C4 48 4 48 3 51 C2.78092893 53.28161529 2.60962421 55.56793753 2.46484375 57.85546875 C2.42186661 58.51710526 2.37888947 59.17874176 2.33460999 59.86042786 C2.19849335 61.9692317 2.06792653 64.07833734 1.9375 66.1875 C1.84606899 67.61916404 1.75427636 69.05080503 1.66210938 70.48242188 C1.43721291 73.98802377 1.21729171 77.49391758 1 81 C0.67 81 0.34 81 0 81 C0 54.27 0 27.54 0 0 Z " fill="#0A70C3" transform="translate(188,102)"/>
<path d="M0 0 C18.20191853 -0.02334363 36.40383318 -0.04098639 54.60576344 -0.05181217 C63.05692355 -0.05697201 71.50807437 -0.06400878 79.95922852 -0.07543945 C87.32385934 -0.0853958 94.68848343 -0.0918557 102.05312079 -0.09408849 C105.95388254 -0.09539398 109.85462504 -0.09846963 113.75538063 -0.10573006 C117.4250859 -0.11250525 121.09476394 -0.11461389 124.76447487 -0.11310768 C126.7570391 -0.113515 128.74960035 -0.11890242 130.74215698 -0.12442017 C132.51531532 -0.12235817 132.51531532 -0.12235817 134.32429504 -0.12025452 C135.35393781 -0.12117631 136.38358057 -0.1220981 137.44442463 -0.12304783 C140 -0 140 -0 143 1 C143 1.66 143 2.32 143 3 C136.84765625 3.09765625 136.84765625 3.09765625 135 3 C134.67 2.67 134.34 2.34 134 2 C132.25373476 1.90370403 130.50354095 1.87812461 128.75462341 1.87974548 C127.04869522 1.87768349 127.04869522 1.87768349 125.30830383 1.87557983 C124.04954941 1.87917511 122.79079498 1.88277039 121.49389648 1.88647461 C120.17701843 1.88632858 118.86014038 1.88618256 117.50335693 1.8860321 C113.88161732 1.88574413 110.25991054 1.89164076 106.63817859 1.89860606 C102.85718116 1.9048397 99.07618305 1.90544341 95.29518127 1.90663147 C88.1305571 1.90974476 80.9659481 1.91795811 73.80133063 1.92798096 C65.64668838 1.93914218 57.49204543 1.94465257 49.33739746 1.94967639 C32.55825607 1.96014072 15.77912997 1.97774011 -1 2 C-0.67 1.34 -0.34 0.68 0 0 Z " fill="#C2EAFE" transform="translate(45,5)"/>
<path d="M0 0 C5.30643041 -0.50537432 7.86680312 0.69344249 12 4 C15.03501108 7.2502601 15.4083127 9.53467144 15.375 13.9375 C15.38273437 14.95714844 15.39046875 15.97679688 15.3984375 17.02734375 C14.95321242 20.34907205 13.89914116 22.27186865 12 25 C11.01 24.67 10.02 24.34 9 24 C8.96261719 22.79601562 8.92523438 21.59203125 8.88671875 20.3515625 C8.82107072 18.77600989 8.75462299 17.20049046 8.6875 15.625 C8.66494141 14.8309375 8.64238281 14.036875 8.61914062 13.21875 C8.52214925 11.13784419 8.27005175 9.06558668 8 7 C5.09907498 5.06604999 4.10325263 4.69868059 0.8125 4.375 C-0.445625 4.25125 -1.70375 4.1275 -3 4 C-2.01 3.67 -1.02 3.34 0 3 C0 2.01 0 1.02 0 0 Z " fill="#1424E8" transform="translate(68,97)"/>
<path d="M0 0 C0.33 0 0.66 0 1 0 C1.91015525 10.40160846 2.13423002 20.68539315 2.09765625 31.1171875 C2.09578545 32.7114355 2.09436469 34.30568408 2.09336853 35.89993286 C2.0895954 40.04589495 2.07981119 44.19182061 2.06866455 48.33776855 C2.05833693 52.58845528 2.05384688 56.83914803 2.04882812 61.08984375 C2.03818289 69.39324567 2.02117107 77.69661827 2 86 C1.67 86 1.34 86 1 86 C0.67 72.8 0.34 59.6 0 46 C-0.33 46 -0.66 46 -1 46 C-1.02513587 41.6990596 -1.04306094 37.39816063 -1.05493164 33.09716797 C-1.05989187 31.64078016 -1.06666215 30.18439715 -1.07543945 28.72802734 C-1.13194643 19.09524918 -0.84225236 9.60376594 0 0 Z " fill="#644B47" transform="translate(37,34)"/>
<path d="M0 0 C0.33 0 0.66 0 1 0 C1 21.78 1 43.56 1 66 C0.34 66 -0.32 66 -1 66 C-2.15202666 49.66590773 -2.10589013 33.36409773 -2 17 C-1.67 17 -1.34 17 -1 17 C-0.67 11.39 -0.34 5.78 0 0 Z " fill="#5693C5" transform="translate(34,30)"/>
<path d="M0 0 C18.48 0 36.96 0 56 0 C51.49343663 6.75984506 51.49343663 6.75984506 49.16015625 9.2890625 C48.65419922 9.83820312 48.14824219 10.38734375 47.62695312 10.953125 C47.11068359 11.50484375 46.59441406 12.0565625 46.0625 12.625 C45.55009766 13.18445312 45.03769531 13.74390625 44.50976562 14.3203125 C41.53689719 17.52360657 38.50002974 20.35725195 35 23 C34.34 22.34 33.68 21.68 33 21 C42.405 11.595 42.405 11.595 52 2 C34.84 1.67 17.68 1.34 0 1 C0 0.67 0 0.34 0 0 Z " fill="#555554" transform="translate(118,43)"/>
<path d="M0 0 C2.96357021 1.25951734 5.09769423 2.93474346 7.5 5.0625 C6.84 6.7125 6.18 8.3625 5.5 10.0625 C4.84 10.0625 4.18 10.0625 3.5 10.0625 C3.29375 10.64 3.0875 11.2175 2.875 11.8125 C1.00249112 14.87660544 -1.46958519 16.21789968 -4.5 18.0625 C-4.5 16.7425 -4.5 15.4225 -4.5 14.0625 C-7.14 14.0625 -9.78 14.0625 -12.5 14.0625 C-12.5 13.7325 -12.5 13.4025 -12.5 13.0625 C-11.61248047 13.02382812 -11.61248047 13.02382812 -10.70703125 12.984375 C-5.47644334 12.60893313 -2.25395328 12.05107536 1.5 8.0625 C1.83 7.0725 2.16 6.0825 2.5 5.0625 C0.51508358 5.32926204 0.51508358 5.32926204 -1.5 6.0625 C-1.83 7.0525 -2.16 8.0425 -2.5 9.0625 C-4.48 9.0625 -6.46 9.0625 -8.5 9.0625 C-8.15657251 5.97165263 -7.24044345 4.73805431 -5.25 2.25 C-2.5 0.0625 -2.5 0.0625 0 0 Z " fill="#ED1616" transform="translate(108.5,125.9375)"/>
<path d="M0 0 C0 10.89 0 21.78 0 33 C-0.33 33 -0.66 33 -1 33 C-1.33 27.39 -1.66 21.78 -2 16 C-2.33 18.97 -2.66 21.94 -3 25 C-3.66 25 -4.32 25 -5 25 C-5 20.05 -5 15.1 -5 10 C-6.32 9.67 -7.64 9.34 -9 9 C-9 6 -9 6 -7.5390625 4.39453125 C-6.59160156 3.61142578 -6.59160156 3.61142578 -5.625 2.8125 C-4.68527344 2.01779297 -4.68527344 2.01779297 -3.7265625 1.20703125 C-2 0 -2 0 0 0 Z " fill="#DCD0D2" transform="translate(173,135)"/>
<path d="M0 0 C0.33 0 0.66 0 1 0 C1.54559613 14.7441549 2.08618632 29.49592834 2.25 44.25 C2.27126953 45.20011963 2.29253906 46.15023926 2.31445312 47.12915039 C2.31896484 47.99918701 2.32347656 48.86922363 2.328125 49.765625 C2.3374707 50.51618164 2.34681641 51.26673828 2.35644531 52.04003906 C1.90350412 54.53059516 0.81490716 55.3081806 -1 57 C-1.02531216 49.36450914 -1.04285088 41.72902905 -1.05493164 34.09350586 C-1.05996681 31.49486893 -1.0667953 28.89623485 -1.07543945 26.29760742 C-1.08754062 22.56688741 -1.09323641 18.83620478 -1.09765625 15.10546875 C-1.10281754 13.93976852 -1.10797882 12.7740683 -1.11329651 11.57304382 C-1.11337204 10.49214981 -1.11344757 9.4112558 -1.11352539 8.29760742 C-1.115746 7.34496506 -1.11796661 6.39232269 -1.12025452 5.41081238 C-1 3 -1 3 0 0 Z " fill="#010101" transform="translate(175,42)"/>
<path d="M0 0 C1.03789581 1.64333504 2.03567924 3.31243867 3 5 C3.66 5.66 4.32 6.32 5 7 C5 8.32 5 9.64 5 11 C2.08366224 9.69267618 0.24135944 8.24135944 -2 6 C-2.66 6 -3.32 6 -4 6 C-4 8.31 -4 10.62 -4 13 C-3.34 13.33 -2.68 13.66 -2 14 C-3.32 14 -4.64 14 -6 14 C-6.33 12.02 -6.66 10.04 -7 8 C-7.721875 8.721875 -8.44375 9.44375 -9.1875 10.1875 C-11.79166667 12.79166667 -14.39583333 15.39583333 -17 18 C-9.41 18.33 -1.82 18.66 6 19 C6 19.33 6 19.66 6 20 C-2.58 20 -11.16 20 -20 20 C-18.25403935 16.5080787 -17.04031109 14.78397752 -14.375 12.109375 C-13.66859375 11.40039062 -12.9621875 10.69140625 -12.234375 9.9609375 C-11.49703125 9.23132813 -10.7596875 8.50171875 -10 7.75 C-9.26265625 7.00492188 -8.5253125 6.25984375 -7.765625 5.4921875 C-6.70601562 4.43644531 -6.70601562 4.43644531 -5.625 3.359375 C-4.97789063 2.71452148 -4.33078125 2.06966797 -3.6640625 1.40527344 C-2 0 -2 0 0 0 Z " fill="#C5BABC" transform="translate(72,149)"/>
<path d="M0 0 C7.32164767 -0.36608238 12.71219033 0.56801651 18.25 5.375 C19.50725802 6.57577963 20.75824711 7.78319303 22 9 C22.7425 9.598125 23.485 10.19625 24.25 10.8125 C27.12365995 14.40457494 28.4575489 18.7008278 30 23 C29.34 23 28.68 23 28 23 C28 22.01 28 21.02 28 20 C27.4225 19.95875 26.845 19.9175 26.25 19.875 C23.42629257 18.77689155 22.79032114 17.21666643 21.28125 14.69140625 C19.20337632 11.94835959 16.43457077 10.21470862 13.609375 8.296875 C13.07828125 7.86890625 12.5471875 7.4409375 12 7 C12 6.34 12 5.68 12 5 C11.38511719 4.80664062 10.77023438 4.61328125 10.13671875 4.4140625 C8.92435547 4.02347656 8.92435547 4.02347656 7.6875 3.625 C6.88699219 3.36976562 6.08648437 3.11453125 5.26171875 2.8515625 C3 2 3 2 0 0 Z " fill="#1D90EF" transform="translate(182,4)"/>
<path d="M0 0 C3.82410789 3.82410789 2.72165007 10.89691803 3 16 C3.33 10.72 3.66 5.44 4 0 C4.33 0 4.66 0 5 0 C5.33 5.61 5.66 11.22 6 17 C7.32 17.66 8.64 18.32 10 19 C10 19.99 10 20.98 10 22 C5.38 22 0.76 22 -4 22 C-4 20.68 -4 19.36 -4 18 C-2.68 18 -1.36 18 0 18 C0 12.06 0 6.12 0 0 Z " fill="#F5E2E1" transform="translate(144,146)"/>
<path d="M0 0 C0.99 0 1.98 0 3 0 C3.598125 0.804375 4.19625 1.60875 4.8125 2.4375 C6.81519412 5.25221329 6.81519412 5.25221329 10.125 5.9375 C11.07375 5.958125 12.0225 5.97875 13 6 C13.66 5.34 14.32 4.68 15 4 C16.32 4.66 17.64 5.32 19 6 C17.68 6 16.36 6 15 6 C15 7.32 15 8.64 15 10 C25.56 10 36.12 10 47 10 C47 10.33 47 10.66 47 11 C41.27098976 11.17347928 35.54351833 11.30027012 29.8125 11.38452148 C27.86463786 11.41965164 25.91695937 11.46736833 23.96972656 11.52807617 C21.16425257 11.61332934 18.36122361 11.65276045 15.5546875 11.68359375 C14.68883026 11.71972275 13.82297302 11.75585175 12.93087769 11.79307556 C9.36591436 11.79537305 6.9699415 11.73736023 4.0737915 9.53567505 C0.94999538 6.1175504 0 4.79912679 0 0 Z " fill="#B63536" transform="translate(125,158)"/>
<path d="M0 0 C1.98 0 3.96 0 6 0 C6 5.94 6 11.88 6 18 C4.02 18 2.04 18 0 18 C0 12.06 0 6.12 0 0 Z " fill="#FCFBFA" transform="translate(156,146)"/>
<path d="M0 0 C2.98095703 -0.34057617 2.98095703 -0.34057617 6.7578125 -0.29296875 C7.42086395 -0.28872391 8.08391541 -0.28447906 8.76705933 -0.28010559 C10.88678441 -0.26329971 13.00556188 -0.22564701 15.125 -0.1875 C16.56118419 -0.17245549 17.99738328 -0.15876668 19.43359375 -0.14648438 C22.95603764 -0.1133909 26.47792636 -0.0615968 30 0 C30 0.66 30 1.32 30 2 C37.59 1.67 45.18 1.34 53 1 C52.67 1.66 52.34 2.32 52 3 C34.18 3 16.36 3 -2 3 C-1.34 2.01 -0.68 1.02 0 0 Z " fill="#9ACBF5" transform="translate(38,27)"/>
<path d="M0 0 C1.63671875 1.39453125 1.63671875 1.39453125 4.19921875 4.01953125 C3.92531539 8.53893661 1.95217616 11.3533419 -0.96875 14.63671875 C-4.18882535 17.06722339 -6.90993749 16.48911584 -10.80078125 16.01953125 C-10.47078125 14.36953125 -10.14078125 12.71953125 -9.80078125 11.01953125 C-6.33578125 10.52453125 -6.33578125 10.52453125 -2.80078125 10.01953125 C-2.47078125 8.03953125 -2.14078125 6.05953125 -1.80078125 4.01953125 C-4.11078125 3.35953125 -6.42078125 2.69953125 -8.80078125 2.01953125 C-8.80078125 1.68953125 -8.80078125 1.35953125 -8.80078125 1.01953125 C-2.77541127 -1.51112414 -2.77541127 -1.51112414 0 0 Z " fill="#E22629" transform="translate(102.80078125,152.98046875)"/>
<path d="M0 0 C0.99 0 1.98 0 3 0 C3 5.28 3 10.56 3 16 C5.64 16 8.28 16 11 16 C11.33 17.32 11.66 18.64 12 20 C9.03 20 6.06 20 3 20 C3 19.01 3 18.02 3 17 C1.68 16.67 0.36 16.34 -1 16 C-1.02685095 13.52076199 -1.04676547 11.0418116 -1.0625 8.5625 C-1.07506836 7.50192383 -1.07506836 7.50192383 -1.08789062 6.41992188 C-1.09653588 4.61306441 -1.05220011 2.80612397 -1 1 C-0.67 0.67 -0.34 0.34 0 0 Z " fill="#FD0405" transform="translate(151,148)"/>
<path d="M0 0 C0.33 0.99 0.66 1.98 1 3 C4.3 3 7.6 3 11 3 C10 7 10 7 8 9 C7.01 9 6.02 9 5 9 C5 9.99 5 10.98 5 12 C5.99 12.33 6.98 12.66 8 13 C2.97307937 12.54300722 -0.14896261 10.00758252 -4 7 C-2.92598892 4.08482708 -2.22189824 2.22189824 0 0 Z " fill="#F02426" transform="translate(129,142)"/>
<path d="M0 0 C6.6 0 13.2 0 20 0 C17.67173652 2.32826348 16.05177347 2.75133003 12.9375 3.75 C7.31245331 5.70911917 2.76746544 8.46854412 -2 12 C-2.33 11.34 -2.66 10.68 -3 10 C-1.36587557 8.29159719 -0.13093906 7.06546953 2 6 C1.01 5.34 0.02 4.68 -1 4 C-0.67 2.68 -0.34 1.36 0 0 Z " fill="#04060D" transform="translate(20,0)"/>
<path d="M0 0 C0.33 0 0.66 0 1 0 C1.60547805 11.12243853 2.10089252 22.23433309 2.125 33.375 C2.13176758 34.64670044 2.13176758 34.64670044 2.13867188 35.9440918 C2.12648478 41.04896251 1.73180613 45.94705291 1 51 C0.34 51 -0.32 51 -1 51 C-1.02501624 45.8262567 -1.04300717 40.65254984 -1.05493164 35.47875977 C-1.05991116 33.72452174 -1.0666972 31.97028776 -1.07543945 30.21606445 C-1.12459647 20.08682663 -1.01746167 10.08858554 0 0 Z " fill="#5A97CA" transform="translate(188,45)"/>
<path d="M0 0 C1.875 0.5625 1.875 0.5625 4 2 C5.125 5.375 5.125 5.375 6 9 C6.62469505 10.35350594 7.2716331 11.69934483 8 13 C7.01 13.99 6.02 14.98 5 16 C5 14.68 5 13.36 5 12 C4.525625 12.495 4.05125 12.99 3.5625 13.5 C2 15 2 15 1 15 C0.67 20.94 0.34 26.88 0 33 C-0.33 33 -0.66 33 -1 33 C-1.02465392 28.46102295 -1.04283789 23.92208457 -1.05493164 19.38305664 C-1.0599714 17.83780234 -1.0668032 16.29255284 -1.07543945 14.74731445 C-1.08752076 12.53074971 -1.09323173 10.31424782 -1.09765625 8.09765625 C-1.10281754 7.4028566 -1.10797882 6.70805695 -1.11329651 5.99220276 C-1.11349277 4.3277067 -1.06189129 2.66334501 -1 1 C-0.67 0.67 -0.34 0.34 0 0 Z " fill="#223DF2" transform="translate(45,87)"/>
<path d="M0 0 C2.02396384 3.35602491 2.22892562 5.85815737 2.16699219 9.74658203 C2.15327576 10.90102814 2.13955933 12.05547424 2.12542725 13.24490356 C2.08654388 15.10754349 2.08654388 15.10754349 2.046875 17.0078125 C2.02659241 18.28477997 2.00630981 19.56174744 1.9854126 20.87741089 C1.93984154 23.57589811 1.8901191 26.27392817 1.83349609 28.97216797 C1.76143001 32.4333785 1.70750602 35.89459117 1.65903854 39.35620308 C1.61043088 42.65691821 1.54678246 45.95733377 1.484375 49.2578125 C1.46654968 50.50362091 1.44872437 51.74942932 1.43035889 53.0329895 C1.40403381 54.18113129 1.37770874 55.32927307 1.35058594 56.51220703 C1.33122986 57.52606476 1.31187378 58.53992249 1.29193115 59.58450317 C1 62 1 62 -1 64 C-0.99777939 63.30731018 -0.99555878 62.61462036 -0.99327087 61.90093994 C-0.9711663 54.69861364 -0.95607171 47.49629696 -0.94506836 40.29394531 C-0.94060054 37.60513148 -0.93363881 34.91634118 -0.92456055 32.22753906 C-0.91244629 28.3652275 -0.90676055 24.50295208 -0.90234375 20.640625 C-0.89718246 19.4363385 -0.89202118 18.232052 -0.88670349 16.99127197 C-0.88662796 15.87041199 -0.88655243 14.749552 -0.88647461 13.59472656 C-0.884254 12.60877502 -0.88203339 11.62282349 -0.87974548 10.60699463 C-0.98865921 8.2458566 -1.32600009 6.25666764 -2 4 C-1.34 4 -0.68 4 0 4 C0 2.68 0 1.36 0 0 Z " fill="#020819" transform="translate(6,26)"/>
<path d="M0 0 C2.3125 2.1875 2.3125 2.1875 4 5 C4.09412123 8.76484909 3.04672668 9.9460846 0.5625 12.8125 C-2 15 -2 15 -4 15 C-4 14.34 -4 13.68 -4 13 C-3.34 13 -2.68 13 -2 13 C-2.33 12.01 -2.66 11.02 -3 10 C-1.68 8.68 -0.36 7.36 1 6 C-1.47266765 6.34444881 -1.47266765 6.34444881 -4 7 C-4.33 7.66 -4.66 8.32 -5 9 C-6.65 9 -8.3 9 -10 9 C-9.35875684 3.22881158 -5.59674318 0 0 0 Z " fill="#EC2A2C" transform="translate(168,126)"/>
<path d="M0 0 C0 0.99 0 1.98 0 3 C2.97 3.495 2.97 3.495 6 4 C6 4.99 6 5.98 6 7 C6.66 7.33 7.32 7.66 8 8 C6.8553125 8.2165625 6.8553125 8.2165625 5.6875 8.4375 C2.91827092 8.9632594 2.91827092 8.9632594 0 10 C-0.99 10 -1.98 10 -3 10 C-5.75 7.1875 -5.75 7.1875 -8 4 C-7.67 3.01 -7.34 2.02 -7 1 C-4.53721199 -0.231394 -2.7204945 -0.07159196 0 0 Z " fill="#53BCF2" transform="translate(23,192)"/>
<path d="M0 0 C1.97343939 3.30370725 2.24426845 5.77240515 2.22705078 9.59472656 C2.22689972 10.71558655 2.22674866 11.83644653 2.22659302 12.99127197 C2.21627045 14.19555847 2.20594788 15.39984497 2.1953125 16.640625 C2.1924826 17.87794373 2.18965271 19.11526245 2.18673706 20.39007568 C2.177442 23.67151541 2.15948705 26.95275754 2.1373291 30.23413086 C2.11683048 33.58575622 2.10789724 36.93739007 2.09765625 40.2890625 C2.0756003 46.85945223 2.04212582 53.42970996 2 60 C1.67 60 1.34 60 1 60 C0.96241577 58.51173706 0.96241577 58.51173706 0.92407227 56.9934082 C0.82862134 53.249013 0.72875956 49.50474533 0.62768555 45.76049805 C0.5848491 44.15180481 0.54314801 42.54308087 0.50268555 40.93432617 C0.27938459 32.08774886 -0.02888168 23.30590528 -0.89868164 14.49291992 C-1 12 -1 12 0 9 C0.06740865 7.43881572 0.08514456 5.8749748 0.0625 4.3125 C0.05347656 3.50425781 0.04445312 2.69601563 0.03515625 1.86328125 C0.02355469 1.24839844 0.01195312 0.63351563 0 0 Z " fill="#3A89CF" transform="translate(212,28)"/>
<path d="M0 0 C0 3 0 3 -1.8359375 5.17651367 C-2.67382812 5.99869385 -3.51171875 6.82087402 -4.375 7.66796875 C-5.27734375 8.56064453 -6.1796875 9.45332031 -7.109375 10.37304688 C-8.0727573 11.31136157 -9.03630108 12.2495105 -10 13.1875 C-10.96422346 14.13667769 -11.92777392 15.08653956 -12.890625 16.03710938 C-15.25386746 18.36490319 -17.62381482 20.68543133 -20 23 C-20.99 22.67 -21.98 22.34 -23 22 C-22.401875 21.443125 -21.80375 20.88625 -21.1875 20.3125 C-18.9453964 18.11435679 -18.9453964 18.11435679 -17.5625 15.5625 C-14.59538641 10.69643371 -10.83946489 7.8328575 -6 5 C-3.94618935 3.38907269 -1.97949211 1.70328391 0 0 Z " fill="#1A1A1C" transform="translate(105,112)"/>
<path d="M0 0 C0.33 0.66 0.66 1.32 1 2 C1.66 2.33 2.32 2.66 3 3 C2.01 5.31 1.02 7.62 0 10 C-2.97 10 -5.94 10 -9 10 C-8.67 8.35 -8.34 6.7 -8 5 C-7.34 5 -6.68 5 -6 5 C-6 3.35 -6 1.7 -6 0 C-3 -1 -3 -1 0 0 Z " fill="#F0E9E8" transform="translate(92,159)"/>
<path d="M0 0 C-0.50813332 4.20187168 -2.82155714 6.22254923 -5.75 9.125 C-6.61109375 9.99382812 -7.4721875 10.86265625 -8.359375 11.7578125 C-10.92182987 13.93362477 -12.8881144 14.86087382 -16 16 C-18.77152212 18.52056045 -18.77152212 18.52056045 -21 21 C-21.66 20.67 -22.32 20.34 -23 20 C-19.87904935 16.85012694 -16.75257094 13.70579867 -13.625 10.5625 C-12.73554687 9.66466797 -11.84609375 8.76683594 -10.9296875 7.84179688 C-9.65351562 6.56079102 -9.65351562 6.56079102 -8.3515625 5.25390625 C-7.56604004 4.46314697 -6.78051758 3.6723877 -5.97119141 2.85766602 C-3.86855093 0.87612138 -2.8988941 0 0 0 Z " fill="#1C1D1D" transform="translate(118,99)"/>
<path d="M0 0 C2.62697064 -0.22137393 5.00893964 -0.28162025 7.625 -0.1875 C8.33140625 -0.17396484 9.0378125 -0.16042969 9.765625 -0.14648438 C11.51074128 -0.1111104 13.25546608 -0.05730221 15 0 C15 0.66 15 1.32 15 2 C16.60875 1.9071875 16.60875 1.9071875 18.25 1.8125 C22.10866187 2.00543309 23.28817788 2.39665076 26 5 C25.01 5.495 25.01 5.495 24 6 C23.34 5.67 22.68 5.34 22 5 C19.2671289 4.79045078 16.54932839 4.62492708 13.8125 4.5 C8.47867505 4.2501938 3.27614529 3.83859263 -2 3 C-1.34 2.01 -0.68 1.02 0 0 Z " fill="#1184E1" transform="translate(166,0)"/>
<path d="M0 0 C1.32 0 2.64 0 4 0 C4 6.27 4 12.54 4 19 C2.68 19 1.36 19 0 19 C0 12.73 0 6.46 0 0 Z " fill="#FC0606" transform="translate(164,145)"/>
<path d="M0 0 C6.9234133 -0.02531927 13.84681469 -0.04285389 20.77026367 -0.05493164 C23.126388 -0.05996575 25.4825092 -0.06679346 27.83862305 -0.07543945 C31.2218503 -0.0875453 34.60503632 -0.09323749 37.98828125 -0.09765625 C39.57277824 -0.10539818 39.57277824 -0.10539818 41.18928528 -0.11329651 C42.17007553 -0.11337204 43.15086578 -0.11344757 44.16137695 -0.11352539 C45.45710381 -0.11685631 45.45710381 -0.11685631 46.77900696 -0.12025452 C49 0 49 0 52 1 C52 1.66 52 2.32 52 3 C45.84765625 3.09765625 45.84765625 3.09765625 44 3 C43.505 2.505 43.505 2.505 43 2 C40.67973511 1.95003467 38.38183707 1.95945495 36.0625 2 C24.0304026 2.11734729 12.0180533 1.52113805 0 1 C0 0.67 0 0.34 0 0 Z " fill="#C2EAFE" transform="translate(136,5)"/>
<path d="M0 0 C0.66 0.33 1.32 0.66 2 1 C1.67 6.61 1.34 12.22 1 18 C0.01 18 -0.98 18 -2 18 C-2 17.01 -2 16.02 -2 15 C-2.66 15 -3.32 15 -4 15 C-4.63019694 5.98468271 -4.63019694 5.98468271 -2 1.875 C-1.34 1.25625 -0.68 0.6375 0 0 Z " fill="#081FEF" transform="translate(62,99)"/>
<path d="M0 0 C2.64 0 5.28 0 8 0 C5.09075676 5.93970494 1.47609444 10.21379408 -4 14 C-6.25 14.6953125 -6.25 14.6953125 -8 15 C-6.92598892 12.08482708 -6.22189824 10.22189824 -4 8 C-2.68 8 -1.36 8 0 8 C0 5.36 0 2.72 0 0 Z " fill="#4FB4E5" transform="translate(200,192)"/>
<path d="M0 0 C0.99 0.33 1.98 0.66 3 1 C-2.82628904 8.15801225 -9.4382985 14.52591766 -16 21 C-16.66 20.67 -17.32 20.34 -18 20 C-4.76595745 4.76595745 -4.76595745 4.76595745 0 0 Z " fill="#161616" transform="translate(113,44)"/>
<path d="M0 0 C5.94 0 11.88 0 18 0 C17.67 1.98 17.34 3.96 17 6 C17.66 6.33 18.32 6.66 19 7 C18.01 7.495 18.01 7.495 17 8 C14.86328125 7.0390625 14.86328125 7.0390625 12.3125 5.625 C8.06112382 3.39750101 4.76672005 2.31087305 0 2 C0 1.34 0 0.68 0 0 Z " fill="#03050A" transform="translate(181,0)"/>
<path d="M0 0 C0 0.66 0 1.32 0 2 C-0.86882813 2.04898437 -1.73765625 2.09796875 -2.6328125 2.1484375 C-3.78523438 2.22320313 -4.93765625 2.29796875 -6.125 2.375 C-7.83042969 2.47941406 -7.83042969 2.47941406 -9.5703125 2.5859375 C-12.95393616 2.99443876 -15.81612441 3.80967569 -19 5 C-19 4.34 -19 3.68 -19 3 C-20.65 3.33 -22.3 3.66 -24 4 C-16.73639143 -2.63199043 -9.00511606 -2.33964698 0 0 Z " fill="#1B82D3" transform="translate(51,2)"/>
<path d="M0 0 C1.49536133 0.98950195 1.49536133 0.98950195 3 3 C3.19167403 5.80852294 3.20948674 8.37274029 3.07421875 11.16796875 C3.04777786 11.96278152 3.02133698 12.7575943 2.99409485 13.57649231 C2.90634586 16.11426039 2.79719492 18.65059498 2.6875 21.1875 C2.62423955 22.90815181 2.56237354 24.6288555 2.50195312 26.34960938 C2.3508078 30.56717861 2.18046409 34.78358763 2 39 C1.67 39 1.34 39 1 39 C0.10572192 30.2286141 -0.12469647 21.56276164 -0.0625 12.75 C-0.05798828 11.51636719 -0.05347656 10.28273438 -0.04882812 9.01171875 C-0.03718487 6.00775931 -0.02083376 3.00390734 0 0 Z " fill="#434343" transform="translate(74,45)"/>
<path d="M0 0 C1.31223496 3.93670488 0.24296256 6.12488144 -1 10 C-1.99 10 -2.98 10 -4 10 C-3.98839844 10.92039062 -3.97679687 11.84078125 -3.96484375 12.7890625 C-3.90213129 21.58672507 -4.24312762 30.2283897 -5 39 C-5.33 39 -5.66 39 -6 39 C-6.08767743 34.50012438 -6.14062009 30.000471 -6.1875 25.5 C-6.21263672 24.2315625 -6.23777344 22.963125 -6.26367188 21.65625 C-6.31804804 14.69610109 -6.03406252 9.30702759 -3 3 C-2.34 3 -1.68 3 -1 3 C-0.67 2.01 -0.34 1.02 0 0 Z " fill="#6BB2F2" transform="translate(17,18)"/>
<path d="M0 0 C0.33 0 0.66 0 1 0 C1.01981934 0.63502441 1.03963867 1.27004883 1.06005859 1.92431641 C1.15581122 4.82493326 1.26528546 7.72487905 1.375 10.625 C1.4059375 11.62402344 1.436875 12.62304688 1.46875 13.65234375 C1.67239148 18.77732101 1.98611183 23.20268917 4 28 C7.63 28.66 11.26 29.32 15 30 C15 30.33 15 30.66 15 31 C13.43789839 31.05459773 11.87522911 31.09306101 10.3125 31.125 C9.00732422 31.15980469 9.00732422 31.15980469 7.67578125 31.1953125 C5 31 5 31 0 29 C0 19.43 0 9.86 0 0 Z " fill="#379BEA" transform="translate(8,63)"/>
<path d="M0 0 C18.15 0 36.3 0 55 0 C55 0.33 55 0.66 55 1 C54.0140107 1.0154612 54.0140107 1.0154612 53.00810242 1.03123474 C46.17888335 1.13924871 39.34979759 1.25385097 32.52075195 1.37231445 C29.97065006 1.41567967 27.42051884 1.45735356 24.87036133 1.49731445 C21.20905711 1.55497839 17.54790078 1.61868425 13.88671875 1.68359375 C12.17097908 1.70866249 12.17097908 1.70866249 10.420578 1.73423767 C8.82926811 1.7641555 8.82926811 1.7641555 7.20581055 1.79467773 C5.80349434 1.81799416 5.80349434 1.81799416 4.37284851 1.84178162 C1.85013487 1.90972708 1.85013487 1.90972708 -1 3 C-0.67 2.01 -0.34 1.02 0 0 Z " fill="#030202" transform="translate(116,42)"/>
<path d="M0 0 C1.25050287 2.50100574 1.02993449 4.00343052 0.87890625 6.7890625 C0.83056641 7.73007813 0.78222656 8.67109375 0.73242188 9.640625 C0.67634766 10.62546875 0.62027344 11.6103125 0.5625 12.625 C0.51029297 13.61757812 0.45808594 14.61015625 0.40429688 15.6328125 C0.27441051 18.08884568 0.13943836 20.5444936 0 23 C-0.33 23 -0.66 23 -1 23 C-1 17.72 -1 12.44 -1 7 C-1.99 7.33 -2.98 7.66 -4 8 C-4.33 12.62 -4.66 17.24 -5 22 C-5.33 22 -5.66 22 -6 22 C-6.16262928 19.26843041 -6.28110686 16.54657878 -6.375 13.8125 C-6.42527344 13.04357422 -6.47554687 12.27464844 -6.52734375 11.48242188 C-6.67307052 5.82336548 -6.67307052 5.82336548 -4.63769531 3.33349609 C-2.9765625 1.94921875 -2.9765625 1.94921875 0 0 Z " fill="#D54745" transform="translate(155,141)"/>
<path d="M0 0 C0.33 0 0.66 0 1 0 C1.01417969 0.7734375 1.02835938 1.546875 1.04296875 2.34375 C1.37312703 9.55369297 2.4733453 14.32080222 7 20 C3.51072308 19.68279301 1.44149146 19.33692769 -1.375 17.1875 C-3 15 -3 15 -3 11 C-2.34 10.67 -1.68 10.34 -1 10 C-0.53248212 7.64400765 -0.53248212 7.64400765 -0.375 4.9375 C-0.30023438 4.01839844 -0.22546875 3.09929687 -0.1484375 2.15234375 C-0.09945312 1.44207031 -0.05046875 0.73179688 0 0 Z " fill="#1726DE" transform="translate(48,106)"/>
<path d="M0 0 C-1.61010527 4.07376031 -4.53822271 6.76507069 -7.625 9.75 C-8.140625 10.25660156 -8.65625 10.76320313 -9.1875 11.28515625 C-10.45383339 12.52803902 -11.7263144 13.76465276 -13 15 C-13.66 14.67 -14.32 14.34 -15 14 C-13.41507527 10.16752664 -10.96883386 7.66913709 -8.0625 4.75 C-7.18722656 3.85796875 -6.31195313 2.9659375 -5.41015625 2.046875 C-3 0 -3 0 0 0 Z " fill="#191919" transform="translate(153,65)"/>
<path d="M0 0 C0 0.99 0 1.98 0 3 C-0.495 3.474375 -0.99 3.94875 -1.5 4.4375 C-3.46168789 6.11993064 -3.46168789 6.11993064 -3 10 C-4.010625 10.350625 -5.02125 10.70125 -6.0625 11.0625 C-10.67991575 13.00369927 -13.69387232 16.33210759 -17 20 C-17.66 19.67 -18.32 19.34 -19 19 C-12.73 12.73 -6.46 6.46 0 0 Z " fill="#2B2728" transform="translate(86,128)"/>
<path d="M0 0 C6.1147481 4.55608682 9.0073388 9.02172089 12 16 C11.34 16.33 10.68 16.66 10 17 C10 16.01 10 15.02 10 14 C9.40703125 13.93554688 8.8140625 13.87109375 8.203125 13.8046875 C5.09518857 12.66951923 4.375866 10.95794833 2.75 8.125 C1.96882812 6.79855469 1.96882812 6.79855469 1.171875 5.4453125 C0 3 0 3 0 0 Z " fill="#238DE6" transform="translate(200,10)"/>
<path d="M0 0 C2.27751344 1.47368516 4.02007 3.11435238 6 5 C2.73086376 6.03115279 0.13958652 5.9638984 -3.25 5.5625 C-4.14203125 5.46066406 -5.0340625 5.35882813 -5.953125 5.25390625 C-6.62859375 5.17011719 -7.3040625 5.08632812 -8 5 C-8 3.68 -8 2.36 -8 1 C-5.09704195 -0.45147903 -3.22738221 -0.37239025 0 0 Z " fill="#F60D0F" transform="translate(138,140)"/>
<path d="M0 0 C1.63671875 1.39453125 1.63671875 1.39453125 4.19921875 4.01953125 C3.86921875 5.66953125 3.53921875 7.31953125 3.19921875 9.01953125 C1.87921875 9.01953125 0.55921875 9.01953125 -0.80078125 9.01953125 C-1.46078125 7.03953125 -2.12078125 5.05953125 -2.80078125 3.01953125 C-5.77078125 2.52453125 -5.77078125 2.52453125 -8.80078125 2.01953125 C-8.80078125 1.68953125 -8.80078125 1.35953125 -8.80078125 1.01953125 C-2.77541127 -1.51112414 -2.77541127 -1.51112414 0 0 Z " fill="#F11E20" transform="translate(102.80078125,152.98046875)"/>
<path d="M0 0 C0.66 0 1.32 0 2 0 C1.74503693 2.60662244 1.47179707 5.20905522 1.1875 7.8125 C1.11724609 8.55048828 1.04699219 9.28847656 0.97460938 10.04882812 C0.35233341 15.54974762 0.35233341 15.54974762 -1.57421875 18.01171875 C-2.27998047 18.50091797 -2.27998047 18.50091797 -3 19 C-3.0814222 16.77144426 -3.13938079 14.54202345 -3.1875 12.3125 C-3.22230469 11.07113281 -3.25710937 9.82976563 -3.29296875 8.55078125 C-2.98350575 4.80008965 -2.31596695 2.93281045 0 0 Z " fill="#539DE1" transform="translate(11,24)"/>
<path d="M0 0 C0.33 0 0.66 0 1 0 C1.19977261 3.31187649 1.38251777 6.62449376 1.5625 9.9375 C1.61857422 10.86369141 1.67464844 11.78988281 1.73242188 12.74414062 C2.04292831 18.64376282 1.81051594 24.1462738 1 30 C0.67 30 0.34 30 0 30 C-1.2207022 23.62522182 -0.91131144 17.52152558 -0.5625 11.0625 C-0.51029297 9.99708984 -0.45808594 8.93167969 -0.40429688 7.83398438 C-0.27546928 5.22229771 -0.14054502 2.6110779 0 0 Z " fill="#906259" transform="translate(37,34)"/>
<path d="M0 0 C-0.33 1.32 -0.66 2.64 -1 4 C-3.64 4.33 -6.28 4.66 -9 5 C-9.33 3.68 -9.66 2.36 -10 1 C-6.78548731 -0.60725635 -3.56387464 -0.05748185 0 0 Z " fill="#F8D9D9" transform="translate(140,145)"/>
<path d="M0 0 C0.99 1.485 0.99 1.485 2 3 C3.72985242 2.88487847 5.45888751 2.75744323 7.1875 2.625 C8.15042969 2.55539063 9.11335937 2.48578125 10.10546875 2.4140625 C13.01508938 1.99784147 15.32890774 1.20125904 18 0 C18.33 0.99 18.66 1.98 19 3 C16.43046068 4.28476966 14.02211144 4.59064729 11.1875 5.0625 C10.14980469 5.23910156 9.11210937 5.41570312 8.04296875 5.59765625 C5.31285428 5.95863416 2.74828143 6.07620004 0 6 C0 4.02 0 2.04 0 0 Z " fill="#2891E1" transform="translate(189,89)"/>
<path d="M0 0 C5.41538462 -0.36923077 5.41538462 -0.36923077 8.375 1.5 C8.91125 1.995 9.4475 2.49 10 3 C8.82421875 4.55078125 8.82421875 4.55078125 7 6 C4.51953125 5.85546875 4.51953125 5.85546875 1.8125 5.1875 C0.91144531 4.97480469 0.01039062 4.76210937 -0.91796875 4.54296875 C-1.60503906 4.36378906 -2.29210937 4.18460937 -3 4 C-2.01 3.67 -1.02 3.34 0 3 C0 2.01 0 1.02 0 0 Z " fill="#171DF8" transform="translate(68,97)"/>
<path d="M0 0 C0.99 0 1.98 0 3 0 C3 0.66 3 1.32 3 2 C-0.46153846 5 -0.46153846 5 -3 5 C-3.2475 5.763125 -3.495 6.52625 -3.75 7.3125 C-5.12130672 10.26080945 -6.2351079 11.35834532 -9 13 C-9.66 13 -10.32 13 -11 13 C-10.45677238 9.205764 -8.9784232 7.7689044 -6.0625 5.375 C-5.35222656 4.78460938 -4.64195313 4.19421875 -3.91015625 3.5859375 C-3.27980469 3.06257812 -2.64945313 2.53921875 -2 2 C-1.34 1.34 -0.68 0.68 0 0 Z " fill="#110504" transform="translate(77,139)"/>
<path d="M0 0 C0.66 0.33 1.32 0.66 2 1 C0.33333333 2.66666667 -1.33333333 4.33333333 -3 6 C-3.515625 6.61875 -4.03125 7.2375 -4.5625 7.875 C-5.2740625 8.431875 -5.2740625 8.431875 -6 9 C-8.1875 8.6875 -8.1875 8.6875 -10 8 C-8.61469871 4.57282232 -7.32522773 3.2706507 -4 1.6875 C-3.29875 1.34074219 -2.5975 0.99398438 -1.875 0.63671875 C-1.25625 0.42660156 -0.6375 0.21648438 0 0 Z " fill="#9ED7FD" transform="translate(32,7)"/>
<path d="M0 0 C3.3 0 6.6 0 10 0 C10.33 1.32 10.66 2.64 11 4 C8.03 4 5.06 4 2 4 C2 3.01 2 2.02 2 1 C1.34 0.67 0.68 0.34 0 0 Z " fill="#F01F1F" transform="translate(152,164)"/>
<path d="M0 0 C2.625 0.375 2.625 0.375 5 1 C2.42215154 3.64752004 0.08351902 5.94432065 -3 8 C-3 6.68 -3 5.36 -3 4 C-5.64 4 -8.28 4 -11 4 C-11 3.67 -11 3.34 -11 3 C-10.37351562 2.95101562 -9.74703125 2.90203125 -9.1015625 2.8515625 C-8.28429687 2.77679688 -7.46703125 2.70203125 -6.625 2.625 C-5.81289062 2.55539063 -5.00078125 2.48578125 -4.1640625 2.4140625 C-1.79665809 2.17107412 -1.79665809 2.17107412 0 0 Z " fill="#F02B2F" transform="translate(107,136)"/>
<path d="M0 0 C1.62490954 -0.02698189 3.24994633 -0.04638757 4.875 -0.0625 C5.77992187 -0.07410156 6.68484375 -0.08570312 7.6171875 -0.09765625 C10 0 10 0 12 1 C11.67 5.95 11.34 10.9 11 16 C10.67 16 10.34 16 10 16 C9.67 11.71 9.34 7.42 9 3 C6.03 2.67 3.06 2.34 0 2 C0 1.34 0 0.68 0 0 Z " fill="#1285DF" transform="translate(22,96)"/>
<path d="M0 0 C6.75 0.75 6.75 0.75 9 3 C8.625 6.125 8.625 6.125 8 9 C7.01 9.33 6.02 9.66 5 10 C5 9.34 5 8.68 5 8 C5.66 8 6.32 8 7 8 C4.78065836 4.67098753 3.65316671 4.24976756 0 3 C0 2.01 0 1.02 0 0 Z " fill="#F8E9E6" transform="translate(93,154)"/>
<path d="M0 0 C0.33 0.99 0.66 1.98 1 3 C1.66 3.33 2.32 3.66 3 4 C2.34 5.32 1.68 6.64 1 8 C-0.98 8 -2.96 8 -5 8 C-4.45773019 4.20411134 -2.79872437 2.52788007 0 0 Z " fill="#F0302A" transform="translate(105,127)"/>
<path d="M0 0 C2.97 0 5.94 0 9 0 C9.33 0.99 9.66 1.98 10 3 C9 4 9 4 6.93359375 4.09765625 C6.10988281 4.08605469 5.28617187 4.07445313 4.4375 4.0625 C3.61121094 4.05347656 2.78492187 4.04445313 1.93359375 4.03515625 C1.29550781 4.02355469 0.65742187 4.01195313 0 4 C0 2.68 0 1.36 0 0 Z " fill="#091AF6" transform="translate(66,122)"/>
<path d="M0 0 C0 0.99 0 1.98 0 3 C-1.36142763 3.91896365 -2.73058915 4.82817042 -4.1328125 5.68359375 C-7.84222498 8.29880715 -10.87272981 11.7298596 -14 15 C-14.66 14.67 -15.32 14.34 -16 14 C-13.90185329 11.84797791 -11.79697945 9.70336384 -9.6875 7.5625 C-8.79514648 6.64500977 -8.79514648 6.64500977 -7.88476562 5.70898438 C-7.01948242 4.8340332 -7.01948242 4.8340332 -6.13671875 3.94140625 C-5.60780029 3.40201416 -5.07888184 2.86262207 -4.53393555 2.30688477 C-3 1 -3 1 0 0 Z " fill="#EAEAEA" transform="translate(115,48)"/>
<path d="M0 0 C2.86001033 1.28207359 5.07039412 2.49151236 7 5 C7 6.32 7 7.64 7 9 C3.2047869 7.50902342 1.38957269 5.24299151 -1 2 C-0.67 1.34 -0.34 0.68 0 0 Z " fill="#FBE3E3" transform="translate(70,151)"/>
<path d="M0 0 C1.65 0.33 3.3 0.66 5 1 C0.375 5.875 0.375 5.875 -3 7 C-3 6.34 -3 5.68 -3 5 C-4.32 4.67 -5.64 4.34 -7 4 C-5.35 4 -3.7 4 -2 4 C-1.34 2.68 -0.68 1.36 0 0 Z " fill="#F9D8D8" transform="translate(165,131)"/>
<path d="M0 0 C0.66 0 1.32 0 2 0 C2 1.65 2 3.3 2 5 C1.34 5 0.68 5 0 5 C0 5.99 0 6.98 0 8 C-0.99 8 -1.98 8 -3 8 C-3.12375 8.639375 -3.2475 9.27875 -3.375 9.9375 C-3.58125 10.618125 -3.7875 11.29875 -4 12 C-4.99 12.495 -4.99 12.495 -6 13 C-4.58707905 8.1725201 -2.57025846 4.2837641 0 0 Z " fill="#267ECB" transform="translate(14,16)"/>
<path d="M0 0 C0 3 0 3 -1.96875 5.26171875 C-2.8040625 6.06222656 -3.639375 6.86273438 -4.5 7.6875 C-5.3353125 8.49574219 -6.170625 9.30398437 -7.03125 10.13671875 C-7.6809375 10.75160156 -8.330625 11.36648437 -9 12 C-9.66 11.34 -10.32 10.68 -11 10 C-7.50640535 6.40365256 -3.88901869 3.16548033 0 0 Z " fill="#030403" transform="translate(105,112)"/>
<path d="M0 0 C-0.33 1.65 -0.66 3.3 -1 5 C-1.99 5 -2.98 5 -4 5 C-4 9.95 -4 14.9 -4 20 C-4.33 20 -4.66 20 -5 20 C-5 13.73 -5 7.46 -5 1 C-3 0 -3 0 0 0 Z " fill="#3647F7" transform="translate(68,97)"/>
<path d="M0 0 C0.99 0.33 1.98 0.66 3 1 C-0.51582826 5.66283606 -3.03648545 8.72210402 -9 10 C-8.06409496 8.8944811 -7.12620142 7.79064547 -6.1875 6.6875 C-5.66542969 6.07261719 -5.14335938 5.45773438 -4.60546875 4.82421875 C-3.12827531 3.14575321 -1.59960869 1.56117966 0 0 Z " fill="#353535" transform="translate(113,44)"/>
<path d="M0 0 C0.66 0 1.32 0 2 0 C4 2 6 4 8 6 C7.360625 6.12375 6.72125 6.2475 6.0625 6.375 C5.0415625 6.684375 5.0415625 6.684375 4 7 C3.67 7.66 3.34 8.32 3 9 C0.70620251 5.55930376 0 4.27709699 0 0 Z " fill="#1628EC" transform="translate(58,114)"/>
<path d="M0 0 C1.32 0.66 2.64 1.32 4 2 C3.67 3.65 3.34 5.3 3 7 C2.67 7 2.34 7 2 7 C1.67 9.97 1.34 12.94 1 16 C0.67 16 0.34 16 0 16 C-0.19441368 13.7089095 -0.38033135 11.41709663 -0.5625 9.125 C-0.71912109 7.21074219 -0.71912109 7.21074219 -0.87890625 5.2578125 C-1 2 -1 2 0 0 Z " fill="#1721D4" transform="translate(77,100)"/>
<path d="M0 0 C0 0.99 0 1.98 0 3 C-0.99 3.33 -1.98 3.66 -3 4 C-3.33 4.66 -3.66 5.32 -4 6 C-4.99 6 -5.98 6 -7 6 C-7.33 4.68 -7.66 3.36 -8 2 C-4.77208445 -0.1519437 -3.71599191 -0.20086443 0 0 Z " fill="#43B2F7" transform="translate(23,192)"/>
<path d="M0 0 C1.98 0.495 1.98 0.495 4 1 C4 1.66 4 2.32 4 3 C5.45833358 4.62514468 5.45833358 4.62514468 7 6 C6.67 6.99 6.34 7.98 6 9 C3.69 7.02 1.38 5.04 -1 3 C-0.67 2.01 -0.34 1.02 0 0 Z " fill="#F9E0DE" transform="translate(97,145)"/>
<path d="M0 0 C0.97582031 0.00902344 1.95164063 0.01804687 2.95703125 0.02734375 C3.69308594 0.03894531 4.42914063 0.05054687 5.1875 0.0625 C4.8575 0.7225 4.5275 1.3825 4.1875 2.0625 C3.0325 2.000625 1.8775 1.93875 0.6875 1.875 C-4.02463121 1.84975644 -7.50809472 3.21775488 -11.8125 5.0625 C-11.4825 3.7425 -11.1525 2.4225 -10.8125 1.0625 C-7.13862505 0.20951624 -3.7677607 -0.04539471 0 0 Z " fill="#0A7FD8" transform="translate(199.8125,93.9375)"/>
<path d="M0 0 C0 0.66 0 1.32 0 2 C-6.15234375 2.09765625 -6.15234375 2.09765625 -8 2 C-8.33 1.67 -8.66 1.34 -9 1 C-10.51928038 0.92820036 -12.04167482 0.91607993 -13.5625 0.9375 C-14.80193359 0.95103516 -14.80193359 0.95103516 -16.06640625 0.96484375 C-17.02353516 0.98224609 -17.02353516 0.98224609 -18 1 C-18 0.67 -18 0.34 -18 0 C-12.06636277 -1.21715636 -5.81109182 -1.93703061 0 0 Z " fill="#A6E0FD" transform="translate(188,6)"/>
<path d="M0 0 C8.19256018 -0.63019694 8.19256018 -0.63019694 11.5625 2 C12.036875 2.66 12.51125 3.32 13 4 C12.01 4.495 12.01 4.495 11 5 C10.1646875 4.566875 10.1646875 4.566875 9.3125 4.125 C6.27057165 2.64514296 3.33926563 2.38529988 0 2 C0 1.34 0 0.68 0 0 Z " fill="#061124" transform="translate(181,0)"/>
<path d="M0 0 C4.21878192 -0.19622241 7.17010894 0.19769832 11 2 C11 2.66 11 3.32 11 4 C11.99 4 12.98 4 14 4 C14 4.99 14 5.98 14 7 C13.34 7 12.68 7 12 7 C12 6.34 12 5.68 12 5 C11.38511719 4.80664062 10.77023438 4.61328125 10.13671875 4.4140625 C8.92435547 4.02347656 8.92435547 4.02347656 7.6875 3.625 C6.88699219 3.36976562 6.08648437 3.11453125 5.26171875 2.8515625 C3 2 3 2 0 0 Z " fill="#209CF6" transform="translate(182,4)"/>
<path d="M0 0 C0.33 1.32 0.66 2.64 1 4 C0.34 4.66 -0.32 5.32 -1 6 C-1.66 5.67 -2.32 5.34 -3 5 C-3 5.66 -3 6.32 -3 7 C-4.62626404 8.38232443 -6.2925002 9.71937515 -8 11 C-8.66 10.67 -9.32 10.34 -10 10 C-6.7 6.7 -3.4 3.4 0 0 Z " fill="#202221" transform="translate(66,148)"/>
<path d="M0 0 C0.66 0 1.32 0 2 0 C2 0.66 2 1.32 2 2 C2.66 2.33 3.32 2.66 4 3 C3.01 4.485 3.01 4.485 2 6 C-0.625 6.1875 -0.625 6.1875 -3 6 C-2.42655063 3.13275314 -2.1385485 2.1385485 0 0 Z " fill="#EE362F" transform="translate(161,129)"/>
<path d="M0 0 C2.64 0 5.28 0 8 0 C6.515 2.475 6.515 2.475 5 5 C3.68 4.67 2.36 4.34 1 4 C0.67 2.68 0.34 1.36 0 0 Z " fill="#3EB1F2" transform="translate(200,192)"/>
<path d="M0 0 C2.64 0.66 5.28 1.32 8 2 C8 2.99 8 3.98 8 5 C6.02 5 4.04 5 2 5 C1.34 3.35 0.68 1.7 0 0 Z " fill="#F4D6D2" transform="translate(70,163)"/>
<path d="M0 0 C0 1.32 0 2.64 0 4 C-2.31 4.33 -4.62 4.66 -7 5 C-6.67 3.68 -6.34 2.36 -6 1 C-3.92446352 0.4465236 -2.15634036 0 0 0 Z " fill="#FD0203" transform="translate(162,140)"/>
<path d="M0 0 C0.99 0.33 1.98 0.66 3 1 C2.75 2.875 2.75 2.875 2 5 C0.1875 6.375 0.1875 6.375 -2 7 C-4.25 6.125 -4.25 6.125 -6 5 C-4.68 5 -3.36 5 -2 5 C-1.855625 4.360625 -1.71125 3.72125 -1.5625 3.0625 C-1 1 -1 1 0 0 Z " fill="#F8CAC5" transform="translate(108,130)"/>
<path d="M0 0 C2 1 2 1 2.8125 2.875 C3 5 3 5 1.5625 6.75 C1.046875 7.1625 0.53125 7.575 0 8 C-0.66 7.67 -1.32 7.34 -2 7 C-2.125 4.625 -2.125 4.625 -2 2 C-1.34 1.34 -0.68 0.68 0 0 Z " fill="#091FF2" transform="translate(79,114)"/>
<path d="M0 0 C0.33 0 0.66 0 1 0 C1.02705729 1.77074917 1.04642195 3.54161711 1.0625 5.3125 C1.07410156 6.29863281 1.08570313 7.28476563 1.09765625 8.30078125 C1 11 1 11 0 14 C-0.66 14 -1.32 14 -2 14 C-2 13.34 -2 12.68 -2 12 C-2.66 11.67 -3.32 11.34 -4 11 C-3.67 10.34 -3.34 9.68 -3 9 C-2.01 9 -1.02 9 0 9 C0 6.03 0 3.06 0 0 Z " fill="#272126" transform="translate(38,168)"/>
<path d="M0 0 C0.33 0 0.66 0 1 0 C1.25 5.625 1.25 5.625 -1 9 C-3.97 8.505 -3.97 8.505 -7 8 C-6.360625 7.896875 -5.72125 7.79375 -5.0625 7.6875 C-4.381875 7.460625 -3.70125 7.23375 -3 7 C-2.67 6.01 -2.34 5.02 -2 4 C-1.34 4 -0.68 4 0 4 C0 2.68 0 1.36 0 0 Z " fill="#EFC0C1" transform="translate(139,156)"/>
<path d="M0 0 C0 0.99 0 1.98 0 3 C-5.75 6 -5.75 6 -8 6 C-7.25 3.5625 -7.25 3.5625 -6 1 C-3.84657966 0.12517299 -2.30989225 0 0 0 Z " fill="#1796F9" transform="translate(32,5)"/>
<path d="M0 0 C2.31 0 4.62 0 7 0 C7 0.99 7 1.98 7 3 C4.69 3.33 2.38 3.66 0 4 C0 2.68 0 1.36 0 0 Z " fill="#EE060A" transform="translate(92,165)"/>
<path d="M0 0 C0 0.66 0 1.32 0 2 C-1.98 2.66 -3.96 3.32 -6 4 C-6 3.34 -6 2.68 -6 2 C-7.65 2.33 -9.3 2.66 -11 3 C-7.48550811 -0.37391222 -4.73940561 -0.27342725 0 0 Z " fill="#198CE5" transform="translate(38,3)"/>
<path d="M0 0 C2.875 -0.125 2.875 -0.125 6 0 C6.66 0.66 7.32 1.32 8 2 C7.67 2.99 7.34 3.98 7 5 C4.69 4.34 2.38 3.68 0 3 C0 2.01 0 1.02 0 0 Z " fill="#63CFFC" transform="translate(22,200)"/>
<path d="M0 0 C0.99 0.66 1.98 1.32 3 2 C3 2.66 3 3.32 3 4 C2.34 4 1.68 4 1 4 C1 4.66 1 5.32 1 6 C-0.32 5.67 -1.64 5.34 -3 5 C-3 4.01 -3 3.02 -3 2 C-2.01 1.34 -1.02 0.68 0 0 Z " fill="#F8F1EE" transform="translate(167,139)"/>
<path d="M0 0 C2.475 0.495 2.475 0.495 5 1 C5 2.32 5 3.64 5 5 C3.35 4.67 1.7 4.34 0 4 C0 2.68 0 1.36 0 0 Z " fill="#F61112" transform="translate(106,126)"/>
<path d="M0 0 C2.8326134 1.4163067 3.01707833 3.14497293 4.125 6.0625 C4.47820312 6.98160156 4.83140625 7.90070312 5.1953125 8.84765625 C5.46085938 9.55792969 5.72640625 10.26820312 6 11 C5.34 11 4.68 11 4 11 C4 10.01 4 9.02 4 8 C3.01 8 2.02 8 1 8 C0.67 5.36 0.34 2.72 0 0 Z " fill="#2E80C2" transform="translate(206,16)"/>
<path d="M0 0 C1.32 0 2.64 0 4 0 C4 1.32 4 2.64 4 4 C2.35 4.33 0.7 4.66 -1 5 C-1.33 4.01 -1.66 3.02 -2 2 C-1.34 1.34 -0.68 0.68 0 0 Z " fill="#F5201E" transform="translate(164,126)"/>
<path d="M0 0 C4.875 2.625 4.875 2.625 6 6 C4.02 5.34 2.04 4.68 0 4 C0 2.68 0 1.36 0 0 Z " fill="#A0D7FB" transform="translate(193,10)"/>
<path d="M0 0 C-1.29299694 2.88437779 -2.65941363 4.87219421 -5 7 C-5.99 6.67 -6.98 6.34 -8 6 C-3.375 0 -3.375 0 0 0 Z " fill="#040404" transform="translate(90,128)"/>
<path d="M0 0 C0.33 1.32 0.66 2.64 1 4 C1.66 4 2.32 4 3 4 C2.34 5.32 1.68 6.64 1 8 C0.34 7.67 -0.32 7.34 -1 7 C-1 6.34 -1 5.68 -1 5 C-1.66 4.67 -2.32 4.34 -3 4 C-2.01 2.68 -1.02 1.36 0 0 Z " fill="#1E2BEB" transform="translate(76,117)"/>
<path d="M0 0 C0.99 0.33 1.98 0.66 3 1 C0.38485683 3.12038635 -2.19637616 5.13091744 -5 7 C-5.33 6.34 -5.66 5.68 -6 5 C-4.06745228 2.9754262 -2.36841312 1.57894208 0 0 Z " fill="#0E2130" transform="translate(23,5)"/>
<path d="M0 0 C2.64 0 5.28 0 8 0 C8 0.99 8 1.98 8 3 C6.02 3 4.04 3 2 3 C2 2.34 2 1.68 2 1 C1.34 0.67 0.68 0.34 0 0 Z " fill="#FB0206" transform="translate(130,165)"/>
<path d="M0 0 C0.66 0 1.32 0 2 0 C2 2.97 2 5.94 2 9 C-1 6 -1 6 -2 3 C-1.34 2.01 -0.68 1.02 0 0 Z " fill="#0F2EFD" transform="translate(48,99)"/>
<path d="M0 0 C2 0 2 0 4.1875 1.75 C5.0846875 2.86375 5.0846875 2.86375 6 4 C5.75 6.25 5.75 6.25 5 8 C2.27573689 5.64722731 1.1858237 3.37503669 0 0 Z " fill="#35A8E8" transform="translate(10,187)"/>
<path d="M0 0 C0.99 0.33 1.98 0.66 3 1 C3 1.66 3 2.32 3 3 C3.61875 3.268125 4.2375 3.53625 4.875 3.8125 C7 5 7 5 9 8 C5.08158173 6.69386058 2.67359191 5.16870152 0 2 C0 1.34 0 0.68 0 0 Z " fill="#4B4B4B" transform="translate(92,64)"/>
<path d="M0 0 C1.65 0 3.3 0 5 0 C3.37660195 1.70884005 1.70680947 3.37446717 0 5 C-0.66 5 -1.32 5 -2 5 C-1.34 3.35 -0.68 1.7 0 0 Z " fill="#60C0E7" transform="translate(194,202)"/>
<path d="M0 0 C1.98 0.66 3.96 1.32 6 2 C5.67 3.32 5.34 4.64 5 6 C4.01 5.34 3.02 4.68 2 4 C2 3.34 2 2.68 2 2 C1.34 2 0.68 2 0 2 C0 1.34 0 0.68 0 0 Z " fill="#27A4F7" transform="translate(10,185)"/>
<path d="M0 0 C3.37462715 0.54723683 5.08235 1.0549 8 3 C7.236875 2.979375 6.47375 2.95875 5.6875 2.9375 C2.89814214 2.87057159 2.89814214 2.87057159 0 4 C0 2.68 0 1.36 0 0 Z " fill="#0C86E2" transform="translate(8,92)"/>
<path d="M0 0 C0.33 0 0.66 0 1 0 C1.25 2.25 1.25 2.25 1 5 C-1 7.3125 -1 7.3125 -3 9 C-2.5020163 5.26512223 -2.12508244 3.18762365 0 0 Z " fill="#DDE8F9" transform="translate(53,98)"/>
<path d="M0 0 C0.66 0 1.32 0 2 0 C1.34 2.64 0.68 5.28 0 8 C-0.66 8 -1.32 8 -2 8 C-3 5 -3 5 -1.6875 2.3125 C-1.130625 1.549375 -0.57375 0.78625 0 0 Z " fill="#4193DC" transform="translate(11,24)"/>
<path d="M0 0 C0.99 0.33 1.98 0.66 3 1 C2.67 2.32 2.34 3.64 2 5 C0.68 4.67 -0.64 4.34 -2 4 C-1.34 2.68 -0.68 1.36 0 0 Z " fill="#95D0FB" transform="translate(24,11)"/>
</svg>
