<?xml version="1.0" encoding="UTF-8"?>
<svg version="1.1" xmlns="http://www.w3.org/2000/svg" width="256" height="256">
<path d="M0 0 C0.7922699 -0.00807175 1.58453979 -0.01614349 2.40081787 -0.02445984 C4.078388 -0.03824665 5.75598554 -0.04899279 7.43359375 -0.05688477 C9.11271668 -0.06829534 10.79180657 -0.08856921 12.47070312 -0.1184082 C42.51426192 -0.65065256 70.8015519 9.80418373 93.734375 29.23828125 C94.73984375 30.08003906 95.7453125 30.92179687 96.78125 31.7890625 C119.03821229 50.96854549 135.18700294 79.97035019 138.734375 109.23828125 C139.08172951 114.59199696 139.10603611 119.95151962 139.10498047 125.31469727 C139.10932478 127.77236831 139.14567089 130.2281951 139.18359375 132.68554688 C139.3890258 161.59390815 128.35308842 189.26763607 109.734375 211.23828125 C108.89261719 212.24375 108.05085937 213.24921875 107.18359375 214.28515625 C88.00411076 236.54211854 59.00230606 252.69090919 29.734375 256.23828125 C24.38065929 256.58563576 19.02113663 256.60994236 13.65795898 256.60888672 C11.20028794 256.61323103 8.74446115 256.64957714 6.28710938 256.6875 C-22.6212519 256.89293205 -50.29497982 245.85699467 -72.265625 227.23828125 C-73.27109375 226.39652344 -74.2765625 225.55476562 -75.3125 224.6875 C-97.83724406 205.27726153 -113.17182158 176.70132716 -117.265625 147.23828125 C-117.39155961 144.47501535 -117.47645621 141.73652178 -117.50390625 138.97265625 C-117.511978 138.18038635 -117.52004974 137.38811646 -117.52836609 136.57183838 C-117.5421529 134.89426825 -117.55289904 133.21667071 -117.56079102 131.5390625 C-117.57220159 129.85993957 -117.59247546 128.18084968 -117.62231445 126.50195312 C-118.21570644 93.00679877 -104.84623188 62.36216629 -82.0703125 38.00048828 C-61.16178533 16.45338204 -30.42039216 0.30212795 0 0 Z " fill="#48B9C7" transform="translate(117.265625,-0.23828125)"/>
<path d="M0 0 C10.68611893 8.26920156 17.7834605 18.80791204 20.25 32.25 C21.97291644 47.06028275 18.50589942 58.97567095 9.27734375 70.81640625 C8.27380859 72.02103516 8.27380859 72.02103516 7.25 73.25 C6.69441406 73.91902344 6.13882813 74.58804688 5.56640625 75.27734375 C0.20553821 81.15244374 -6.99479801 85.44981384 -14.75 87.25 C-11.11261275 98.17261417 -11.11261275 98.17261417 -6.75 108.8125 C3.07536122 130.21180367 3.07536122 130.21180367 1.25 139.25 C-0.77631579 143.76315789 -0.77631579 143.76315789 -3.75 145.25 C-6.8708025 145.80932917 -9.62805353 145.80921424 -12.75 145.25 C-18.53172141 141.21929177 -22.11789887 134.92674039 -25.5625 128.9375 C-26.08183105 128.05143066 -26.60116211 127.16536133 -27.13623047 126.25244141 C-28.68784821 123.59259317 -30.22184203 120.92338174 -31.75 118.25 C-32.15557129 117.54536621 -32.56114258 116.84073242 -32.97900391 116.11474609 C-45.93655365 93.51851965 -57.90449299 70.27602884 -69.42285156 46.91845703 C-69.95233398 45.8457959 -70.48181641 44.77313477 -71.02734375 43.66796875 C-71.48359131 42.73750732 -71.93983887 41.8070459 -72.40991211 40.84838867 C-73.73439452 38.20254659 -73.73439452 38.20254659 -75.38208008 35.58398438 C-78.04566735 31.03929504 -77.80993481 26.29730863 -76.75 21.25 C-68.68925653 7.65737376 -50.98839509 -2.03440904 -36.25 -6.6875 C-22.80393931 -9.85127899 -11.2758914 -7.79340521 0 0 Z " fill="#FCFEFE" transform="translate(127.75,38.75)"/>
<path d="M0 0 C1.17142044 -0.0071553 2.34284088 -0.01431061 3.54975891 -0.02168274 C7.41703436 -0.03857379 11.28315135 -0.01916261 15.15039062 0.00219727 C17.84029825 0.00372934 20.53018863 -0.00103535 23.22009277 -0.00511169 C28.85568546 -0.00962753 34.49094569 0.00620505 40.12646484 0.03417969 C46.63295474 0.0662297 53.13884518 0.06621445 59.64537764 0.04896492 C65.9159897 0.03307623 72.18638293 0.0398483 78.45698547 0.05690193 C81.12044098 0.06375736 83.78343504 0.06160136 86.44694519 0.05535698 C90.16943472 0.04990599 93.89090755 0.07027891 97.61328125 0.09765625 C98.71372269 0.09113037 99.81416412 0.08460449 100.94795227 0.07788086 C107.03114141 0.15394066 110.71377486 0.49865422 115.30664062 4.63110352 C117.84268206 8.43516568 117.90862875 10.11619256 117.30664062 14.63110352 C115.81030268 17.60179254 114.00237576 19.68054287 111.30664062 21.63110352 C107.31429 22.65870031 103.42674987 22.57817082 99.32202148 22.52099609 C98.11973404 22.53165604 96.91744659 22.54231598 95.6787262 22.55329895 C92.39302971 22.57456102 89.10933463 22.56450709 85.82372737 22.53845048 C82.38006464 22.51694572 78.93650886 22.53051846 75.49281311 22.53874207 C69.71167067 22.54689221 63.93116122 22.52627889 58.15014648 22.48876953 C51.47187858 22.44581412 44.79485057 22.44938561 38.11653227 22.47763711 C31.68352233 22.50369148 25.25097201 22.49584604 18.81796455 22.47293663 C16.08390056 22.46384952 13.35024101 22.46676616 10.61619377 22.47944069 C6.7972776 22.48995823 2.98055904 22.46189212 -0.83813477 22.42333984 C-1.97022369 22.43391418 -3.10231262 22.44448853 -4.26870728 22.4553833 C-11.72374273 22.32394067 -11.72374273 22.32394067 -14.50858879 20.33403587 C-17.15663358 17.28730991 -18.39996517 14.58718817 -18.38085938 10.56860352 C-18.40535156 9.75262695 -18.42984375 8.93665039 -18.45507812 8.09594727 C-17.54257369 5.14317651 -16.12241814 3.60931349 -13.71984863 1.6996479 C-9.47517607 -0.53851893 -4.68750124 -0.04980474 0 0 Z " fill="#FBFDFD" transform="translate(78.693359375,195.368896484375)"/>
<path d="M0 0 C3.125 2.3125 3.125 2.3125 5 5 C5.89465382 12.41642933 3.37128231 17.64715168 0.1875 24.25 C-0.30661377 25.29833008 -0.80072754 26.34666016 -1.30981445 27.42675781 C-18.84096216 64.14916824 -18.84096216 64.14916824 -29 73 C-31.625 73.0625 -31.625 73.0625 -34 72 C-36.65493722 67.38830974 -36.3432582 62.47666439 -36.3125 57.3125 C-36.30903564 56.35786865 -36.30557129 55.4032373 -36.30200195 54.41967773 C-36.12841372 42.52073215 -34.69549265 30.76659918 -33 19 C-32.88253418 18.17693359 -32.76506836 17.35386719 -32.64404297 16.50585938 C-31.52421965 9.0273304 -30.44332719 2.57293022 -25 -3 C-17.01361822 -8.24819374 -7.27669053 -4.66223358 0 0 Z " fill="#FAFDFD" transform="translate(197,82)"/>
<path d="M0 0 C6.54975687 1.1516056 10.52645556 5.66875028 14.30078125 10.859375 C19.16578588 18.31300529 21.66334583 23.74410557 21.625 32.625 C21.64111328 33.37136719 21.65722656 34.11773437 21.67382812 34.88671875 C21.67787088 39.45503594 21.26287548 42.42148417 18.3125 46.125 C15.3125 48.125 15.3125 48.125 12.87109375 48.046875 C5.92422539 45.54388121 2.01659558 35.89831817 -1 29.625 C-4.46612213 21.65386356 -8.57562336 12.01028641 -6.6875 3.125 C-4.46760216 0.13383856 -3.93268254 0.13331127 0 0 Z " fill="#4CBAC8" transform="translate(93.6875,55.875)"/>
<path d="M0 0 C2.78484346 2.86184375 3.43141454 4.9880372 3.4375 8.9375 C3.30957859 12.26837675 2.98012512 14.04320625 1.5625 17.125 C-1.69666095 19.50975191 -3.89461889 19.72550162 -7.87109375 19.4765625 C-10 19 -10 19 -12.5625 17 C-14.36510398 13.23804387 -14.94094243 10.04842459 -14 6 C-10.31834696 -0.3036421 -7.02313632 -1.60176793 0 0 Z " fill="#F7FCFC" transform="translate(166,167)"/>
</svg>
