<?xml version="1.0" encoding="UTF-8"?>
<svg xmlns="http://www.w3.org/2000/svg" xmlns:xlink="http://www.w3.org/1999/xlink" width="256px" height="256px" viewBox="0 0 256 256" version="1.1">
<g id="surface1">
<path style=" stroke:none;fill-rule:nonzero;fill:rgb(25.098041%,31.764707%,70.980394%);fill-opacity:1;" d="M 14 6 L 14 19.109375 L 95.585938 19.109375 L 95.585938 6 Z M 157.5 6 L 157.5 19.109375 L 242 19.109375 L 242 6 Z M 14 33.671875 L 14 46.777344 L 95.585938 46.777344 L 95.585938 33.671875 Z M 157.5 33.671875 L 157.5 46.777344 L 242 46.777344 L 242 33.671875 Z M 14 60.613281 L 14 73.71875 L 95.585938 73.71875 L 95.585938 60.613281 Z M 157.5 60.613281 L 157.5 73.71875 L 242 73.71875 L 242 60.613281 Z M 14 121.195312 C 14 166.339844 14.144531 168.234375 19.101562 183.015625 C 24.414062 199.109375 31.554688 210.757812 42.699219 221.898438 C 62.222656 241.269531 87.5 250.804688 122.171875 251.898438 C 161.945312 253.136719 192.175781 243.160156 213.59375 221.609375 C 224.59375 210.539062 232.820312 196.632812 237.554688 181.121094 C 241.855469 167.140625 242 164.8125 242 120.976562 L 242 81 L 199.96875 81.144531 L 157.867188 81.367188 C 157.867188 81.367188 157.503906 81.496094 157.503906 139.253906 C 157.503906 205.21875 146.449219 217.070312 125.117188 217.070312 C 103.785156 217.070312 95.316406 205.730469 95.730469 137.578125 C 96.074219 81.191406 95.511719 81 95.511719 81 L 14 81 Z M 14 121.195312 "/>
</g>
</svg>
