<?xml version="1.0" encoding="UTF-8"?>
<svg xmlns="http://www.w3.org/2000/svg" xmlns:xlink="http://www.w3.org/1999/xlink" width="256px" height="256px" viewBox="0 0 256 256" version="1.1">
<g id="surface1">
<path style=" stroke:none;fill-rule:nonzero;fill:rgb(99.607843%,99.607843%,99.607843%);fill-opacity:1;" d="M 0 0 C 84.480469 0 168.960938 0 256 0 C 256 84.480469 256 168.960938 256 256 C 171.519531 256 87.039062 256 0 256 C 0 171.519531 0 87.039062 0 0 Z M 0 0 "/>
<path style=" stroke:none;fill-rule:nonzero;fill:rgb(32.549021%,32.549021%,32.549021%);fill-opacity:1;" d="M 145.320312 35.347656 C 149.925781 39.0625 154.628906 42.554688 159.304688 46.109375 C 162.875 48.824219 166.429688 51.582031 169.976562 54.351562 C 173.410156 57.027344 176.847656 59.703125 180.304688 62.324219 C 181.058594 62.898438 181.808594 63.472656 182.5625 64.042969 C 183.035156 64.40625 183.507812 64.761719 183.984375 65.121094 C 189.679688 69.40625 193.941406 74.152344 196.023438 82.71875 C 196.804688 86.460938 196.746094 90.144531 196.730469 94 C 196.730469 94.808594 196.734375 95.617188 196.734375 96.425781 C 196.738281 98.605469 196.734375 100.785156 196.730469 102.964844 C 196.726562 105.25 196.730469 107.539062 196.730469 109.828125 C 196.730469 113.667969 196.726562 117.511719 196.71875 121.351562 C 196.710938 125.785156 196.710938 130.214844 196.714844 134.648438 C 196.71875 138.921875 196.714844 143.199219 196.710938 147.476562 C 196.710938 149.289062 196.710938 151.105469 196.710938 152.917969 C 196.714844 155.054688 196.710938 157.195312 196.703125 159.332031 C 196.703125 160.113281 196.703125 160.894531 196.703125 161.675781 C 196.71875 170.140625 195.378906 177.507812 190.980469 183.917969 C 188.929688 186.605469 186.257812 188.425781 183.777344 190.300781 C 183.265625 190.691406 182.753906 191.082031 182.238281 191.476562 C 181.402344 192.109375 180.566406 192.746094 179.730469 193.378906 C 179.195312 193.785156 178.65625 194.195312 178.121094 194.605469 C 177.375 195.171875 176.628906 195.742188 175.878906 196.308594 C 171.316406 199.78125 166.769531 203.285156 162.234375 206.820312 C 159.667969 208.820312 157.089844 210.777344 154.496094 212.71875 C 152.472656 214.242188 150.460938 215.789062 148.453125 217.355469 C 148.164062 217.578125 147.875 217.804688 147.574219 218.035156 C 146.332031 219.007812 145.085938 219.976562 143.84375 220.945312 C 142.816406 221.746094 141.792969 222.539062 140.765625 223.335938 C 140.453125 223.578125 140.144531 223.824219 139.820312 224.074219 C 134.511719 228.179688 129.261719 230.585938 123.105469 228.628906 C 120.710938 227.667969 118.613281 226.164062 116.472656 224.492188 C 115.925781 224.070312 115.378906 223.648438 114.832031 223.226562 C 113.613281 222.285156 112.394531 221.335938 111.179688 220.382812 C 109.582031 219.136719 107.976562 217.90625 106.363281 216.6875 C 103.703125 214.671875 101.0625 212.613281 98.425781 210.546875 C 95.480469 208.242188 92.523438 205.957031 89.558594 203.6875 C 87.84375 202.371094 86.136719 201.046875 84.433594 199.703125 C 82.417969 198.113281 80.382812 196.566406 78.34375 195.023438 C 75.652344 192.980469 72.964844 190.929688 70.300781 188.824219 C 70.074219 188.648438 69.84375 188.46875 69.609375 188.285156 C 65.058594 184.65625 61.171875 179.417969 59.832031 172.359375 C 59.289062 168.457031 59.332031 164.570312 59.332031 160.617188 C 59.332031 159.820312 59.328125 159.023438 59.324219 158.226562 C 59.320312 156.070312 59.320312 153.917969 59.320312 151.765625 C 59.320312 150.417969 59.316406 149.066406 59.316406 147.71875 C 59.308594 143.003906 59.308594 138.292969 59.308594 133.578125 C 59.308594 129.199219 59.300781 124.820312 59.292969 120.441406 C 59.285156 116.667969 59.28125 112.894531 59.28125 109.125 C 59.28125 106.875 59.28125 104.628906 59.273438 102.378906 C 59.269531 100.265625 59.269531 98.148438 59.273438 96.035156 C 59.273438 95.261719 59.273438 94.492188 59.269531 93.71875 C 59.230469 85.257812 60.257812 78.089844 64.738281 71.679688 C 66.023438 70.078125 67.378906 68.742188 68.878906 67.519531 C 69.078125 67.355469 69.277344 67.191406 69.484375 67.019531 C 71.515625 65.367188 73.585938 63.816406 75.660156 62.265625 C 77.742188 60.710938 79.808594 59.128906 81.867188 57.527344 C 82.160156 57.296875 82.453125 57.066406 82.757812 56.832031 C 83.351562 56.367188 83.949219 55.902344 84.542969 55.4375 C 90.382812 50.882812 96.238281 46.367188 102.105469 41.871094 C 102.738281 41.386719 103.367188 40.902344 104 40.417969 C 104.3125 40.179688 104.625 39.9375 104.945312 39.691406 C 106.871094 38.214844 108.785156 36.722656 110.699219 35.222656 C 112.621094 33.710938 114.542969 32.214844 116.472656 30.71875 C 116.714844 30.53125 116.957031 30.339844 117.207031 30.144531 C 127.765625 21.949219 135.882812 27.707031 145.320312 35.347656 Z M 145.320312 35.347656 "/>
<path style=" stroke:none;fill-rule:nonzero;fill:rgb(32.941177%,32.941177%,32.941177%);fill-opacity:1;" d="M 137.113281 137.71875 C 139.738281 139.847656 141.523438 142.84375 142.335938 146.8125 C 142.539062 148.558594 142.570312 150.28125 142.578125 152.050781 C 142.578125 152.378906 142.582031 152.710938 142.582031 153.050781 C 142.546875 157.171875 141.910156 161.15625 139.832031 164.339844 C 137.640625 167.117188 135.582031 168.242188 132.5625 168.371094 C 129.738281 168.25 127.914062 167.152344 125.867188 164.589844 C 123.085938 160.632812 122.5 155.792969 122.578125 150.566406 C 122.730469 146.75 123.734375 142.910156 125.679688 140.066406 C 128.792969 136.390625 133.292969 135.28125 137.113281 137.71875 Z M 137.113281 137.71875 "/>
<path style=" stroke:none;fill-rule:nonzero;fill:rgb(98.039216%,98.039216%,98.039216%);fill-opacity:1;" d="M 132.378906 132.160156 C 132.765625 132.164062 132.765625 132.164062 133.160156 132.167969 C 136.972656 132.296875 139.949219 134.132812 142.707031 137.601562 C 146.058594 142.3125 146.75 147.832031 146.6875 154.082031 C 146.546875 159.96875 144.710938 164.5 141.597656 168.566406 C 141.445312 168.769531 141.292969 168.972656 141.132812 169.179688 C 138.503906 172.125 134.492188 172.828125 131.179688 172.667969 C 127.066406 172.058594 123.816406 169.214844 121.199219 165.023438 C 119.28125 161.035156 118.6875 156.894531 118.726562 152.222656 C 118.722656 151.800781 118.71875 151.382812 118.714844 150.953125 C 118.730469 145.511719 120.023438 141.175781 122.808594 137.214844 C 125.566406 133.773438 128.628906 132.097656 132.378906 132.160156 Z M 127.113281 138.632812 C 126.941406 138.789062 126.769531 138.945312 126.59375 139.105469 C 124.492188 141.226562 123.332031 144.191406 122.808594 147.578125 C 122.261719 153.027344 122.496094 158.429688 124.882812 163.101562 C 126.332031 165.453125 128.050781 167.660156 130.363281 168.171875 C 133.835938 168.582031 136.445312 168.121094 139.179688 165.167969 C 141.527344 162.1875 142.449219 158.273438 142.574219 154.03125 C 142.578125 153.371094 142.582031 152.710938 142.578125 152.050781 C 142.574219 151.703125 142.574219 151.355469 142.574219 151 C 142.515625 146.734375 141.730469 143.3125 139.527344 140.144531 C 137.171875 137.140625 135.042969 136.460938 131.832031 136.46875 C 129.96875 136.5625 128.628906 137.230469 127.113281 138.632812 Z M 127.113281 138.632812 "/>
<path style=" stroke:none;fill-rule:nonzero;fill:rgb(97.647059%,97.647059%,97.647059%);fill-opacity:1;" d="M 168.910156 134.875 C 170.550781 136.410156 172.117188 138.34375 172.636719 140.996094 C 172.679688 142.058594 172.664062 143.085938 172.636719 144.148438 C 171.464844 144.148438 170.296875 144.148438 169.089844 144.148438 C 168.988281 143.613281 168.882812 143.074219 168.777344 142.523438 C 168.273438 140.511719 167.5 139.316406 166.132812 138.238281 C 164.65625 137.402344 163.316406 137.308594 161.738281 137.304688 C 161.511719 137.296875 161.285156 137.285156 161.050781 137.273438 C 159 137.261719 157.480469 138.089844 155.933594 139.890625 C 155.320312 141.429688 155.292969 142.828125 155.492188 144.542969 C 155.988281 146.207031 156.609375 146.625 157.789062 147.351562 C 158.8125 147.882812 159.84375 148.164062 160.921875 148.429688 C 170.464844 151.0625 170.464844 151.0625 172.96875 155.964844 C 173.9375 158.636719 173.921875 162.015625 173.308594 164.835938 C 173.023438 165.636719 172.742188 166.285156 172.34375 166.992188 C 172.125 167.378906 171.910156 167.765625 171.6875 168.164062 C 170.871094 169.453125 169.957031 170.121094 168.8125 170.855469 C 168.636719 170.972656 168.460938 171.089844 168.28125 171.210938 C 164.996094 173.328125 160.722656 172.9375 157.265625 171.71875 C 154.429688 170.359375 152.394531 168.035156 151.058594 164.429688 C 150.472656 162.558594 150.324219 161.125 150.464844 159.113281 C 151.636719 159.113281 152.808594 159.113281 154.015625 159.113281 C 154.183594 159.789062 154.355469 160.460938 154.53125 161.15625 C 155.3125 163.972656 156.101562 165.371094 158.125 166.675781 C 160.640625 167.949219 164.132812 167.972656 166.652344 166.695312 C 167.640625 166.066406 168.425781 165.425781 169.089844 164.234375 C 169.371094 163.109375 169.453125 162.304688 169.476562 161.132812 C 169.488281 160.800781 169.5 160.46875 169.511719 160.125 C 169.332031 158.679688 169.011719 158.144531 168.203125 157.144531 C 167.273438 156.546875 166.308594 156.144531 165.320312 155.742188 C 165.042969 155.621094 164.765625 155.503906 164.480469 155.382812 C 162.828125 154.6875 161.171875 154.109375 159.484375 153.601562 C 156.59375 152.683594 153.589844 151.167969 151.945312 147.691406 C 151.003906 145.085938 150.96875 141.914062 151.589844 139.160156 C 152.710938 136.175781 154.683594 134.277344 156.933594 132.949219 C 160.949219 131.21875 165.335938 131.976562 168.910156 134.875 Z M 168.910156 134.875 "/>
<path style=" stroke:none;fill-rule:nonzero;fill:rgb(98.039216%,98.039216%,98.039216%);fill-opacity:1;" d="M 83.066406 144.148438 C 88.824219 144.148438 94.578125 144.148438 100.507812 144.148438 C 100.507812 149.011719 100.507812 149.011719 99.289062 150.867188 C 99.015625 151.296875 98.746094 151.726562 98.476562 152.160156 C 98.328125 152.386719 98.179688 152.617188 98.027344 152.851562 C 97.132812 154.261719 96.292969 155.734375 95.445312 157.195312 C 95.28125 157.476562 95.113281 157.757812 94.941406 158.046875 C 93.601562 160.335938 92.332031 162.667969 91.046875 165.023438 C 95.730469 165.214844 95.730469 165.214844 100.507812 165.414062 C 100.507812 167.363281 100.507812 169.316406 100.507812 171.324219 C 94.460938 171.324219 88.410156 171.324219 82.179688 171.324219 C 82.179688 167.265625 82.179688 167.265625 83.546875 165.242188 C 83.847656 164.769531 84.144531 164.292969 84.445312 163.820312 C 84.601562 163.570312 84.761719 163.320312 84.929688 163.0625 C 85.828125 161.632812 86.679688 160.148438 87.539062 158.671875 C 87.699219 158.394531 87.863281 158.117188 88.03125 157.832031 C 89.457031 155.394531 90.839844 152.921875 92.230469 150.449219 C 89.207031 150.449219 86.183594 150.449219 83.066406 150.449219 C 83.066406 148.371094 83.066406 146.289062 83.066406 144.148438 Z M 83.066406 144.148438 "/>
<path style=" stroke:none;fill-rule:nonzero;fill:rgb(97.254902%,97.254902%,97.254902%);fill-opacity:1;" d="M 113.8125 133.121094 C 114.6875 133.121094 115.566406 133.121094 116.472656 133.121094 C 116.273438 135.558594 115.78125 137.816406 115.25 140.160156 C 115.0625 141.015625 114.871094 141.875 114.679688 142.730469 C 114.582031 143.167969 114.488281 143.601562 114.386719 144.050781 C 113.964844 145.964844 113.5625 147.886719 113.164062 149.808594 C 112.171875 154.566406 111.152344 159.3125 110.132812 164.0625 C 110.050781 164.441406 109.972656 164.820312 109.886719 165.210938 C 109.421875 167.378906 108.957031 169.546875 108.488281 171.71875 C 107.515625 171.71875 106.539062 171.71875 105.535156 171.71875 C 105.9375 168.800781 106.484375 165.992188 107.121094 163.152344 C 107.308594 162.308594 107.496094 161.460938 107.683594 160.617188 C 107.773438 160.21875 107.863281 159.820312 107.953125 159.40625 C 108.234375 158.148438 108.5 156.882812 108.765625 155.617188 C 109.316406 153.027344 109.921875 150.460938 110.523438 147.890625 C 111.398438 144.125 112.222656 140.347656 112.976562 136.539062 C 113.078125 136.035156 113.078125 136.035156 113.179688 135.519531 C 113.238281 135.226562 113.296875 134.933594 113.355469 134.628906 C 113.515625 133.90625 113.515625 133.90625 113.8125 133.121094 Z M 113.8125 133.121094 "/>
<path style=" stroke:none;fill-rule:nonzero;fill:rgb(90.980393%,90.980393%,90.980393%);fill-opacity:1;" d="M 133.027344 95.703125 C 136.246094 95.703125 139.464844 95.703125 142.78125 95.703125 C 142.78125 96.09375 142.78125 96.484375 142.78125 96.886719 C 142.976562 96.886719 143.171875 96.886719 143.371094 96.886719 C 143.371094 96.496094 143.371094 96.105469 143.371094 95.703125 C 146.589844 95.703125 149.808594 95.703125 153.128906 95.703125 C 153.128906 96.484375 153.128906 97.265625 153.128906 98.066406 C 146.425781 98.066406 139.726562 98.066406 133.027344 98.066406 C 133.027344 97.289062 133.027344 96.507812 133.027344 95.703125 Z M 133.027344 95.703125 "/>
<path style=" stroke:none;fill-rule:nonzero;fill:rgb(94.901961%,94.901961%,94.901961%);fill-opacity:1;" d="M 109.375 87.039062 C 115.328125 87.039062 121.277344 87.039062 127.410156 87.039062 C 127.605469 87.820312 127.800781 88.601562 128 89.402344 C 121.855469 89.402344 115.707031 89.402344 109.375 89.402344 C 109.375 88.625 109.375 87.84375 109.375 87.039062 Z M 109.375 87.039062 "/>
<path style=" stroke:none;fill-rule:nonzero;fill:rgb(99.607843%,99.607843%,99.607843%);fill-opacity:1;" d="M 109.375 108.703125 C 115.425781 108.703125 121.472656 108.703125 127.703125 108.703125 C 127.605469 109.351562 127.507812 110 127.410156 110.671875 C 121.457031 110.671875 115.507812 110.671875 109.375 110.671875 C 109.375 110.019531 109.375 109.371094 109.375 108.703125 Z M 109.375 108.703125 "/>
<path style=" stroke:none;fill-rule:nonzero;fill:rgb(94.901961%,94.901961%,94.901961%);fill-opacity:1;" d="M 109.375 82.707031 C 111.257812 82.65625 113.140625 82.625 115.023438 82.597656 C 115.664062 82.589844 116.300781 82.578125 116.941406 82.558594 C 117.863281 82.535156 118.789062 82.523438 119.710938 82.515625 C 119.992188 82.503906 120.277344 82.496094 120.566406 82.484375 C 122.671875 82.484375 124.132812 83.242188 125.929688 84.675781 C 125.929688 84.808594 125.929688 84.9375 125.929688 85.070312 C 120.46875 85.070312 115.003906 85.070312 109.375 85.070312 C 109.375 84.289062 109.375 83.511719 109.375 82.707031 Z M 109.375 82.707031 "/>
<path style=" stroke:none;fill-rule:nonzero;fill:rgb(95.294118%,95.294118%,95.294118%);fill-opacity:1;" d="M 112.628906 100.035156 C 114.5 99.996094 116.375 99.96875 118.246094 99.949219 C 118.882812 99.941406 119.519531 99.933594 120.15625 99.917969 C 121.074219 99.898438 121.988281 99.890625 122.90625 99.882812 C 123.191406 99.875 123.476562 99.867188 123.769531 99.859375 C 125.742188 99.859375 125.742188 99.859375 126.710938 100.785156 C 127.113281 101.613281 127.113281 101.613281 127.113281 102.398438 C 122.332031 102.398438 117.554688 102.398438 112.628906 102.398438 C 112.628906 101.621094 112.628906 100.839844 112.628906 100.035156 Z M 112.628906 100.035156 "/>
<path style=" stroke:none;fill-rule:nonzero;fill:rgb(95.294118%,95.294118%,95.294118%);fill-opacity:1;" d="M 112.628906 95.703125 C 117.410156 95.703125 122.1875 95.703125 127.113281 95.703125 C 126.523438 97.28125 126.523438 97.28125 125.929688 98.066406 C 125.355469 98.164062 125.355469 98.164062 124.640625 98.15625 C 124.375 98.15625 124.109375 98.15625 123.835938 98.15625 C 123.546875 98.152344 123.257812 98.148438 122.964844 98.144531 C 122.667969 98.144531 122.375 98.140625 122.070312 98.140625 C 121.128906 98.136719 120.183594 98.125 119.242188 98.117188 C 118.605469 98.113281 117.964844 98.109375 117.328125 98.105469 C 115.761719 98.097656 114.195312 98.085938 112.628906 98.066406 C 112.628906 97.289062 112.628906 96.507812 112.628906 95.703125 Z M 112.628906 95.703125 "/>
<path style=" stroke:none;fill-rule:nonzero;fill:rgb(99.215686%,99.215686%,99.215686%);fill-opacity:1;" d="M 109.375 113.035156 C 114.742188 113.035156 120.105469 113.035156 125.636719 113.035156 C 124.652344 114.34375 123.949219 114.910156 122.566406 115.097656 C 122.199219 115.09375 122.199219 115.09375 121.828125 115.09375 C 121.410156 115.09375 121.410156 115.09375 120.984375 115.09375 C 120.6875 115.089844 120.390625 115.085938 120.085938 115.078125 C 119.78125 115.078125 119.472656 115.078125 119.160156 115.078125 C 118.183594 115.070312 117.207031 115.0625 116.230469 115.050781 C 115.566406 115.046875 114.90625 115.042969 114.242188 115.042969 C 112.621094 115.03125 111 115.019531 109.375 115.003906 C 109.375 114.351562 109.375 113.703125 109.375 113.035156 Z M 109.375 113.035156 "/>
<path style=" stroke:none;fill-rule:nonzero;fill:rgb(95.294118%,95.294118%,95.294118%);fill-opacity:1;" d="M 95.777344 87.039062 C 99.679688 87.039062 103.582031 87.039062 107.601562 87.039062 C 107.601562 87.820312 107.601562 88.601562 107.601562 89.402344 C 103.699219 89.402344 99.796875 89.402344 95.777344 89.402344 C 95.777344 88.625 95.777344 87.84375 95.777344 87.039062 Z M 95.777344 87.039062 "/>
<path style=" stroke:none;fill-rule:nonzero;fill:rgb(94.509804%,94.509804%,94.509804%);fill-opacity:1;" d="M 95.777344 82.707031 C 99.679688 82.707031 103.582031 82.707031 107.601562 82.707031 C 107.601562 83.488281 107.601562 84.265625 107.601562 85.070312 C 103.699219 85.070312 99.796875 85.070312 95.777344 85.070312 C 95.777344 84.289062 95.777344 83.511719 95.777344 82.707031 Z M 95.777344 82.707031 "/>
<path style=" stroke:none;fill-rule:nonzero;fill:rgb(94.509804%,94.509804%,94.509804%);fill-opacity:1;" d="M 145.738281 87.039062 C 149.347656 87.039062 152.957031 87.039062 156.675781 87.039062 C 156.675781 87.820312 156.675781 88.601562 156.675781 89.402344 C 152.871094 89.402344 149.066406 89.402344 145.144531 89.402344 C 145.339844 88.625 145.535156 87.84375 145.738281 87.039062 Z M 145.738281 87.039062 "/>
<path style=" stroke:none;fill-rule:nonzero;fill:rgb(94.509804%,94.509804%,94.509804%);fill-opacity:1;" d="M 129.476562 87.039062 C 133.085938 87.039062 136.695312 87.039062 140.414062 87.039062 C 140.5625 88.210938 140.5625 88.210938 140.710938 89.402344 C 137.003906 89.402344 133.296875 89.402344 129.476562 89.402344 C 129.476562 88.625 129.476562 87.84375 129.476562 87.039062 Z M 129.476562 87.039062 "/>
<path style=" stroke:none;fill-rule:nonzero;fill:rgb(94.509804%,94.509804%,94.509804%);fill-opacity:1;" d="M 146.917969 82.707031 C 150.136719 82.707031 153.359375 82.707031 156.675781 82.707031 C 156.675781 83.488281 156.675781 84.265625 156.675781 85.070312 C 153.261719 85.070312 149.847656 85.070312 146.328125 85.070312 C 146.523438 84.289062 146.71875 83.511719 146.917969 82.707031 Z M 146.917969 82.707031 "/>
<path style=" stroke:none;fill-rule:nonzero;fill:rgb(93.725491%,93.725491%,93.725491%);fill-opacity:1;" d="M 129.476562 82.707031 C 132.699219 82.707031 135.917969 82.707031 139.234375 82.707031 C 139.429688 83.488281 139.625 84.265625 139.824219 85.070312 C 136.410156 85.070312 132.996094 85.070312 129.476562 85.070312 C 129.476562 84.289062 129.476562 83.511719 129.476562 82.707031 Z M 129.476562 82.707031 "/>
<path style=" stroke:none;fill-rule:nonzero;fill:rgb(99.215686%,99.215686%,99.215686%);fill-opacity:1;" d="M 95.777344 113.035156 C 99.679688 113.035156 103.582031 113.035156 107.601562 113.035156 C 107.601562 113.683594 107.601562 114.332031 107.601562 115.003906 C 103.699219 115.003906 99.796875 115.003906 95.777344 115.003906 C 95.777344 114.351562 95.777344 113.703125 95.777344 113.035156 Z M 95.777344 113.035156 "/>
<path style=" stroke:none;fill-rule:nonzero;fill:rgb(99.215686%,99.215686%,99.215686%);fill-opacity:1;" d="M 95.777344 108.703125 C 99.679688 108.703125 103.582031 108.703125 107.601562 108.703125 C 107.601562 109.351562 107.601562 110 107.601562 110.671875 C 103.699219 110.671875 99.796875 110.671875 95.777344 110.671875 C 95.777344 110.019531 95.777344 109.371094 95.777344 108.703125 Z M 95.777344 108.703125 "/>
<path style=" stroke:none;fill-rule:nonzero;fill:rgb(94.901961%,94.901961%,94.901961%);fill-opacity:1;" d="M 144.554688 91.371094 C 147.382812 91.371094 150.210938 91.371094 153.128906 91.371094 C 153.128906 92.152344 153.128906 92.933594 153.128906 93.734375 C 150.199219 93.734375 147.273438 93.734375 144.257812 93.734375 C 144.355469 92.957031 144.453125 92.175781 144.554688 91.371094 Z M 144.554688 91.371094 "/>
<path style=" stroke:none;fill-rule:nonzero;fill:rgb(94.901961%,94.901961%,94.901961%);fill-opacity:1;" d="M 133.027344 91.371094 C 135.855469 91.371094 138.683594 91.371094 141.597656 91.371094 C 141.695312 92.152344 141.792969 92.933594 141.894531 93.734375 C 138.96875 93.734375 136.039062 93.734375 133.027344 93.734375 C 133.027344 92.957031 133.027344 92.175781 133.027344 91.371094 Z M 133.027344 91.371094 "/>
<path style=" stroke:none;fill-rule:nonzero;fill:rgb(94.901961%,94.901961%,94.901961%);fill-opacity:1;" d="M 139.234375 100.035156 C 141.769531 100.035156 144.304688 100.035156 146.917969 100.035156 C 146.820312 100.816406 146.722656 101.597656 146.625 102.398438 C 144.28125 102.398438 141.941406 102.398438 139.527344 102.398438 C 139.429688 101.621094 139.332031 100.839844 139.234375 100.035156 Z M 139.234375 100.035156 "/>
<path style=" stroke:none;fill-rule:nonzero;fill:rgb(98.431373%,98.431373%,98.431373%);fill-opacity:1;" d="M 148.101562 113.035156 C 150.929688 113.035156 153.757812 113.035156 156.675781 113.035156 C 156.675781 113.683594 156.675781 114.332031 156.675781 115.003906 C 153.84375 115.003906 151.015625 115.003906 148.101562 115.003906 C 148.101562 114.351562 148.101562 113.703125 148.101562 113.035156 Z M 148.101562 113.035156 "/>
<path style=" stroke:none;fill-rule:nonzero;fill:rgb(98.431373%,98.431373%,98.431373%);fill-opacity:1;" d="M 129.476562 113.035156 C 132.308594 113.035156 135.136719 113.035156 138.050781 113.035156 C 138.050781 113.683594 138.050781 114.332031 138.050781 115.003906 C 135.222656 115.003906 132.394531 115.003906 129.476562 115.003906 C 129.476562 114.351562 129.476562 113.703125 129.476562 113.035156 Z M 129.476562 113.035156 "/>
<path style=" stroke:none;fill-rule:nonzero;fill:rgb(98.039216%,98.039216%,98.039216%);fill-opacity:1;" d="M 129.476562 108.703125 C 132.308594 108.703125 135.136719 108.703125 138.050781 108.703125 C 138.050781 109.351562 138.050781 110 138.050781 110.671875 C 135.222656 110.671875 132.394531 110.671875 129.476562 110.671875 C 129.476562 110.019531 129.476562 109.371094 129.476562 108.703125 Z M 129.476562 108.703125 "/>
<path style=" stroke:none;fill-rule:nonzero;fill:rgb(98.823529%,98.823529%,98.823529%);fill-opacity:1;" d="M 148.101562 108.703125 C 150.832031 108.703125 153.566406 108.703125 156.378906 108.703125 C 156.378906 109.351562 156.378906 110 156.378906 110.671875 C 153.648438 110.671875 150.914062 110.671875 148.101562 110.671875 C 148.101562 110.019531 148.101562 109.371094 148.101562 108.703125 Z M 148.101562 108.703125 "/>
<path style=" stroke:none;fill-rule:nonzero;fill:rgb(92.156863%,92.156863%,92.156863%);fill-opacity:1;" d="M 122.382812 104.371094 C 124.238281 104.371094 126.089844 104.371094 128 104.371094 C 128.097656 105.148438 128.195312 105.929688 128.296875 106.730469 C 126.34375 106.730469 124.394531 106.730469 122.382812 106.730469 C 122.382812 105.953125 122.382812 105.171875 122.382812 104.371094 Z M 122.382812 104.371094 "/>
<path style=" stroke:none;fill-rule:nonzero;fill:rgb(93.333334%,93.333334%,93.333334%);fill-opacity:1;" d="M 122.382812 91.371094 C 124.238281 91.371094 126.089844 91.371094 128 91.371094 C 128 92.152344 128 92.933594 128 93.734375 C 126.148438 93.734375 124.292969 93.734375 122.382812 93.734375 C 122.382812 92.957031 122.382812 92.175781 122.382812 91.371094 Z M 122.382812 91.371094 "/>
<path style=" stroke:none;fill-rule:nonzero;fill:rgb(92.54902%,92.54902%,92.54902%);fill-opacity:1;" d="M 99.03125 100.035156 C 100.785156 100.035156 102.542969 100.035156 104.351562 100.035156 C 104.351562 100.816406 104.351562 101.597656 104.351562 102.398438 C 102.59375 102.398438 100.839844 102.398438 99.03125 102.398438 C 99.03125 101.621094 99.03125 100.839844 99.03125 100.035156 Z M 99.03125 100.035156 "/>
<path style=" stroke:none;fill-rule:nonzero;fill:rgb(94.117647%,94.117647%,94.117647%);fill-opacity:1;" d="M 148.101562 104.371094 C 149.761719 104.371094 151.417969 104.371094 153.128906 104.371094 C 153.128906 105.148438 153.128906 105.929688 153.128906 106.730469 C 151.46875 106.730469 149.808594 106.730469 148.101562 106.730469 C 148.101562 105.953125 148.101562 105.171875 148.101562 104.371094 Z M 148.101562 104.371094 "/>
<path style=" stroke:none;fill-rule:nonzero;fill:rgb(93.725491%,93.725491%,93.725491%);fill-opacity:1;" d="M 140.414062 104.371094 C 142.171875 104.371094 143.925781 104.371094 145.738281 104.371094 C 145.640625 105.148438 145.542969 105.929688 145.441406 106.730469 C 143.878906 106.730469 142.320312 106.730469 140.710938 106.730469 C 140.613281 105.953125 140.515625 105.171875 140.414062 104.371094 Z M 140.414062 104.371094 "/>
<path style=" stroke:none;fill-rule:nonzero;fill:rgb(93.725491%,93.725491%,93.725491%);fill-opacity:1;" d="M 133.027344 104.371094 C 134.683594 104.371094 136.34375 104.371094 138.050781 104.371094 C 138.050781 105.148438 138.050781 105.929688 138.050781 106.730469 C 136.390625 106.730469 134.734375 106.730469 133.027344 106.730469 C 133.027344 105.953125 133.027344 105.171875 133.027344 104.371094 Z M 133.027344 104.371094 "/>
<path style=" stroke:none;fill-rule:nonzero;fill:rgb(93.725491%,93.725491%,93.725491%);fill-opacity:1;" d="M 112.628906 104.371094 C 114.285156 104.371094 115.945312 104.371094 117.652344 104.371094 C 117.652344 105.148438 117.652344 105.929688 117.652344 106.730469 C 115.996094 106.730469 114.335938 106.730469 112.628906 106.730469 C 112.628906 105.953125 112.628906 105.171875 112.628906 104.371094 Z M 112.628906 104.371094 "/>
<path style=" stroke:none;fill-rule:nonzero;fill:rgb(92.54902%,92.54902%,92.54902%);fill-opacity:1;" d="M 99.03125 104.371094 C 100.6875 104.371094 102.347656 104.371094 104.054688 104.371094 C 104.054688 105.148438 104.054688 105.929688 104.054688 106.730469 C 102.398438 106.730469 100.738281 106.730469 99.03125 106.730469 C 99.03125 105.953125 99.03125 105.171875 99.03125 104.371094 Z M 99.03125 104.371094 "/>
<path style=" stroke:none;fill-rule:nonzero;fill:rgb(95.294118%,95.294118%,95.294118%);fill-opacity:1;" d="M 148.101562 100.035156 C 149.761719 100.035156 151.417969 100.035156 153.128906 100.035156 C 153.128906 100.816406 153.128906 101.597656 153.128906 102.398438 C 151.46875 102.398438 149.808594 102.398438 148.101562 102.398438 C 148.101562 101.621094 148.101562 100.839844 148.101562 100.035156 Z M 148.101562 100.035156 "/>
<path style=" stroke:none;fill-rule:nonzero;fill:rgb(94.901961%,94.901961%,94.901961%);fill-opacity:1;" d="M 133.027344 100.035156 C 134.683594 100.035156 136.34375 100.035156 138.050781 100.035156 C 138.050781 100.816406 138.050781 101.597656 138.050781 102.398438 C 136.390625 102.398438 134.734375 102.398438 133.027344 102.398438 C 133.027344 101.621094 133.027344 100.839844 133.027344 100.035156 Z M 133.027344 100.035156 "/>
<path style=" stroke:none;fill-rule:nonzero;fill:rgb(93.725491%,93.725491%,93.725491%);fill-opacity:1;" d="M 99.03125 95.703125 C 100.6875 95.703125 102.347656 95.703125 104.054688 95.703125 C 104.054688 96.484375 104.054688 97.265625 104.054688 98.066406 C 102.398438 98.066406 100.738281 98.066406 99.03125 98.066406 C 99.03125 97.289062 99.03125 96.507812 99.03125 95.703125 Z M 99.03125 95.703125 "/>
<path style=" stroke:none;fill-rule:nonzero;fill:rgb(94.509804%,94.117647%,94.509804%);fill-opacity:1;" d="M 112.628906 91.371094 C 114.285156 91.371094 115.945312 91.371094 117.652344 91.371094 C 117.652344 92.152344 117.652344 92.933594 117.652344 93.734375 C 115.996094 93.734375 114.335938 93.734375 112.628906 93.734375 C 112.628906 92.957031 112.628906 92.175781 112.628906 91.371094 Z M 112.628906 91.371094 "/>
<path style=" stroke:none;fill-rule:nonzero;fill:rgb(93.725491%,93.725491%,93.725491%);fill-opacity:1;" d="M 99.03125 91.371094 C 100.6875 91.371094 102.347656 91.371094 104.054688 91.371094 C 104.054688 92.152344 104.054688 92.933594 104.054688 93.734375 C 102.398438 93.734375 100.738281 93.734375 99.03125 93.734375 C 99.03125 92.957031 99.03125 92.175781 99.03125 91.371094 Z M 99.03125 91.371094 "/>
<path style=" stroke:none;fill-rule:nonzero;fill:rgb(99.215686%,99.215686%,99.215686%);fill-opacity:1;" d="M 133.027344 95.703125 C 133.59375 95.695312 134.160156 95.6875 134.726562 95.679688 C 135.199219 95.671875 135.199219 95.671875 135.679688 95.667969 C 136.433594 95.699219 137.039062 95.804688 137.753906 96.097656 C 137.753906 96.617188 137.753906 97.136719 137.753906 97.675781 C 136.195312 97.675781 134.632812 97.675781 133.027344 97.675781 C 133.027344 97.023438 133.027344 96.375 133.027344 95.703125 Z M 133.027344 95.703125 "/>
<path style=" stroke:none;fill-rule:nonzero;fill:rgb(67.843139%,67.843139%,67.843139%);fill-opacity:1;" d="M 159.777344 111.753906 C 160.515625 111.851562 160.515625 111.851562 161.109375 112.640625 C 161.011719 113.9375 160.925781 114.460938 160.222656 115.398438 C 159.445312 115.25 159.445312 115.25 158.742188 115.003906 C 158.558594 113.871094 158.558594 113.871094 158.449219 112.640625 C 159.039062 111.851562 159.039062 111.851562 159.777344 111.753906 Z M 159.777344 111.753906 "/>
<path style=" stroke:none;fill-rule:nonzero;fill:rgb(99.607843%,99.607843%,99.607843%);fill-opacity:1;" d="M 151.09375 96.074219 C 151.472656 96.078125 151.851562 96.082031 152.242188 96.085938 C 152.535156 96.089844 152.828125 96.09375 153.128906 96.097656 C 153.128906 96.617188 153.128906 97.136719 153.128906 97.675781 C 151.566406 97.675781 150.003906 97.675781 148.398438 97.675781 C 148.398438 97.285156 148.398438 96.894531 148.398438 96.492188 C 149.285156 95.902344 150.109375 96.0625 151.09375 96.074219 Z M 151.09375 96.074219 "/>
<path style=" stroke:none;fill-rule:nonzero;fill:rgb(89.803922%,89.803922%,89.803922%);fill-opacity:1;" d="M 143.371094 95.703125 C 146.589844 95.703125 149.808594 95.703125 153.128906 95.703125 C 153.128906 95.835938 153.128906 95.964844 153.128906 96.097656 C 150.785156 96.292969 150.785156 96.292969 148.398438 96.492188 C 148.398438 96.882812 148.398438 97.273438 148.398438 97.675781 C 149.957031 97.675781 151.519531 97.675781 153.128906 97.675781 C 153.128906 97.804688 153.128906 97.933594 153.128906 98.066406 C 151.46875 98.066406 149.808594 98.066406 148.101562 98.066406 C 148.003906 97.546875 147.90625 97.027344 147.804688 96.492188 C 146.34375 96.492188 144.878906 96.492188 143.371094 96.492188 C 143.371094 96.230469 143.371094 95.972656 143.371094 95.703125 Z M 143.371094 95.703125 "/>
<path style=" stroke:none;fill-rule:nonzero;fill:rgb(98.823529%,98.823529%,98.823529%);fill-opacity:1;" d="M 145.921875 96.074219 C 146.273438 96.078125 146.625 96.082031 146.984375 96.085938 C 147.257812 96.089844 147.527344 96.09375 147.804688 96.097656 C 147.804688 96.617188 147.804688 97.136719 147.804688 97.675781 C 146.34375 97.675781 144.878906 97.675781 143.371094 97.675781 C 143.371094 97.285156 143.371094 96.894531 143.371094 96.492188 C 144.222656 95.925781 144.972656 96.0625 145.921875 96.074219 Z M 145.921875 96.074219 "/>
<path style=" stroke:none;fill-rule:nonzero;fill:rgb(35.294119%,35.294119%,35.294119%);fill-opacity:1;" d="M 141.894531 94.523438 C 142.390625 94.636719 142.882812 94.765625 143.371094 94.917969 C 143.371094 95.566406 143.371094 96.214844 143.371094 96.886719 C 143.175781 96.886719 142.980469 96.886719 142.78125 96.886719 C 142.78125 96.496094 142.78125 96.105469 142.78125 95.703125 C 139.5625 95.703125 136.34375 95.703125 133.027344 95.703125 C 133.027344 95.574219 133.027344 95.445312 133.027344 95.3125 C 133.285156 95.300781 133.542969 95.292969 133.808594 95.28125 C 134.761719 95.242188 135.71875 95.203125 136.671875 95.164062 C 137.085938 95.148438 137.5 95.128906 137.914062 95.113281 C 138.507812 95.09375 139.101562 95.066406 139.695312 95.042969 C 140.050781 95.027344 140.410156 95.011719 140.777344 94.996094 C 141.570312 95.039062 141.570312 95.039062 141.894531 94.523438 Z M 141.894531 94.523438 "/>
<path style=" stroke:none;fill-rule:nonzero;fill:rgb(97.254902%,97.254902%,97.254902%);fill-opacity:1;" d="M 141.597656 108.703125 C 142.574219 108.703125 143.550781 108.703125 144.554688 108.703125 C 144.457031 109.351562 144.359375 110 144.257812 110.671875 C 143.476562 110.671875 142.699219 110.671875 141.894531 110.671875 C 141.796875 110.019531 141.699219 109.371094 141.597656 108.703125 Z M 141.597656 108.703125 "/>
<path style=" stroke:none;fill-rule:nonzero;fill:rgb(58.039218%,58.039218%,58.039218%);fill-opacity:1;" d="M 159.039062 111.851562 C 159.742188 111.804688 159.742188 111.804688 160.515625 111.851562 C 160.710938 112.113281 160.90625 112.371094 161.109375 112.640625 C 160.996094 113.675781 160.996094 113.675781 160.8125 114.609375 C 160.226562 114.609375 159.640625 114.609375 159.039062 114.609375 C 159.429688 114.480469 159.820312 114.347656 160.222656 114.214844 C 160.222656 113.695312 160.222656 113.175781 160.222656 112.640625 C 159.832031 112.640625 159.441406 112.640625 159.039062 112.640625 C 159.039062 112.378906 159.039062 112.121094 159.039062 111.851562 Z M 159.039062 111.851562 "/>
<path style=" stroke:none;fill-rule:nonzero;fill:rgb(60.000002%,60.000002%,60.000002%);fill-opacity:1;" d="M 142.1875 111.851562 C 142.921875 112.046875 142.921875 112.046875 143.667969 112.246094 C 143.570312 113.027344 143.472656 113.804688 143.371094 114.609375 C 143.175781 114.609375 142.980469 114.609375 142.78125 114.609375 C 142.585938 113.699219 142.390625 112.789062 142.1875 111.851562 Z M 142.1875 111.851562 "/>
</g>
</svg>
